<svg width="406" height="238" viewBox="0 0 406 238" fill="none" xmlns="http://www.w3.org/2000/svg"><g filter="url(#azll5sfwx)"><path d="M0 12A12 12 0 0 1 12 0h382a12 12 0 0 1 12 12v226H0V12Z" fill="#101010"/><path d="M12 .5h382A11.5 11.5 0 0 1 405.5 12v225.5H.5V12A11.5 11.5 0 0 1 12 .5Z" stroke="url(#bzll5sfwx)" stroke-opacity=".5"/></g><rect x="20.32" y="147.78" width="41.48" height="41.48" rx="4.15" fill="#7C4DFF"/><path d="M35.35 176.07v-16.08H42c1.21 0 2.24.21 3.1.63.86.4 1.52 1 1.97 1.76.45.76.68 1.68.68 2.75v.02c0 1.05-.26 1.98-.78 2.8a4.23 4.23 0 0 1-2.13 1.77l3.39 6.35h-3.81l-3-5.84H38.71v5.84h-3.36Zm3.36-8.36h2.93c.84 0 1.5-.22 1.96-.67.48-.45.72-1.07.72-1.87v-.02c0-.77-.25-1.39-.74-1.84a2.78 2.78 0 0 0-1.98-.69H38.7v5.1Z" fill="#F8F9FD"/><path d="M72.99 157.78v-6.58h2.65c.47 0 .88.08 1.21.25.34.17.6.4.78.7.18.31.27.67.27 1.1 0 .44-.11.82-.33 1.16-.22.33-.52.57-.9.7l1.43 2.67h-1.34l-1.3-2.48h-1.3v2.48H73Zm1.17-3.38h1.36c.37 0 .66-.1.87-.3.2-.2.3-.47.3-.82v-.01c0-.34-.1-.62-.31-.82-.22-.2-.51-.3-.88-.3h-1.34v2.25Zm6.16 3.46c-.32 0-.6-.06-.85-.18-.24-.13-.44-.3-.58-.52a1.47 1.47 0 0 1-.2-.8c0-.3.06-.55.21-.76.15-.22.36-.39.64-.5a3 3 0 0 1 1.03-.22l1.84-.12v.75l-1.68.11a1.3 1.3 0 0 0-.7.2.57.57 0 0 0-.23.48v.01c0 .22.08.38.24.5.16.12.37.18.62.18.23 0 .43-.05.61-.14.18-.09.32-.21.43-.37.1-.16.15-.33.15-.53v-1.58c0-.25-.08-.44-.23-.57-.16-.13-.4-.2-.7-.2-.26 0-.48.05-.64.14a.68.68 0 0 0-.33.38v.01h-1.08v-.04c.04-.28.15-.52.34-.73.18-.2.42-.37.72-.49.3-.11.65-.17 1.04-.17.43 0 .8.07 1.1.2.29.13.52.32.67.57.16.25.23.55.23.9v3.4h-1.12v-.68h-.07a1.55 1.55 0 0 1-.85.67c-.19.07-.4.1-.61.1Zm5.92.02c-.5 0-.93-.1-1.28-.31-.36-.21-.63-.5-.82-.9a3.17 3.17 0 0 1-.28-1.4c0-.54.1-1 .28-1.38.19-.38.46-.68.82-.88.35-.2.78-.31 1.28-.31.42 0 .8.07 1.1.22.3.15.55.35.73.61.19.26.3.56.34.91v.02h-1.07v-.02a1.04 1.04 0 0 0-.36-.6 1.1 1.1 0 0 0-.74-.22c-.26 0-.48.06-.66.2-.19.12-.33.31-.42.56-.1.24-.15.54-.15.89 0 .36.05.66.15.92.1.25.24.44.42.57.18.13.4.2.66.2.3 0 .53-.07.71-.2.18-.14.31-.34.38-.6v-.01l1.08-.01v.04c-.06.34-.18.63-.36.89-.18.25-.42.45-.72.6-.3.14-.67.2-1.09.2Zm3.06-.1v-6.91h1.14v2.7h.07c.12-.28.3-.5.54-.64.24-.16.54-.23.9-.23.37 0 .68.07.94.22.25.14.45.35.58.63.13.27.2.6.2 1v3.23h-1.14v-2.96c0-.39-.08-.68-.24-.88-.16-.2-.42-.29-.76-.29a1 1 0 0 0-.96.57c-.09.19-.13.4-.13.65v2.9H89.3Zm7.6.1c-.49 0-.91-.1-1.27-.32a2.1 2.1 0 0 1-.81-.9c-.2-.38-.3-.83-.3-1.36 0-.53.1-.99.3-1.38.18-.38.45-.68.8-.9a2.3 2.3 0 0 1 1.23-.32c.48 0 .88.1 1.22.31.35.21.61.5.8.87.18.38.28.82.28 1.32v.37H95.1v-.76h3.49l-.54.71v-.45c0-.33-.05-.6-.15-.83a1.1 1.1 0 0 0-.42-.49c-.17-.1-.38-.16-.61-.16-.24 0-.45.06-.63.17-.18.11-.32.28-.43.5-.1.22-.15.49-.15.8v.47c0 .3.05.56.15.78.1.22.25.39.44.5.2.12.42.18.68.18.2 0 .38-.03.52-.09.15-.06.27-.13.36-.21.1-.09.16-.17.2-.24l.01-.04h1.08l-.01.05a1.87 1.87 0 0 1-.64.95c-.18.14-.4.25-.65.34-.26.08-.55.13-.9.13Zm3.2-.1v-6.91h1.13v6.9h-1.14Z" fill="#B2B5BE"/><rect opacity=".5" x="72.17" y="166.44" width="125.49" height="7.26" rx="3.63" fill="#242527"/><rect opacity=".5" x="72.17" y="179.93" width="240.6" height="7.26" rx="3.63" fill="#242527"/><path d="M111.36 159.19h4.15l4.35-10.38h-4.15l-4.34 10.38ZM105.88 159.19h4.15l4.35-10.38h-4.15l-4.35 10.38Z" fill="#D1D4DC"/><rect opacity=".5" x="36" y="205" width="41" height="32" rx="4.15" fill="#242527"/><path d="M90.18 214.85v-5.59h-2.03v-.98h5.23v.98h-2.03v5.6h-1.17Zm5.33.1c-.5 0-.92-.1-1.28-.31a2.1 2.1 0 0 1-.81-.9c-.2-.38-.3-.84-.3-1.37 0-.52.1-.98.3-1.37.18-.39.45-.69.8-.9a2.3 2.3 0 0 1 1.23-.32c.48 0 .88.1 1.22.31.35.2.61.5.8.87.18.37.28.81.28 1.31v.38H93.7v-.76h3.49l-.54.7v-.44c0-.34-.05-.61-.15-.83a1.1 1.1 0 0 0-.42-.5c-.17-.1-.38-.16-.61-.16-.24 0-.44.06-.63.18-.18.11-.32.28-.43.5-.1.22-.15.49-.15.8v.46c0 .3.05.57.15.79.1.22.25.38.44.5.2.12.42.17.68.17.2 0 .38-.03.53-.08.14-.06.26-.13.36-.22.09-.08.15-.16.19-.24l.01-.03h1.08l-.01.04a1.85 1.85 0 0 1-.64.95c-.18.14-.4.26-.65.34-.26.09-.55.13-.9.13Zm3.14-.1v-4.98h1.13v.77h.08c.08-.27.24-.48.45-.63a1.73 1.73 0 0 1 1.29-.17v1.02a2.18 2.18 0 0 0-.56-.06c-.26 0-.48.04-.67.14-.18.1-.33.23-.43.4-.1.18-.16.38-.16.62v2.9h-1.13Zm3.7 0v-4.98h1.14v.77h.07c.09-.27.24-.48.46-.63a1.72 1.72 0 0 1 1.29-.17v1.02l-.28-.05-.29-.01c-.25 0-.47.04-.66.14-.19.1-.33.23-.44.4-.1.18-.15.38-.15.62v2.9h-1.14Zm4.25 1.75a5.5 5.5 0 0 1-.43-.02v-.87l.16.01h.17c.24 0 .42-.04.56-.15.15-.1.25-.26.3-.48l.07-.23-1.78-4.99h1.23l1.32 4.41-.31-.52h.39l-.3.52 1.31-4.4h1.2l-1.8 5.08c-.14.41-.3.74-.49.98-.18.24-.4.41-.66.51-.26.1-.57.15-.94.15Zm7.55-1.58c-.48 0-.9-.08-1.29-.24-.38-.16-.7-.4-.97-.7a3.1 3.1 0 0 1-.62-1.08c-.14-.42-.21-.9-.21-1.43v-.01c0-.7.13-1.31.38-1.82a2.83 2.83 0 0 1 2.7-1.63c.5 0 .95.1 1.35.28.4.18.73.43.98.75.26.32.42.7.5 1.13v.04h-1.17l-.01-.04a1.5 1.5 0 0 0-.6-.84c-.28-.2-.64-.3-1.06-.3a1.7 1.7 0 0 0-1.64 1.13 3.3 3.3 0 0 0-.23 1.29c0 .38.04.72.13 1.02.09.3.21.56.38.77a1.7 1.7 0 0 0 1.4.66c.33 0 .63-.06.88-.2.25-.13.45-.3.6-.54.14-.24.22-.5.22-.82v-.13h-1.58v-.9h2.73v.82c0 .42-.07.8-.2 1.15a2.43 2.43 0 0 1-1.49 1.44c-.35.13-.74.2-1.18.2Zm6.02-.07c-.5 0-.92-.1-1.27-.31a2.1 2.1 0 0 1-.82-.9c-.19-.38-.29-.84-.29-1.37 0-.52.1-.98.29-1.37a2.13 2.13 0 0 1 2.04-1.22c.47 0 .88.1 1.22.31.34.2.6.5.8.87.18.37.27.81.27 1.31v.38h-4.05v-.76h3.5l-.54.7v-.44c0-.34-.05-.61-.15-.83a1.1 1.1 0 0 0-.42-.5c-.18-.1-.38-.16-.62-.16-.23 0-.44.06-.62.18-.18.11-.32.28-.43.5-.1.22-.16.49-.16.8v.46c0 .3.06.57.16.79.1.22.25.38.44.5s.42.17.68.17c.2 0 .37-.03.52-.08.15-.06.27-.13.36-.22.1-.08.16-.16.2-.24v-.03h1.08v.04a1.85 1.85 0 0 1-.64.95c-.19.14-.4.26-.66.34-.25.09-.55.13-.89.13Zm5.3 0c-.5 0-.93-.1-1.29-.3-.36-.22-.63-.52-.83-.9a3.1 3.1 0 0 1-.28-1.39c0-.54.1-1 .29-1.38.2-.39.47-.69.82-.9.36-.2.79-.3 1.28-.3.5 0 .92.1 1.28.3.36.21.64.5.83.9.2.38.3.84.3 1.38 0 .54-.1 1-.3 1.39-.2.38-.47.68-.83.9-.35.2-.78.3-1.28.3Zm0-.92c.25 0 .48-.06.66-.2.18-.13.33-.32.42-.56.1-.25.15-.55.15-.9v-.01c0-.35-.05-.65-.15-.9-.1-.25-.24-.44-.42-.57a1.1 1.1 0 0 0-.67-.2 1.11 1.11 0 0 0-1.09.77c-.1.25-.15.55-.15.9 0 .36.05.66.15.9.1.26.24.45.42.58.18.13.4.2.67.2Zm3.3.82v-4.98h1.13v.77h.08c.08-.27.24-.48.46-.63.22-.15.5-.22.82-.22a1.72 1.72 0 0 1 .46.05v1.02l-.28-.05-.28-.01c-.26 0-.48.04-.67.14-.18.1-.33.23-.43.4-.1.18-.16.38-.16.62v2.9h-1.13Zm5.66 1.75c-.44 0-.81-.06-1.13-.17a1.75 1.75 0 0 1-.75-.5c-.18-.2-.3-.45-.33-.73v-.01h1.13l.01.01c.04.16.15.3.33.4.2.1.44.15.76.15.39 0 .69-.1.9-.26a.9.9 0 0 0 .33-.74v-.96h-.08a1.54 1.54 0 0 1-.88.74c-.2.06-.4.09-.64.09-.42 0-.78-.1-1.09-.3a2 2 0 0 1-.71-.84 2.96 2.96 0 0 1-.25-1.25c0-.49.09-.9.25-1.27.17-.37.4-.65.72-.86.3-.2.67-.31 1.1-.31.23 0 .44.04.64.1.2.08.36.19.5.32.16.13.28.3.37.48h.06v-.82h1.14v4.86c0 .38-.1.71-.3 1-.19.28-.46.5-.82.65a3.2 3.2 0 0 1-1.26.22Zm0-2.88c.26 0 .49-.06.67-.19.2-.13.34-.3.44-.52.1-.22.15-.48.15-.78 0-.3-.05-.56-.15-.78a1.17 1.17 0 0 0-1.1-.72c-.27 0-.5.07-.68.2-.19.12-.33.3-.42.52-.1.22-.14.48-.14.77v.01c0 .3.04.55.14.78.1.22.23.4.42.52.18.13.4.19.67.19Zm5.66 1.23c-.5 0-.92-.1-1.27-.31s-.63-.5-.82-.9c-.19-.38-.28-.84-.28-1.37 0-.52.09-.98.28-1.37.19-.39.46-.69.81-.9.35-.22.76-.32 1.23-.32s.88.1 1.22.31c.34.2.6.5.8.87.18.37.27.81.27 1.31v.38h-4.05v-.76h3.5l-.54.7v-.44c0-.34-.05-.61-.15-.83-.1-.22-.24-.38-.42-.5-.18-.1-.38-.16-.62-.16-.23 0-.44.06-.62.18-.18.11-.32.28-.43.5-.1.22-.15.49-.15.8v.46c0 .3.05.57.15.79.1.22.25.38.44.5s.42.17.68.17c.2 0 .38-.03.52-.08.15-.06.27-.13.36-.22.1-.08.16-.16.2-.24v-.03h1.08v.04a1.85 1.85 0 0 1-.64.95c-.19.14-.4.26-.66.34a2.8 2.8 0 0 1-.88.13Z" fill="#B2B5BE"/><path d="M146.84 216.26h5.35l4.35-10.37h-5.35l-4.35 10.37Z" fill="#D1D4DC"/><rect opacity=".5" x="87.73" y="223.52" width="125.49" height="7.26" rx="3.63" fill="#242527"/><rect opacity=".5" x="25" y="204" width="33" height="4" rx="2" transform="rotate(90 25 204)" fill="#242527"/><path opacity=".4" d="M55.08 233.14v-13.3h-4.7v-2.77h12.78v2.77h-4.71v13.3h-3.37Z" fill="#F8F9FD"/><rect x="324.96" y="15.29" width="63.78" height="30.08" rx="15.04" stroke="#242527" stroke-width=".52"/><rect opacity=".6" x="354.26" y="15.03" width="34.74" height="30.59" rx="15.3" fill="#242527"/><path d="M372 36.82c3.58 0 6.5-2.92 6.5-6.5a6.18 6.18 0 0 0-2.27-4.86c-.33 1.95-1.3 3.57-3.58 3.57 0 0 .66-2.27.66-3.9 0-1.62-1.3-3.24-1.3-3.24-2.6 2.6-6.5 3.9-6.5 8.44a6.5 6.5 0 0 0 6.5 6.49Z" stroke="#D1D4DC" stroke-width="1.3"/><path d="M335.57 30.19a5.84 5.84 0 1 1 11.68 0 5.84 5.84 0 0 1-11.68 0Zm5.84-7.14a7.14 7.14 0 1 0 0 14.28 7.14 7.14 0 0 0 0-14.28Zm.65 3.24a.65.65 0 1 0-1.3 0v3.25h-1.94a.65.65 0 0 0 0 1.3h3.24v-4.55Z" fill="#D1D4DC"/><rect opacity=".6" x="20.32" y="55.99" width="368.68" height="62.74" rx="4.15" fill="#242527"/><path opacity=".5" d="M31.8 77.29v-8.77h1.1v7.78h4.23v.99h-5.32Zm9.35.11c-.63 0-1.16-.13-1.61-.4a2.74 2.74 0 0 1-1.04-1.18c-.23-.5-.35-1.1-.35-1.78 0-.68.12-1.28.35-1.79.25-.5.59-.9 1.03-1.2.44-.28.96-.43 1.55-.43a2.65 2.65 0 0 1 2.52 1.57c.23.5.34 1.06.34 1.71v.42H38.7v-.85h4.71l-.52.77v-.41c0-.52-.08-.94-.23-1.27a1.63 1.63 0 0 0-1.57-1 1.76 1.76 0 0 0-1.6 1.02c-.17.34-.25.76-.25 1.25v.41c0 .47.08.87.23 1.2a1.76 1.76 0 0 0 1.71 1.02c.3 0 .56-.04.77-.12.22-.08.4-.18.54-.3.15-.13.25-.26.3-.4l.03-.05h1.05v.05c-.06.23-.17.44-.31.65-.14.2-.33.4-.55.57-.23.16-.5.3-.81.4-.31.1-.66.14-1.04.14Zm6.8-.06c-.68 0-1.17-.14-1.47-.41-.3-.27-.45-.72-.45-1.34V71.6H45v-.87h1.03v-1.7h1.1v1.7h1.43v.87h-1.44v3.71c0 .39.08.66.22.83.15.17.39.25.73.25a3.85 3.85 0 0 0 .49-.02v.9a7.73 7.73 0 0 1-.62.06Zm2.45-5.36.53-3.46h1.21l-.95 3.46h-.79Zm5.2 5.42c-.5 0-.92-.07-1.3-.21a2.26 2.26 0 0 1-.9-.63 1.74 1.74 0 0 1-.39-.94h1.08c.1.27.27.49.53.65.26.17.6.25 1.01.25.3 0 .56-.04.78-.12.23-.1.4-.21.53-.36a.8.8 0 0 0 .2-.53v-.01a.72.72 0 0 0-.27-.57 2.06 2.06 0 0 0-.87-.38l-1.02-.24a3.7 3.7 0 0 1-1-.38 1.56 1.56 0 0 1-.6-.58c-.12-.23-.18-.5-.18-.81 0-.37.1-.7.32-.99.21-.28.5-.51.87-.68a3 3 0 0 1 1.25-.25c.45 0 .86.08 1.21.22.36.14.64.35.86.6.22.27.35.58.4.94h-1.04a1.07 1.07 0 0 0-.47-.63 1.73 1.73 0 0 0-.97-.25c-.26 0-.49.05-.7.13-.2.08-.35.2-.47.34a.79.79 0 0 0-.18.51v.01c0 .15.04.28.12.4.07.1.2.2.36.3.16.08.37.15.62.22l1.01.24c.41.1.75.22 1.02.38s.48.35.6.58c.14.23.2.5.2.8v.02c0 .39-.1.73-.34 1.03-.23.3-.54.53-.94.7-.4.16-.84.24-1.34.24Zm7.82-.11v-6.55h1.06v1h.1c.14-.36.37-.63.67-.83a2 2 0 0 1 1.1-.29c.3 0 .56.05.8.15.23.1.43.23.6.4.17.18.3.37.4.6h.1a2.11 2.11 0 0 1 1.16-1c.27-.1.55-.15.85-.15.44 0 .82.09 1.13.25.31.17.55.41.71.73.16.32.24.7.24 1.16v4.53H71.3V73c0-.32-.06-.59-.16-.8a.98.98 0 0 0-.45-.48 1.6 1.6 0 0 0-.76-.16c-.3 0-.57.07-.8.2a1.54 1.54 0 0 0-.72 1.31v4.22h-1.05v-4.45c0-.26-.06-.48-.17-.67a1.1 1.1 0 0 0-.48-.45c-.2-.1-.44-.16-.71-.16-.29 0-.54.07-.77.22-.23.15-.41.36-.55.61-.13.25-.19.53-.19.84v4.06h-1.06Zm12.66.11c-.41 0-.79-.07-1.12-.23a1.93 1.93 0 0 1-.78-.68c-.2-.29-.29-.63-.29-1.03v-.01c0-.4.1-.72.28-1 .19-.28.46-.5.82-.66a3.7 3.7 0 0 1 1.3-.27l2.4-.15v.84l-2.28.15c-.5.03-.86.13-1.1.31a.9.9 0 0 0-.34.75v.02c0 .33.13.59.38.77.25.19.57.28.95.28.36 0 .68-.07.96-.22.28-.14.5-.34.66-.59.16-.24.24-.52.24-.83V72.8c0-.4-.12-.7-.37-.92-.24-.21-.61-.32-1.1-.32-.4 0-.72.07-.97.21-.25.14-.42.34-.5.6h-1.07l.01-.03c.06-.34.2-.64.43-.9.23-.26.52-.46.89-.6.36-.14.78-.22 1.24-.22.54 0 1 .09 1.36.26.37.18.65.43.84.76.2.32.3.71.3 1.16v4.49h-1.06v-.97h-.1a2.22 2.22 0 0 1-1.16.96 2.6 2.6 0 0 1-.82.12Zm7.35 0c-.49 0-.92-.07-1.29-.21a2.26 2.26 0 0 1-.9-.63 1.74 1.74 0 0 1-.4-.94h1.09c.09.27.26.49.52.65.26.17.6.25 1.01.25.3 0 .56-.04.78-.12.23-.1.4-.21.54-.36a.8.8 0 0 0 .2-.53v-.01a.72.72 0 0 0-.28-.57 2.06 2.06 0 0 0-.87-.38l-1.02-.24a3.7 3.7 0 0 1-1-.38 1.56 1.56 0 0 1-.59-.58c-.12-.23-.19-.5-.19-.81 0-.37.1-.7.32-.99.21-.28.5-.51.88-.68a3 3 0 0 1 1.24-.25c.46 0 .86.08 1.22.22.35.14.64.35.85.6.22.27.36.58.4.94H84.9a1.07 1.07 0 0 0-.47-.63 1.73 1.73 0 0 0-.97-.25c-.25 0-.49.05-.69.13-.2.08-.36.2-.48.34a.79.79 0 0 0-.17.51v.01c0 .15.03.28.11.4.08.1.2.2.36.3.16.08.37.15.63.22l1 .24c.42.1.76.22 1.03.38s.47.35.6.58c.14.23.2.5.2.8v.02c0 .39-.11.73-.34 1.03-.23.3-.55.53-.94.7-.4.16-.84.24-1.34.24Zm6.56-.06c-.67 0-1.16-.14-1.46-.41-.3-.27-.45-.72-.45-1.34V71.6h-1.04v-.87h1.04v-1.7h1.1v1.7h1.43v.87h-1.44v3.71c0 .39.07.66.22.83.15.17.39.25.73.25a3.85 3.85 0 0 0 .49-.02v.9a7.73 7.73 0 0 1-.62.06Zm4.82.06c-.63 0-1.17-.13-1.62-.4a2.74 2.74 0 0 1-1.03-1.18c-.24-.5-.36-1.1-.36-1.78 0-.68.12-1.28.36-1.79.24-.5.59-.9 1.03-1.2.44-.28.96-.43 1.55-.43a2.65 2.65 0 0 1 2.52 1.57c.22.5.34 1.06.34 1.71v.42h-5.25v-.85h4.7l-.51.77v-.41c0-.52-.08-.94-.23-1.27a1.63 1.63 0 0 0-1.58-1 1.76 1.76 0 0 0-1.6 1.02c-.16.34-.25.76-.25 1.25v.41c0 .47.08.87.24 1.2a1.76 1.76 0 0 0 1.7 1.02c.3 0 .56-.04.78-.12.22-.08.4-.18.54-.3.14-.13.24-.26.3-.4l.02-.05h1.06l-.01.05c-.06.23-.16.44-.3.65-.15.2-.33.4-.56.57-.22.16-.5.3-.8.4-.31.1-.66.14-1.04.14Zm4.46-.11v-6.55h1.06v.97h.1c.12-.34.33-.61.63-.8a2.4 2.4 0 0 1 1.4-.27c.12 0 .2.02.24.03v1.02a3 3 0 0 0-.64-.06c-.34 0-.64.07-.9.2-.26.14-.46.32-.61.56-.15.24-.22.52-.22.84v4.06h-1.06Zm10.63.05c-.67 0-1.16-.14-1.46-.41-.3-.27-.45-.72-.45-1.34V71.6h-1.04v-.87H108v-1.7h1.1v1.7h1.42v.87h-1.43v3.71c0 .39.07.66.22.83.15.17.39.25.73.25a3.86 3.86 0 0 0 .48-.02v.9a7.48 7.48 0 0 1-.6.06Zm2.29-.05v-9.15h1.05v3.58h.1c.17-.35.4-.61.72-.8.31-.2.7-.3 1.19-.3s.9.1 1.25.29c.34.19.6.46.77.82.18.36.27.8.27 1.32v4.24h-1.06V73.3c0-.59-.12-1.03-.37-1.31-.25-.29-.64-.43-1.16-.43-.35 0-.65.07-.9.22-.26.15-.46.37-.6.64-.14.28-.2.6-.2 1v3.87h-1.06Zm9.97.11c-.62 0-1.16-.13-1.61-.4a2.74 2.74 0 0 1-1.03-1.18c-.24-.5-.36-1.1-.36-1.78 0-.68.12-1.28.36-1.79.24-.5.58-.9 1.02-1.2.44-.28.96-.43 1.55-.43a2.64 2.64 0 0 1 2.52 1.57c.23.5.34 1.06.34 1.71v.42h-5.25v-.85h4.71l-.52.77v-.41c0-.52-.08-.94-.23-1.27a1.63 1.63 0 0 0-1.57-1 1.76 1.76 0 0 0-1.6 1.02c-.17.34-.25.76-.25 1.25v.41c0 .47.08.87.24 1.2a1.76 1.76 0 0 0 1.7 1.02c.3 0 .56-.04.78-.12.21-.08.4-.18.54-.3.14-.13.24-.26.3-.4l.02-.05h1.06l-.02.05c-.05.23-.15.44-.3.65-.14.2-.33.4-.55.57-.23.16-.5.3-.81.4-.3.1-.66.14-1.04.14Zm8-.11v-6.55h1.06v1h.1c.14-.36.36-.63.66-.83a2 2 0 0 1 1.1-.29c.3 0 .56.05.8.15.23.1.43.23.6.4.17.18.31.37.41.6h.1a2.1 2.1 0 0 1 1.16-1c.26-.1.54-.15.84-.15.45 0 .83.09 1.13.25.32.17.55.41.72.73.16.32.24.7.24 1.16v4.53h-1.06V73c0-.32-.05-.59-.15-.8a.98.98 0 0 0-.45-.48 1.6 1.6 0 0 0-.77-.16c-.3 0-.56.07-.8.2a1.54 1.54 0 0 0-.72 1.31v4.22h-1.05v-4.45c0-.26-.05-.48-.17-.67a1.1 1.1 0 0 0-.47-.45c-.2-.1-.44-.16-.72-.16-.28 0-.54.07-.77.22-.23.15-.4.36-.54.61-.13.25-.2.53-.2.84v4.06h-1.05Zm12.66.11c-.42 0-.79-.07-1.12-.23a1.93 1.93 0 0 1-.79-.68c-.19-.29-.28-.63-.28-1.03v-.01c0-.4.1-.72.28-1 .18-.28.46-.5.81-.66a3.7 3.7 0 0 1 1.3-.27l2.4-.15v.84l-2.28.15c-.5.03-.86.13-1.09.31a.9.9 0 0 0-.34.75v.02c0 .33.13.59.38.77.25.19.56.28.94.28.37 0 .69-.07.97-.22.27-.14.5-.34.65-.59.16-.24.24-.52.24-.83V72.8c0-.4-.12-.7-.37-.92-.24-.21-.6-.32-1.1-.32-.39 0-.71.07-.96.21-.25.14-.42.34-.5.6h-1.07v-.03c.06-.34.2-.64.43-.9.23-.26.53-.46.9-.6.36-.14.77-.22 1.24-.22.53 0 .99.09 1.35.26.38.18.66.43.85.76.2.32.3.71.3 1.16v4.49h-1.07v-.97h-.1a2.23 2.23 0 0 1-1.16.96 2.6 2.6 0 0 1-.81.12Zm5.1-.11v-6.55h1.05v.97h.1c.13-.34.34-.61.64-.8.3-.2.67-.29 1.11-.29a3.34 3.34 0 0 1 .53.04v1.03a3 3 0 0 0-.65-.06c-.34 0-.64.07-.9.2-.25.14-.46.32-.6.56-.16.24-.23.52-.23.84v4.06h-1.06Zm4.83 0v-9.15h1.05v9.15h-1.05Zm4.12 0-2.56-3.2.78-.68 3.11 3.88h-1.33Zm-3.2-2.36-.05-1.33h.28l2.83-2.86h1.28l-3.1 3-.26.25-.98.94Zm8.17 2.47c-.62 0-1.16-.13-1.6-.4a2.73 2.73 0 0 1-1.04-1.18c-.24-.5-.36-1.1-.36-1.78 0-.68.12-1.28.36-1.79.24-.5.59-.9 1.03-1.2.44-.28.96-.43 1.55-.43a2.65 2.65 0 0 1 2.52 1.57c.22.5.34 1.06.34 1.71v.42h-5.25v-.85h4.7l-.51.77v-.41c0-.52-.08-.94-.24-1.27a1.63 1.63 0 0 0-1.57-1 1.76 1.76 0 0 0-1.6 1.02c-.16.34-.25.76-.25 1.25v.41c0 .47.08.87.24 1.2a1.76 1.76 0 0 0 1.7 1.02c.3 0 .56-.04.78-.12.22-.08.4-.18.54-.3.14-.13.24-.26.3-.4l.02-.05h1.06l-.01.05a2 2 0 0 1-.3.65c-.15.2-.33.4-.56.57-.22.16-.5.3-.8.4-.31.1-.66.14-1.05.14Zm6.8-.06c-.67 0-1.16-.14-1.47-.41-.3-.27-.45-.72-.45-1.34V71.6h-1.03v-.87h1.03v-1.7h1.1v1.7h1.43v.87h-1.43v3.71c0 .39.07.66.22.83.14.17.39.25.73.25a3.86 3.86 0 0 0 .48-.02v.9a7.48 7.48 0 0 1-.61.06Zm4.35.06c-.49 0-.92-.07-1.29-.21a2.25 2.25 0 0 1-.9-.63 1.74 1.74 0 0 1-.4-.94h1.09c.09.27.26.49.52.65.26.17.6.25 1.02.25.3 0 .55-.04.77-.12.23-.1.41-.21.54-.36a.8.8 0 0 0 .2-.53v-.01a.72.72 0 0 0-.27-.57 2.06 2.06 0 0 0-.88-.38l-1.01-.24a3.7 3.7 0 0 1-1.01-.38 1.56 1.56 0 0 1-.59-.58c-.12-.23-.18-.5-.18-.81 0-.37.1-.7.31-.99.22-.28.5-.51.88-.68a3 3 0 0 1 1.24-.25c.46 0 .87.08 1.22.22s.64.35.85.6c.22.27.36.58.4.94h-1.03a1.07 1.07 0 0 0-.48-.63 1.73 1.73 0 0 0-.96-.25c-.26 0-.5.05-.7.13-.2.08-.36.2-.48.34a.79.79 0 0 0-.17.51v.01c0 .15.04.28.11.4.08.1.2.2.36.3.16.08.37.15.63.22l1 .24c.42.1.76.22 1.03.38s.47.35.6.58c.14.23.2.5.2.8v.02c0 .39-.11.73-.34 1.03-.23.3-.55.53-.94.7-.4.16-.84.24-1.34.24Zm10.16-.06c-.68 0-1.16-.14-1.47-.41-.3-.27-.45-.72-.45-1.34V71.6h-1.03v-.87h1.03v-1.7h1.1v1.7h1.43v.87h-1.44v3.71c0 .39.08.66.22.83.15.17.4.25.73.25a3.86 3.86 0 0 0 .49-.02v.9a7.69 7.69 0 0 1-.61.06Zm4.83.06c-.62 0-1.16-.13-1.61-.4-.45-.28-.8-.67-1.05-1.18-.24-.5-.36-1.1-.36-1.8v-.01c0-.7.12-1.3.36-1.81.25-.51.6-.9 1.05-1.17.45-.27.99-.4 1.6-.4.63 0 1.17.13 1.62.4.45.27.8.66 1.04 1.17.24.5.37 1.1.37 1.8v.02c0 .7-.13 1.3-.37 1.8a2.72 2.72 0 0 1-2.65 1.58Zm0-.93c.41 0 .76-.1 1.05-.3.29-.19.5-.47.66-.83.15-.37.23-.8.23-1.32v-.01c0-.52-.08-.96-.23-1.33a1.78 1.78 0 0 0-.66-.83c-.29-.2-.64-.3-1.05-.3-.42 0-.77.1-1.05.3-.3.2-.51.47-.67.83-.15.37-.22.8-.22 1.33v.01c0 .51.07.95.22 1.32.16.36.38.64.67.84.28.2.63.29 1.05.29Zm7.39 3.13c-.53 0-.99-.08-1.38-.23-.4-.14-.7-.35-.94-.62a1.85 1.85 0 0 1-.44-.94h1.11c.06.25.23.45.52.6.28.17.66.25 1.13.25.59 0 1.04-.13 1.37-.4.33-.26.5-.63.5-1.12v-1.32h-.1a2.23 2.23 0 0 1-2.05 1.13c-.56 0-1.05-.13-1.47-.4-.4-.27-.72-.65-.94-1.12a3.78 3.78 0 0 1-.34-1.63v-.01c0-.61.11-1.16.34-1.63.22-.48.54-.85.95-1.12.42-.28.91-.42 1.48-.42.31 0 .6.05.85.15a2.3 2.3 0 0 1 1.2 1.05h.07v-1.08h1.05v6.46c0 .48-.12.9-.35 1.27-.24.36-.58.64-1.01.83-.44.2-.96.3-1.55.3Zm-.05-3.59c.4 0 .75-.09 1.04-.28.29-.19.51-.45.67-.78.15-.33.23-.72.23-1.15v-.01c0-.43-.08-.82-.23-1.16-.16-.33-.38-.6-.67-.79a1.84 1.84 0 0 0-1.04-.28c-.4 0-.75.1-1.03.28-.28.2-.5.46-.65.8a2.9 2.9 0 0 0-.22 1.15v.01c0 .43.08.82.22 1.15.15.33.37.6.65.78.28.19.62.28 1.03.28Zm7.64 1.4a2.74 2.74 0 0 1-2.64-1.58c-.25-.51-.36-1.1-.36-1.8 0-.67.11-1.27.35-1.78.25-.5.59-.9 1.03-1.2.44-.28.96-.43 1.55-.43a2.64 2.64 0 0 1 2.52 1.57c.23.5.34 1.06.34 1.71v.42h-5.25v-.85h4.71l-.52.77v-.41c0-.52-.08-.94-.23-1.27a1.62 1.62 0 0 0-.64-.75 1.75 1.75 0 0 0-.94-.25 1.76 1.76 0 0 0-1.6 1.02c-.16.34-.24.76-.24 1.25v.41c0 .47.08.87.23 1.2a1.76 1.76 0 0 0 1.71 1.02c.3 0 .56-.04.77-.12.22-.08.4-.18.54-.3.15-.13.25-.26.3-.4l.03-.05h1.05v.05c-.06.23-.17.44-.31.65-.14.2-.33.4-.56.57-.22.16-.5.3-.8.4-.31.1-.66.14-1.04.14Zm6.8-.07c-.68 0-1.17-.14-1.47-.41-.3-.27-.45-.72-.45-1.34V71.6h-1.03v-.87h1.03v-1.7h1.1v1.7h1.43v.87h-1.44v3.71c0 .39.07.66.22.83.15.17.39.25.73.25a3.86 3.86 0 0 0 .49-.02v.9a8 8 0 0 1-.62.06Zm2.28-.05v-9.15h1.06v3.58h.1c.16-.35.4-.61.7-.8.32-.2.72-.3 1.2-.3.49 0 .9.1 1.25.29.34.19.6.46.77.82.18.36.27.8.27 1.32v4.24h-1.06V73.3c0-.59-.12-1.03-.37-1.31-.25-.29-.64-.43-1.16-.43-.35 0-.65.07-.9.22-.26.15-.46.37-.6.64-.14.28-.2.6-.2 1v3.87h-1.06Zm9.97.11c-.62 0-1.16-.13-1.61-.4a2.73 2.73 0 0 1-1.03-1.18c-.24-.5-.36-1.1-.36-1.78 0-.68.12-1.28.36-1.79.24-.5.58-.9 1.02-1.2.45-.28.96-.43 1.55-.43a2.65 2.65 0 0 1 2.52 1.57c.23.5.34 1.06.34 1.71v.42h-5.25v-.85h4.71l-.52.77v-.41c0-.52-.08-.94-.23-1.27a1.63 1.63 0 0 0-1.57-1 1.76 1.76 0 0 0-1.6 1.02c-.17.34-.25.76-.25 1.25v.41c0 .47.08.87.24 1.2a1.76 1.76 0 0 0 1.7 1.02c.3 0 .56-.04.78-.12.22-.08.4-.18.54-.3.14-.13.24-.26.3-.4l.02-.05h1.06l-.02.05c-.05.23-.15.44-.3.65-.14.2-.33.4-.55.57-.23.16-.5.3-.81.4-.3.1-.66.14-1.04.14Zm4.47-.11v-6.55h1.05v.97h.1c.13-.34.34-.61.64-.8.3-.2.67-.29 1.11-.29a3.34 3.34 0 0 1 .53.04v1.03a3 3 0 0 0-.65-.06c-.34 0-.63.07-.9.2-.25.14-.46.32-.6.56-.15.24-.23.52-.23.84v4.06h-1.05Zm5.21-2.92-.1-5.86h1.21l-.1 5.86h-1Zm.51 3.03a.82.82 0 0 1-.6-.24.82.82 0 0 1-.24-.6c0-.26.08-.46.23-.62a.82.82 0 0 1 .61-.24.8.8 0 0 1 .6.24c.16.16.24.36.24.61s-.08.45-.24.61a.8.8 0 0 1-.6.24Z" fill="#B2B5BE"/><rect x="302.4" y="129.63" width="86.6" height="24.89" rx="4.15" fill="#2962FF"/><path d="M314.78 143.67v-.94h1.75c.43 0 .75-.11.99-.33.23-.22.35-.52.35-.92s-.12-.71-.35-.93a1.4 1.4 0 0 0-.99-.32h-1.75v-.96h2.04c.45 0 .84.1 1.17.27.34.19.6.44.78.78.2.32.29.7.29 1.15 0 .44-.1.83-.29 1.16-.18.33-.44.59-.78.77-.33.18-.72.27-1.17.27h-2.04Zm-.58 2.18v-6.58h1.17v6.58h-1.18Zm7.82.1c-.5 0-.92-.1-1.28-.31s-.64-.5-.83-.9a3.1 3.1 0 0 1-.29-1.38c0-.54.1-1 .3-1.39.19-.38.46-.68.82-.89.36-.2.78-.3 1.28-.3s.92.1 1.28.3c.35.2.63.5.82.89.2.39.3.85.3 1.38v.01c0 .54-.1 1-.3 1.38-.19.4-.46.69-.82.9-.36.2-.78.3-1.28.3Zm0-.92c.26 0 .48-.07.67-.2.18-.13.32-.32.42-.57.1-.25.14-.55.14-.9 0-.36-.04-.66-.14-.9a1.2 1.2 0 0 0-.43-.57 1.1 1.1 0 0 0-.66-.2 1.11 1.11 0 0 0-1.1.77c-.1.24-.14.54-.14.9 0 .35.05.65.15.9.1.25.23.44.42.57.18.13.4.2.67.2Zm5.19.92c-.43 0-.8-.06-1.1-.18-.3-.12-.54-.29-.72-.5a1.42 1.42 0 0 1-.31-.75h1.12c.07.17.18.32.35.43.17.1.4.16.67.16.2 0 .36-.03.5-.08a.82.82 0 0 0 .34-.22c.08-.1.12-.2.12-.33a.45.45 0 0 0-.18-.37 1.4 1.4 0 0 0-.58-.24l-.81-.19a2.63 2.63 0 0 1-.79-.29c-.2-.12-.36-.28-.46-.46a1.3 1.3 0 0 1-.15-.64c0-.3.08-.57.25-.8.17-.22.4-.4.7-.53.3-.13.65-.19 1.04-.19.4 0 .76.06 1.05.18.29.13.52.3.68.5.17.22.26.46.28.73h-1.06a.7.7 0 0 0-.31-.4 1.07 1.07 0 0 0-.64-.18c-.17 0-.32.03-.45.08a.73.73 0 0 0-.31.22.5.5 0 0 0-.11.32v.01c0 .1.02.18.07.26.06.07.14.13.24.19.11.05.26.1.44.14l.8.18c.33.07.6.17.81.3.21.11.37.26.48.43.1.18.15.39.15.63 0 .32-.1.6-.27.84a1.8 1.8 0 0 1-.76.55c-.31.13-.68.2-1.09.2Zm4.95-.08c-.57 0-.98-.1-1.23-.31s-.38-.56-.38-1.03v-2.78h-.78v-.88h.78v-1.22h1.15v1.22h1.05v.88h-1.05v2.5c0 .25.05.43.16.55.1.11.27.17.5.17a3.49 3.49 0 0 0 .39-.02v.87a2.77 2.77 0 0 1-.59.05Zm6.6.14a2.77 2.77 0 0 1-2.66-1.6 4.27 4.27 0 0 1-.35-1.84v-.01c0-.71.12-1.33.36-1.84a2.76 2.76 0 0 1 2.65-1.61 3 3 0 0 1 1.35.3 2.43 2.43 0 0 1 1.44 2v.03h-1.15v-.03a1.6 1.6 0 0 0-1.63-1.29c-.38 0-.7.1-.97.3-.28.2-.49.48-.63.84-.15.37-.22.8-.22 1.3s.07.93.22 1.3c.14.36.35.64.63.84a1.86 1.86 0 0 0 1.72.15 1.46 1.46 0 0 0 .87-1.04l.01-.03h1.15v.04a2.38 2.38 0 0 1-1.43 1.92c-.4.18-.84.27-1.35.27Zm5.9-.06c-.5 0-.92-.1-1.28-.31s-.63-.5-.83-.9c-.2-.38-.29-.84-.29-1.38 0-.54.1-1 .3-1.39.19-.38.46-.68.82-.89.36-.2.79-.3 1.28-.3.5 0 .92.1 1.28.3.36.2.63.5.83.89.2.39.29.85.29 1.38v.01c0 .54-.1 1-.3 1.38-.19.4-.46.69-.82.9-.35.2-.78.3-1.28.3Zm0-.92c.26 0 .48-.07.67-.2.18-.13.32-.32.42-.57.1-.25.15-.55.15-.9 0-.36-.05-.66-.15-.9a1.2 1.2 0 0 0-.42-.57 1.1 1.1 0 0 0-.67-.2 1.11 1.11 0 0 0-1.1.77c-.09.24-.14.54-.14.9 0 .35.05.65.15.9.1.25.23.44.42.57.18.13.4.2.67.2Zm3.3.82v-4.98h1.14v.77h.08c.1-.27.27-.49.51-.64.24-.15.53-.23.85-.23.23 0 .43.04.61.11a1.34 1.34 0 0 1 .77.79h.08c.08-.18.2-.34.34-.47a1.82 1.82 0 0 1 1.17-.43c.34 0 .62.07.86.2s.42.32.55.57c.13.24.2.54.2.88v3.43h-1.14v-3.15c0-.22-.03-.4-.1-.54a.67.67 0 0 0-.3-.33c-.13-.07-.3-.1-.5-.1a.95.95 0 0 0-.86.49 1.1 1.1 0 0 0-.12.52v3.1h-1.13v-3.22a.99.99 0 0 0-.11-.48.7.7 0 0 0-.31-.3.98.98 0 0 0-.48-.12.9.9 0 0 0-.5.15 1 1 0 0 0-.35.4c-.08.16-.12.34-.12.55v3.03h-1.14Zm8.26 0v-4.98h1.13v.77h.08c.1-.27.28-.49.51-.64.24-.15.53-.23.86-.23.22 0 .42.04.6.11a1.35 1.35 0 0 1 .77.79h.08a1.55 1.55 0 0 1 .86-.78c.2-.08.42-.12.65-.12.34 0 .62.07.86.2s.42.32.55.57c.13.24.2.54.2.88v3.43h-1.14v-3.15c0-.22-.03-.4-.1-.54a.66.66 0 0 0-.3-.33c-.13-.07-.3-.1-.5-.1a.95.95 0 0 0-.86.49 1.1 1.1 0 0 0-.12.52v3.1h-1.13v-3.22a.99.99 0 0 0-.1-.48.7.7 0 0 0-.32-.3.99.99 0 0 0-.48-.12.9.9 0 0 0-.5.15 1 1 0 0 0-.34.4c-.09.16-.13.34-.13.55v3.03h-1.13Zm10.38.1c-.5 0-.92-.1-1.27-.32a2.1 2.1 0 0 1-.82-.89c-.2-.39-.29-.84-.29-1.37 0-.53.1-.98.29-1.37.19-.4.46-.7.8-.9a2.3 2.3 0 0 1 1.24-.33c.47 0 .88.1 1.22.32.34.2.6.5.8.87.18.37.27.8.27 1.3v.38h-4.05v-.76h3.5l-.54.71v-.45c0-.33-.05-.6-.15-.82a1.08 1.08 0 0 0-1.04-.66c-.23 0-.44.06-.62.17-.18.11-.32.28-.43.5-.1.22-.16.5-.16.81v.46c0 .3.05.57.16.78.1.22.25.39.44.5.19.12.41.18.68.18.2 0 .37-.03.52-.09.15-.06.27-.13.36-.21.09-.09.15-.17.2-.24v-.03h1.08v.04a1.85 1.85 0 0 1-.64.95c-.19.14-.4.25-.66.34-.25.09-.55.13-.89.13Zm3.14-.1v-4.98h1.14v.76h.07c.12-.27.3-.48.54-.63.24-.15.54-.23.9-.23.56 0 .98.16 1.28.48.29.33.44.78.44 1.38v3.22h-1.14v-2.96c0-.39-.08-.68-.24-.88-.16-.19-.42-.29-.76-.29-.23 0-.42.05-.58.15a.99.99 0 0 0-.38.43c-.09.18-.13.4-.13.64v2.9h-1.14Zm7.43.02c-.57 0-.98-.1-1.23-.31s-.38-.56-.38-1.03v-2.78h-.77v-.88h.77v-1.22h1.15v1.22h1.05v.88h-1.05v2.5c0 .25.06.43.16.55.1.11.27.17.5.17a3.55 3.55 0 0 0 .4-.02v.87a2.76 2.76 0 0 1-.6.05Z" fill="#fff"/><path d="M25.85 36.5c-.97 0-1.8-.21-2.51-.65A4.31 4.31 0 0 1 21.72 34a6.65 6.65 0 0 1-.57-2.85v-.02c0-1.1.19-2.06.57-2.85a4.3 4.3 0 0 1 1.62-1.86c.7-.44 1.53-.65 2.5-.65.78 0 1.48.15 2.1.46.62.3 1.13.72 1.52 1.26.4.53.63 1.15.71 1.84v.06h-1.79v-.04a2.5 2.5 0 0 0-2.54-2 2.5 2.5 0 0 0-1.5.46c-.43.3-.75.74-.99 1.3a5.35 5.35 0 0 0-.34 2.02v.01c0 .77.12 1.45.34 2.01.24.57.56 1 .99 1.31.42.31.93.47 1.5.47.44 0 .83-.08 1.18-.23a2.27 2.27 0 0 0 1.35-1.62l.02-.04h1.78v.06a3.7 3.7 0 0 1-2.22 2.98c-.61.28-1.31.43-2.1.43Zm9.72-.1c-.77 0-1.43-.15-1.99-.48a3.28 3.28 0 0 1-1.29-1.38 4.8 4.8 0 0 1-.45-2.16v-.01c0-.83.16-1.54.46-2.14.3-.61.73-1.07 1.28-1.4a3.92 3.92 0 0 1 2-.48c.76 0 1.43.16 1.98.49.56.32.99.78 1.29 1.38.3.6.45 1.31.45 2.15v.01c0 .84-.15 1.56-.45 2.16-.3.6-.73 1.06-1.28 1.38a3.9 3.9 0 0 1-2 .49Zm0-1.43c.41 0 .75-.1 1.04-.3.29-.2.5-.5.66-.89.15-.38.22-.85.22-1.4a3.8 3.8 0 0 0-.22-1.4 1.89 1.89 0 0 0-.66-.89 1.7 1.7 0 0 0-1.04-.31 1.73 1.73 0 0 0-1.7 1.2 3.8 3.8 0 0 0-.23 1.4c0 .55.08 1.02.23 1.4.15.4.37.69.65.89.3.2.64.3 1.05.3Zm5.7 1.28V28.5h1.77v1.2h.12a2 2 0 0 1 .8-1c.37-.23.81-.35 1.32-.35.35 0 .67.06.95.17a2.1 2.1 0 0 1 1.2 1.23h.12c.13-.28.3-.52.53-.73.23-.21.5-.38.81-.49.31-.12.65-.18 1-.18.53 0 .97.1 1.34.32.37.2.66.5.86.87.2.39.3.85.3 1.38v5.33h-1.76v-4.9a2 2 0 0 0-.16-.84c-.1-.22-.25-.4-.46-.5-.2-.12-.47-.17-.79-.17a1.48 1.48 0 0 0-1.51 1.57v4.84h-1.77v-5.03c0-.28-.05-.53-.17-.74-.1-.2-.27-.37-.48-.47-.2-.12-.46-.17-.74-.17-.3 0-.55.07-.78.22-.23.15-.41.35-.54.61-.13.26-.2.55-.2.87v4.71h-1.76Zm13.4 0V28.5h1.76v1.2h.12a2 2 0 0 1 .8-1c.38-.23.82-.35 1.33-.35.35 0 .66.06.94.17a2.1 2.1 0 0 1 1.2 1.23h.13c.13-.28.3-.52.53-.73.23-.21.5-.38.8-.49.32-.12.66-.18 1.01-.18.52 0 .97.1 1.34.32.37.2.66.5.86.87.2.39.3.85.3 1.38v5.33h-1.77v-4.9a2 2 0 0 0-.15-.84c-.1-.22-.25-.4-.46-.5-.21-.12-.47-.17-.79-.17a1.48 1.48 0 0 0-1.33.77c-.12.23-.19.5-.19.8v4.84h-1.76v-5.03c0-.28-.06-.53-.17-.74-.11-.2-.27-.37-.48-.47-.21-.12-.46-.17-.75-.17s-.55.07-.78.22c-.22.15-.4.35-.54.61-.12.26-.19.55-.19.87v4.71h-1.76Zm16.71.16c-.77 0-1.43-.17-1.98-.5a3.26 3.26 0 0 1-1.27-1.38c-.3-.6-.45-1.31-.45-2.14 0-.82.15-1.52.44-2.13.3-.6.72-1.07 1.26-1.4.55-.34 1.18-.5 1.92-.5.73 0 1.37.16 1.9.48.53.32.94.78 1.23 1.36.29.58.43 1.26.43 2.04v.58h-6.3v-1.18H74l-.84 1.1v-.7c0-.52-.08-.94-.23-1.28a1.69 1.69 0 0 0-1.61-1.02c-.37 0-.69.09-.97.27-.28.17-.5.43-.67.78-.16.34-.24.75-.24 1.25v.7c0 .49.08.9.24 1.24.16.33.39.6.68.78a2 2 0 0 0 1.06.26 1.9 1.9 0 0 0 1.38-.47c.13-.13.23-.25.29-.37l.02-.05h1.67l-.01.07a2.9 2.9 0 0 1-1 1.48c-.27.21-.6.4-1 .53s-.86.2-1.39.2Zm5.44-.16V28.5h1.77v1.2h.12c.18-.43.46-.76.84-1 .37-.23.83-.35 1.4-.35.86 0 1.52.25 1.98.75.46.5.69 1.22.69 2.14v5.01h-1.77v-4.6c0-.6-.13-1.06-.38-1.36-.25-.3-.65-.45-1.18-.45a1.54 1.54 0 0 0-1.5.9c-.13.27-.2.6-.2 1v4.51h-1.77Zm12.12.04c-.88 0-1.53-.17-1.92-.5-.39-.32-.59-.85-.59-1.6v-4.32h-1.2V28.5h1.2v-1.9h1.8v1.9h1.63v1.37h-1.63v3.9c0 .39.08.67.24.85.16.18.43.26.8.26a5.45 5.45 0 0 0 .59-.03v1.36a4.24 4.24 0 0 1-.92.08Zm5.7.12c-.65 0-1.22-.1-1.7-.28a2.74 2.74 0 0 1-1.11-.78 2.2 2.2 0 0 1-.5-1.16v-.02h1.76v.02c.1.27.28.49.54.66.26.17.6.25 1.05.25.29 0 .55-.04.77-.12.22-.08.4-.2.52-.35.13-.14.2-.31.2-.5v-.02a.7.7 0 0 0-.28-.57 2.17 2.17 0 0 0-.92-.37l-1.25-.29c-.5-.1-.9-.26-1.22-.45-.32-.2-.56-.43-.72-.72a2.03 2.03 0 0 1-.24-.99c0-.47.13-.88.4-1.24a2.6 2.6 0 0 1 1.1-.83c.46-.2 1-.3 1.6-.3.64 0 1.18.1 1.63.29.46.19.81.45 1.07.78.25.33.4.7.43 1.12v.02h-1.65l-.01-.02a1.1 1.1 0 0 0-.48-.63 1.68 1.68 0 0 0-.99-.26c-.26 0-.5.04-.7.12-.2.08-.36.2-.48.34a.78.78 0 0 0-.17.5v.01c0 .15.03.29.11.4a1 1 0 0 0 .38.3c.17.08.4.16.67.22l1.25.28c.51.11.93.26 1.26.45.33.19.58.42.74.7.16.26.24.58.24.96v.02c0 .49-.14.92-.43 1.29a2.8 2.8 0 0 1-1.17.86c-.5.2-1.06.3-1.7.3Z" fill="#D1D4DC"/><path transform="rotate(90 406 183)" fill="url(#czll5sfwx)" d="M406 183h55v406h-55z"/><defs><linearGradient id="bzll5sfwx" x1="203" y1="0" x2="203" y2="238" gradientUnits="userSpaceOnUse"><stop stop-color="#434651"/><stop offset="1" stop-color="#434651" stop-opacity="0"/></linearGradient><linearGradient id="czll5sfwx" x1="461" y1="384.88" x2="406" y2="384.88" gradientUnits="userSpaceOnUse"><stop/><stop offset="1" stop-opacity="0"/></linearGradient><filter id="azll5sfwx" x="-12.17" y="-12.17" width="460.76" height="292.76" color-interpolation-filters="sRGB"><feFlood flood-opacity="0" result="BackgroundImageFix"/><feColorMatrix in="SourceAlpha" result="hardAlpha"/><feOffset dx="15.21" dy="15.21"/><feGaussianBlur stdDeviation="13.69"/><feColorMatrix values="0 0 0 0 0 0 0 0 0 0 0 0 0 0 0 0 0 0 0.32 0"/><feBlend in="SourceGraphic"/></filter></defs></svg>