<svg width="406" height="238" viewBox="0 0 406 238" fill="none" xmlns="http://www.w3.org/2000/svg"><g clip-path="url(#alm3asjvy)"><g filter="url(#blm3asjvy)"><path d="M0 8a8 8 0 0 1 8-8h390a8 8 0 0 1 8 8v230H0V8Z" fill="#101010"/><path d="M8 .5h390a7.5 7.5 0 0 1 7.5 7.5v229.5H.5V8A7.5 7.5 0 0 1 8 .5Z" stroke="url(#clm3asjvy)" stroke-opacity=".5"/></g><rect x="18.58" y="17.62" width="5.16" height="5.16" rx="2.58" fill="#F7931A"/><path d="M22.26 19.9c.04-.33-.2-.5-.54-.61l.11-.44-.26-.06-.1.42-.22-.05.1-.43-.26-.06-.1.43-.18-.04-.36-.1-.07.3.2.04c.1.03.12.1.11.15l-.12.5h.03-.03l-.17.7c-.02.03-.05.08-.13.06l-.19-.05-.13.3.35.09.18.05-.1.44.26.06.1-.43.22.05-.1.44.26.06.1-.44c.46.09.8.06.94-.35.12-.33 0-.52-.24-.65.17-.04.3-.15.33-.38Zm-.61.84c-.08.33-.64.16-.82.11l.15-.58c.18.04.76.13.67.47Zm.08-.85c-.07.3-.54.15-.68.11l.13-.53c.15.04.63.11.55.42Z" fill="#fff"/><path d="M25.5 21.93v-.36h1a.9.9 0 0 0 .55-.14c.12-.1.19-.24.19-.43a.53.53 0 0 0-.1-.31.52.52 0 0 0-.25-.19 1.27 1.27 0 0 0-.43-.06h-.96v-.35h.84c.25 0 .43-.04.55-.13a.44.44 0 0 0 .19-.38c0-.17-.06-.3-.17-.39a.71.71 0 0 0-.46-.14h-.95v-.35h1.03c.2 0 .37.03.51.1a.74.74 0 0 1 .45.7c0 .12-.03.22-.08.32a.74.74 0 0 1-.2.25.63.63 0 0 1-.28.13v.04c.15.01.28.06.38.13.11.07.2.16.25.27a.87.87 0 0 1-.04.87.84.84 0 0 1-.38.31c-.16.07-.35.11-.58.11H25.5Zm-.2 0V18.7h.4v3.23h-.4Zm2.88 0v-2.41h.39v2.41h-.4Zm.2-2.88a.26.26 0 0 1-.2-.08.26.26 0 0 1-.07-.19c0-.07.02-.14.07-.19a.26.26 0 0 1 .2-.08c.07 0 .13.03.19.08.05.05.07.12.07.2 0 .06-.02.13-.07.18a.26.26 0 0 1-.2.08Zm1.69 2.9c-.25 0-.43-.05-.54-.15-.11-.1-.17-.27-.17-.5v-1.46h-.38v-.32h.38v-.63h.4v.63h.54v.32h-.53v1.36c0 .15.02.25.08.31.05.06.14.1.27.1a1.43 1.43 0 0 0 .18-.02v.34a2.87 2.87 0 0 1-.23.02Zm1.67.02c-.22 0-.42-.05-.58-.15-.17-.1-.3-.25-.39-.44-.09-.19-.14-.4-.14-.66s.05-.48.14-.66a1.02 1.02 0 0 1 .97-.59c.2 0 .37.04.5.1a.9.9 0 0 1 .51.67v.01h-.38a.55.55 0 0 0-.21-.3.66.66 0 0 0-.42-.13.65.65 0 0 0-.62.42 1.2 1.2 0 0 0-.09.47c0 .2.03.35.1.49a.63.63 0 0 0 .62.43.7.7 0 0 0 .39-.1c.1-.08.18-.18.22-.31v-.02h.4l-.01.02c-.04.15-.1.28-.18.4-.08.1-.2.2-.33.26-.14.06-.3.1-.5.1Zm2.48 0c-.22 0-.42-.05-.59-.15-.17-.1-.3-.24-.39-.43-.08-.19-.13-.4-.13-.67 0-.26.05-.48.13-.67a1 1 0 0 1 .39-.43c.17-.1.37-.15.6-.15.22 0 .42.05.59.15.16.1.3.25.38.43.1.19.14.41.14.67 0 .26-.05.48-.14.67a1 1 0 0 1-.98.58Zm0-.34c.16 0 .29-.04.4-.11.1-.07.18-.17.23-.3.06-.14.09-.3.09-.5s-.03-.35-.09-.49a.65.65 0 0 0-.24-.3.68.68 0 0 0-.39-.11.68.68 0 0 0-.38.1.67.67 0 0 0-.25.31c-.05.14-.08.3-.08.49 0 .2.03.36.08.5.06.13.14.23.25.3.1.07.23.1.38.1Zm1.64.3v-2.41h.39v2.41h-.4Zm.2-2.88a.26.26 0 0 1-.2-.08.26.26 0 0 1-.07-.19c0-.07.02-.14.08-.19a.26.26 0 0 1 .19-.08c.07 0 .13.03.19.08.05.05.08.12.08.2 0 .06-.03.13-.08.18a.26.26 0 0 1-.2.08Zm.83 2.88v-2.41h.4v.36h.03a.68.68 0 0 1 .26-.3c.12-.07.26-.1.44-.1.27 0 .48.07.63.23.14.15.22.37.22.66v1.56h-.4v-1.47c0-.22-.04-.38-.13-.48-.1-.1-.24-.16-.43-.16a.65.65 0 0 0-.33.08.57.57 0 0 0-.22.24.8.8 0 0 0-.08.36v1.43h-.39Zm4.82-3.37-1.02 4.18h-.37l1.02-4.18h.37Zm2.8 3.45c-.26 0-.5-.05-.68-.15-.2-.1-.34-.24-.44-.42-.1-.18-.16-.39-.16-.62V18.7h.4v2.1c0 .16.04.3.1.43.08.13.18.22.3.3.14.07.3.1.49.1.18 0 .34-.03.47-.1a.73.73 0 0 0 .3-.3.9.9 0 0 0 .1-.44v-2.1h.4v2.13c0 .23-.04.44-.15.62-.1.18-.25.32-.44.42-.19.1-.42.15-.68.15Zm2.17-.06a.29.29 0 0 1-.2-.08.29.29 0 0 1-.09-.2c0-.09.03-.16.09-.22a.29.29 0 0 1 .2-.08.28.28 0 0 1 .3.3c0 .07-.03.14-.1.2a.28.28 0 0 1-.2.08Zm2.06.06c-.23 0-.44-.04-.61-.12a1.05 1.05 0 0 1-.42-.32.9.9 0 0 1-.18-.46v-.03h.4v.03c.02.1.06.2.13.28.07.08.17.14.29.18a1.24 1.24 0 0 0 .8 0c.12-.05.21-.12.28-.2.06-.09.1-.18.1-.3a.44.44 0 0 0-.15-.33c-.1-.1-.26-.17-.48-.21l-.36-.08c-.22-.05-.4-.12-.53-.2a.84.84 0 0 1-.3-.3.86.86 0 0 1-.1-.41c0-.18.05-.34.15-.48.1-.14.23-.24.4-.32.17-.08.37-.12.59-.12.21 0 .4.04.57.12a1 1 0 0 1 .4.3c.1.14.15.28.16.44v.04h-.4v-.03a.5.5 0 0 0-.12-.26.64.64 0 0 0-.26-.17.93.93 0 0 0-.36-.07 1 1 0 0 0-.37.07.6.6 0 0 0-.25.18.44.44 0 0 0-.1.28c0 .1.02.17.07.24.04.06.1.12.2.17.08.05.2.1.35.13l.36.08c.22.05.4.1.54.19.14.08.24.17.3.29.07.11.1.25.1.4 0 .2-.05.38-.15.53a.97.97 0 0 1-.42.34c-.18.08-.39.12-.63.12Zm2.05-.06a.29.29 0 0 1-.2-.08.29.29 0 0 1-.1-.2c0-.09.03-.16.1-.22a.29.29 0 0 1 .2-.08.28.28 0 0 1 .3.3c-.01.07-.04.14-.1.2a.28.28 0 0 1-.2.08Zm2.2-.02V18.7h1.1c.33 0 .6.06.83.2.23.12.4.3.52.54.12.24.18.53.18.87 0 .34-.06.63-.18.88-.12.24-.3.42-.52.55-.23.13-.5.19-.82.19h-1.11Zm.4-.36h.68c.24 0 .45-.05.62-.15.17-.1.3-.24.39-.43.09-.19.13-.4.13-.67s-.05-.5-.14-.68a.96.96 0 0 0-.39-.43 1.2 1.2 0 0 0-.6-.15h-.69v2.5Zm3.78.4a1.01 1.01 0 0 1-.98-.58c-.08-.19-.13-.4-.13-.67 0-.26.05-.48.13-.67a1 1 0 0 1 .39-.43c.17-.1.37-.15.6-.15.22 0 .42.05.59.15.16.1.29.25.38.43.1.19.14.41.14.67 0 .26-.05.48-.14.67a1 1 0 0 1-.98.58Zm0-.34c.16 0 .28-.04.4-.11.1-.07.18-.17.23-.3.06-.14.09-.3.09-.5s-.03-.35-.09-.49a.65.65 0 0 0-.24-.3.68.68 0 0 0-.39-.11.68.68 0 0 0-.38.1.67.67 0 0 0-.25.31c-.05.14-.08.3-.08.49 0 .2.03.36.08.5.06.13.14.23.25.3.1.07.23.1.38.1Zm1.65.3v-3.37h.4v3.37h-.4Zm1.07 0v-3.37h.4v3.37h-.4Zm1.07 0v-3.37h.4v3.37h-.4Zm1.71.04a.95.95 0 0 1-.41-.09.7.7 0 0 1-.29-.24.68.68 0 0 1-.1-.38c0-.15.03-.27.1-.38.07-.1.17-.18.3-.24.13-.06.29-.1.48-.1l.88-.05v.3l-.84.06a.73.73 0 0 0-.4.11.33.33 0 0 0-.13.28c0 .13.05.22.14.3.1.06.21.1.35.1.13 0 .25-.03.36-.08.1-.06.18-.13.24-.22.06-.1.09-.2.09-.31v-.75c0-.15-.05-.27-.14-.34-.09-.08-.22-.12-.4-.12a.72.72 0 0 0-.36.08.38.38 0 0 0-.19.21v.01h-.39v-.01a.65.65 0 0 1 .16-.33c.09-.1.2-.17.33-.23.13-.05.29-.08.46-.08.2 0 .36.04.5.1.14.06.24.16.3.28.08.12.12.26.12.43v1.65h-.4v-.36h-.03a.82.82 0 0 1-.43.36c-.09.03-.19.04-.3.04Zm1.78-.04v-2.41h.39v.35h.03a.57.57 0 0 1 .24-.3.88.88 0 0 1 .52-.1l.08.02v.38a1.12 1.12 0 0 0-.24-.03.7.7 0 0 0-.33.08.57.57 0 0 0-.22.2.58.58 0 0 0-.08.31v1.5h-.4Z" fill="#D1D4DC"/><circle cx="67.26" cy="20.91" r=".29" fill="#D1D4DC"/><path d="M70.52 21.93v-2.78h-.03l-.82.6v-.43l.86-.62h.4v3.23h-.4Zm1.67 0V18.7h1.11c.32 0 .6.06.82.2.23.12.4.3.53.54.12.24.18.53.18.87 0 .34-.06.63-.18.88-.12.24-.3.42-.53.55-.22.13-.5.19-.82.19h-1.1Zm.4-.36h.69c.24 0 .44-.05.61-.15.17-.1.3-.24.4-.43.08-.19.13-.4.13-.67s-.05-.5-.14-.68a.96.96 0 0 0-.4-.43 1.2 1.2 0 0 0-.6-.15h-.68v2.5Z" fill="#D1D4DC"/><circle cx="76.47" cy="20.91" r=".29" fill="#D1D4DC"/><path d="M79.9 22c-.29 0-.54-.06-.75-.2a1.35 1.35 0 0 1-.5-.58 2.15 2.15 0 0 1-.17-.9c0-.36.06-.66.17-.9.12-.26.28-.45.5-.6.21-.13.46-.2.76-.2.22 0 .43.05.61.14.19.08.34.2.46.37.13.15.2.33.23.54h-.4a.89.89 0 0 0-.9-.68.9.9 0 0 0-.54.16c-.15.11-.27.26-.35.46-.08.2-.12.43-.12.7 0 .28.04.5.12.7a.91.91 0 0 0 .89.62c.15 0 .28-.02.4-.07a.85.85 0 0 0 .32-.2c.08-.1.14-.2.17-.33h.41a1.11 1.11 0 0 1-.68.85c-.19.09-.4.13-.62.13Zm3.26 0c-.31 0-.58-.06-.8-.2-.22-.14-.39-.34-.51-.59a2.1 2.1 0 0 1-.18-.9c0-.35.06-.65.18-.9s.3-.44.52-.58c.22-.14.48-.2.79-.2.3 0 .57.06.79.2.22.14.39.33.5.58.13.26.19.56.19.9 0 .35-.06.65-.18.9a1.34 1.34 0 0 1-1.3.8Zm0-.37c.22 0 .4-.05.57-.16.16-.1.28-.26.37-.46.08-.2.13-.43.13-.7 0-.27-.05-.5-.13-.7-.09-.2-.21-.35-.37-.46a1 1 0 0 0-.57-.16 1 1 0 0 0-.57.16c-.16.11-.29.26-.37.46-.1.2-.13.43-.13.7 0 .27.04.5.12.7.09.2.21.35.37.46a1 1 0 0 0 .58.16Zm2.09.3V18.7h.4v3.23h-.4Zm1.13 0V18.7h.4l1.85 2.65-.27-.14h.2V18.7h.4v3.23h-.39l-1.85-2.65.27.14h-.2v2.51h-.4Zm3.52 0v-.36h1a.9.9 0 0 0 .55-.14c.13-.1.19-.24.19-.43a.53.53 0 0 0-.09-.31.52.52 0 0 0-.26-.19 1.27 1.27 0 0 0-.43-.06h-.96v-.35h.84c.25 0 .43-.04.56-.13a.44.44 0 0 0 .18-.38c0-.17-.05-.3-.17-.39a.71.71 0 0 0-.46-.14h-.95v-.35h1.03c.2 0 .37.03.51.1a.74.74 0 0 1 .45.7c0 .12-.03.22-.08.32a.74.74 0 0 1-.2.25.63.63 0 0 1-.28.13v.04c.15.01.28.06.38.13.11.07.2.16.25.27a.87.87 0 0 1-.04.87.84.84 0 0 1-.37.31c-.17.07-.36.11-.6.11H89.9Zm-.2 0V18.7h.4v3.23h-.4Zm2.66 0 1.2-3.23h.3v.52h-.12l-.95 2.71h-.43Zm.54-.93.13-.34h1.46l.12.34h-1.7Zm1.82.93-.95-2.71v-.52h.18l1.2 3.23h-.43Zm1.96.08c-.24 0-.44-.04-.62-.12a1.05 1.05 0 0 1-.42-.32.9.9 0 0 1-.17-.46v-.03h.4v.03c.01.1.05.2.12.28.08.08.17.14.3.18a1.25 1.25 0 0 0 .8 0c.12-.05.2-.12.27-.2.07-.09.1-.18.1-.3a.44.44 0 0 0-.15-.33c-.1-.1-.26-.17-.48-.21l-.36-.08c-.21-.05-.39-.12-.53-.2a.84.84 0 0 1-.3-.3.86.86 0 0 1-.1-.41c0-.18.06-.34.15-.48.1-.14.23-.24.4-.32.17-.08.37-.12.6-.12.2 0 .4.04.56.12a1 1 0 0 1 .4.3c.1.14.15.28.16.44v.04h-.4v-.03a.5.5 0 0 0-.12-.26.64.64 0 0 0-.25-.17.93.93 0 0 0-.37-.07 1 1 0 0 0-.36.07.6.6 0 0 0-.26.18.44.44 0 0 0-.1.28c0 .1.03.17.07.24.04.06.1.12.2.17.09.05.2.1.35.13l.36.08c.23.05.4.1.55.19.13.08.23.17.3.29a.91.91 0 0 1-.05.93.96.96 0 0 1-.42.34c-.18.08-.4.12-.63.12Zm1.77-.08V18.7h2v.36h-1.6v1.04h1.52v.36h-1.51v1.1h1.6v.37h-2Z" fill="#D1D4DC"/><path d="M110.4 20.2a1.15 1.15 0 1 1-2.29 0 1.15 1.15 0 0 1 2.3 0Z" fill="#089981"/><path opacity=".15" d="M106 20.2a2.58 2.58 0 0 1 2.58-2.58h3.15v5.16h-3.15A2.58 2.58 0 0 1 106 20.2Z" fill="#089981"/><path opacity=".15" d="M111.73 17.62h3.15a2.58 2.58 0 1 1 0 5.16h-3.15v-5.16Z" fill="#EC407A"/><path d="M115.53 19.13c-.14.54-.4.82-.76.82-.17 0-.41-.05-.73-.15-.31-.1-.53-.16-.66-.16-.18 0-.32.1-.42.3h-.36c.04-.22.12-.41.26-.57a.6.6 0 0 1 .46-.24c.2 0 .45.05.76.16.32.1.55.15.68.15.21 0 .35-.1.42-.3h.35Zm0 1.3c-.14.54-.4.8-.76.8-.17 0-.41-.04-.73-.14-.31-.1-.53-.15-.66-.15-.18 0-.32.1-.42.3h-.36c.04-.23.12-.42.26-.57a.6.6 0 0 1 .46-.24c.2 0 .45.05.76.15.32.1.55.15.68.15.21 0 .35-.1.42-.3h.35Z" fill="#EC407A"/><path d="M123.49 20.5a1.2 1.2 0 0 1-.65-.17 1.12 1.12 0 0 1-.42-.47c-.09-.21-.14-.45-.14-.73 0-.29.05-.53.15-.73.1-.21.23-.37.41-.48.19-.11.4-.17.65-.17s.46.06.64.17c.18.11.32.27.42.48.1.2.14.44.14.72 0 .29-.05.53-.14.74a1.09 1.09 0 0 1-1.06.64Zm0-.3a.8.8 0 0 0 .76-.5c.07-.17.1-.36.1-.57 0-.22-.03-.41-.1-.57a.85.85 0 0 0-.3-.37.8.8 0 0 0-.46-.14.8.8 0 0 0-.47.14.86.86 0 0 0-.3.37c-.07.16-.1.35-.1.56 0 .22.03.41.1.57.07.16.17.29.3.38a.8.8 0 0 0 .47.13Z" fill="#B2B5BE"/><path d="M127.05 20.44v-2.26h-.03l-.67.48v-.34l.7-.5h.32v2.62h-.33Zm2.53 0v-.54h-1.26v-.3a42.23 42.23 0 0 1 .44-.73l.22-.36a54.8 54.8 0 0 1 .44-.7h.48v1.8h.36v.29h-.36v.54h-.32Zm-.92-.83h.92v-1.5h-.03l-.17.29a23.01 23.01 0 0 0-.37.59l-.18.3-.17.3v.02Zm2.96.9a.95.95 0 0 1-.43-.1.8.8 0 0 1-.44-.64v-.02h.31v.01a.5.5 0 0 0 .3.4c.07.03.17.05.27.05.11 0 .21-.02.3-.07a.53.53 0 0 0 .2-.22c.06-.09.08-.2.08-.31a.62.62 0 0 0-.07-.31.54.54 0 0 0-.2-.22.57.57 0 0 0-.3-.07.7.7 0 0 0-.25.04.57.57 0 0 0-.31.27h-.28l.13-1.5h1.46v.29h-1.2l-.09.89h.03a.64.64 0 0 1 .33-.24.82.82 0 0 1 .96.4c.08.12.11.27.11.44 0 .18-.04.34-.12.47a.83.83 0 0 1-.32.32.94.94 0 0 1-.47.11Zm1.7-.05a.23.23 0 0 1-.17-.07.23.23 0 0 1-.06-.17c0-.06.02-.12.06-.17.05-.04.1-.06.17-.06s.12.02.17.06c.04.05.07.1.07.17s-.03.12-.07.17a.23.23 0 0 1-.17.07Zm1.53-.02 1.21-2.3v-.03h-1.45v-.3h1.78v.3l-1.2 2.33h-.34Zm3.01.06a.95.95 0 0 1-.44-.1.79.79 0 0 1-.44-.64v-.01h.32v.01a.5.5 0 0 0 .29.4c.08.03.17.05.27.05a.6.6 0 0 0 .3-.07.54.54 0 0 0 .21-.22c.05-.09.08-.2.08-.31a.64.64 0 0 0-.08-.31.55.55 0 0 0-.5-.3.69.69 0 0 0-.24.05.57.57 0 0 0-.31.27h-.29l.14-1.5h1.45v.29h-1.2l-.08.89h.03a.56.56 0 0 1 .33-.24.82.82 0 0 1 .96.4c.07.12.1.27.1.44 0 .18-.03.34-.1.47a.83.83 0 0 1-.33.32.94.94 0 0 1-.47.11Z" fill="#089981"/><path d="M142.12 20.44v-2.63h.33v1.14h1.44v-1.14h.33v2.63h-.33v-1.2h-1.44v1.2h-.33Z" fill="#B2B5BE"/><path d="M146.78 20.44v-2.26h-.03l-.66.48v-.34l.7-.5h.32v2.62h-.33Zm2.53 0v-.54h-1.25v-.3a42.23 42.23 0 0 1 .43-.73l.23-.36a54.57 54.57 0 0 1 .44-.7h.47v1.8h.37v.29h-.37v.54h-.31Zm-.91-.83h.92v-1.5h-.03l-.17.29-.19.29-.18.3a24 24 0 0 0-.35.6v.02Zm2.96.9a.96.96 0 0 1-.43-.1.79.79 0 0 1-.44-.64v-.02h.31v.01c.01.09.05.16.1.23s.11.12.2.16c.07.04.16.06.27.06a.6.6 0 0 0 .3-.07.54.54 0 0 0 .2-.22c.06-.09.08-.2.08-.31a.62.62 0 0 0-.07-.31.54.54 0 0 0-.2-.22.58.58 0 0 0-.3-.07.7.7 0 0 0-.25.04.57.57 0 0 0-.31.27h-.28l.13-1.5h1.46v.29h-1.2l-.09.89h.03a.56.56 0 0 1 .34-.24.83.83 0 0 1 .66.08.8.8 0 0 1 .3.3c.07.14.1.29.1.46 0 .18-.04.34-.12.47a.84.84 0 0 1-.32.32.94.94 0 0 1-.47.11Zm1.7-.05a.23.23 0 0 1-.17-.07.23.23 0 0 1-.07-.17c0-.06.03-.12.07-.17.05-.04.1-.06.17-.06s.12.02.17.06c.04.05.07.1.07.17s-.03.12-.07.17a.23.23 0 0 1-.17.07Zm2.17-2.7c.12 0 .24.02.35.06.12.05.22.12.32.23.1.1.17.24.22.4a2.2 2.2 0 0 1-.03 1.4c-.08.21-.19.37-.34.48a.88.88 0 0 1-.54.17.94.94 0 0 1-.4-.08.82.82 0 0 1-.45-.56v-.03h.33v.02a.5.5 0 0 0 .29.31.6.6 0 0 0 .23.05c.16 0 .29-.05.39-.14.1-.1.17-.22.21-.37.05-.15.08-.32.09-.5v-.1l-.08-.44a.6.6 0 0 0-.29-.53.53.53 0 0 0-.3-.09.58.58 0 0 0-.5.3.6.6 0 0 0-.08.31c0 .12.03.22.08.31a.56.56 0 0 0 .5.3.59.59 0 0 0 .51-.3.6.6 0 0 0 .08-.3h.1v.47h-.06a.71.71 0 0 1-.38.35.84.84 0 0 1-1.05-.37.91.91 0 0 1-.1-.45.85.85 0 0 1 .44-.79c.13-.08.29-.12.46-.12Zm1.68 2.68 1.22-2.3v-.03h-1.45v-.3h1.78v.3l-1.2 2.33h-.35Z" fill="#089981"/><path d="M161.86 20.44v-2.63h.33v2.34h1.26v.29h-1.59Z" fill="#B2B5BE"/><path d="M166.52 20.44v-2.26h-.03l-.67.48v-.34l.7-.5h.33v2.62h-.33Zm2.53 0v-.54h-1.25v-.3l.21-.36.22-.37.23-.36a54.57 54.57 0 0 1 .44-.7h.47v1.8h.37v.29h-.37v.54h-.32Zm-.92-.83h.92v-1.5h-.02a26.85 26.85 0 0 0-.54.88l-.18.3-.18.3v.02Zm2.97.9a.95.95 0 0 1-.43-.1.8.8 0 0 1-.44-.64v-.02h.31v.01a.5.5 0 0 0 .29.4c.08.03.17.05.27.05a.6.6 0 0 0 .3-.07.54.54 0 0 0 .21-.22c.05-.09.08-.2.08-.31a.64.64 0 0 0-.08-.31.55.55 0 0 0-.5-.3.7.7 0 0 0-.24.05.57.57 0 0 0-.31.27h-.29l.14-1.5h1.45v.29h-1.2l-.08.89h.03a.56.56 0 0 1 .33-.24.82.82 0 0 1 .96.4c.07.12.1.27.1.44 0 .18-.03.34-.1.47a.84.84 0 0 1-.33.32.94.94 0 0 1-.47.11Zm1.7-.05a.23.23 0 0 1-.17-.07.23.23 0 0 1-.07-.17c0-.06.02-.12.07-.17.05-.04.1-.06.17-.06.06 0 .12.02.16.06.05.05.07.1.07.17s-.02.12-.06.17a.23.23 0 0 1-.17.07Zm2.2.04a.77.77 0 0 1-.5-.17 1.06 1.06 0 0 1-.31-.47c-.08-.2-.11-.45-.11-.73 0-.29.03-.53.1-.73.08-.21.19-.37.32-.48.14-.11.3-.17.5-.17s.36.06.5.17c.14.11.25.27.32.48.07.2.11.44.11.72 0 .29-.04.53-.11.74-.07.2-.18.36-.32.47a.77.77 0 0 1-.5.17Zm0-.28c.13 0 .24-.05.32-.14a.86.86 0 0 0 .21-.37c.05-.17.07-.36.07-.58 0-.23-.02-.42-.07-.58a.84.84 0 0 0-.2-.38.44.44 0 0 0-.33-.13.44.44 0 0 0-.32.13.84.84 0 0 0-.2.38c-.05.16-.07.35-.07.57 0 .23.02.42.07.59.04.16.11.29.2.37.09.1.2.14.32.14Zm2.33.28a.77.77 0 0 1-.5-.17 1.06 1.06 0 0 1-.32-.47c-.07-.2-.1-.45-.1-.73 0-.29.03-.53.1-.73.08-.21.18-.37.32-.48.14-.11.3-.17.5-.17s.36.06.5.17c.13.11.24.27.31.48.08.2.12.44.12.72 0 .29-.04.53-.12.74-.07.2-.18.36-.31.47a.77.77 0 0 1-.5.17Zm0-.28c.12 0 .23-.05.32-.14a.86.86 0 0 0 .2-.37c.05-.17.08-.36.08-.58 0-.23-.03-.42-.08-.58a.84.84 0 0 0-.2-.38.44.44 0 0 0-.32-.13.44.44 0 0 0-.33.13.84.84 0 0 0-.2.38c-.05.16-.07.35-.07.57 0 .23.02.42.07.59.05.16.12.29.2.37.1.1.2.14.33.14Z" fill="#089981"/><path d="M182.66 20.5c-.24 0-.45-.05-.62-.17-.17-.1-.3-.26-.4-.47-.1-.2-.14-.45-.14-.73 0-.29.04-.53.14-.73.1-.21.23-.37.4-.48.17-.11.38-.17.62-.17.18 0 .35.04.5.11a1 1 0 0 1 .37.3c.1.13.16.28.19.44h-.33a.73.73 0 0 0-.4-.48.78.78 0 0 0-.34-.07.74.74 0 0 0-.43.14.84.84 0 0 0-.29.37c-.06.16-.1.35-.1.57 0 .22.04.4.1.57.07.16.17.28.29.37.12.09.27.13.44.13.12 0 .23-.02.33-.06a.7.7 0 0 0 .25-.17.62.62 0 0 0 .14-.26h.34a.92.92 0 0 1-.56.7c-.15.06-.32.1-.5.1Z" fill="#B2B5BE"/><path d="M186.26 20.44v-2.26h-.03l-.67.48v-.34l.7-.5h.33v2.62h-.33Zm1.57 0 1.21-2.3v-.03h-1.45v-.3h1.78v.3l-1.2 2.33h-.34Zm3.08 0v-2.26h-.03l-.67.48v-.34l.7-.5h.33v2.62h-.33Zm1.63.02a.23.23 0 0 1-.17-.07.23.23 0 0 1-.07-.17c0-.06.02-.12.07-.17.05-.04.1-.06.17-.06.06 0 .12.02.16.06.05.05.07.1.07.17s-.02.12-.07.17a.23.23 0 0 1-.16.07Zm2.2.02c-.18 0-.34-.03-.49-.1a.82.82 0 0 1-.33-.26.66.66 0 0 1-.12-.39.66.66 0 0 1 .27-.54.74.74 0 0 1 .29-.13v-.01a.7.7 0 0 1-.34-.22.56.56 0 0 1-.13-.37.6.6 0 0 1 .11-.35c.08-.1.18-.19.3-.25.13-.06.28-.09.44-.09a1 1 0 0 1 .44.1c.13.05.23.13.3.24.08.1.11.22.11.35 0 .14-.04.26-.12.37-.09.1-.2.17-.34.22a.74.74 0 0 1 .49.38c.04.09.07.19.07.3 0 .15-.04.28-.13.4a.8.8 0 0 1-.33.26c-.14.06-.3.1-.49.1Zm0-.28c.12 0 .23-.02.32-.06.09-.05.16-.1.21-.18a.42.42 0 0 0 .08-.25c0-.1-.02-.18-.08-.26a.5.5 0 0 0-.21-.17.74.74 0 0 0-.32-.07.74.74 0 0 0-.31.07c-.1.04-.17.1-.22.17a.44.44 0 0 0-.08.26c0 .1.03.18.08.25.05.08.13.13.22.18.09.04.2.06.31.06Zm0-1.27c.1 0 .2-.02.28-.06a.45.45 0 0 0 .18-.15.39.39 0 0 0 .07-.23.39.39 0 0 0-.07-.23.43.43 0 0 0-.18-.15.62.62 0 0 0-.28-.06c-.1 0-.2.02-.27.06a.44.44 0 0 0-.19.15.4.4 0 0 0-.06.23c0 .09.02.16.06.23.05.06.11.11.19.15.08.04.17.06.27.06Zm2.35 1.55c-.18 0-.33-.03-.47-.09a.73.73 0 0 1-.44-.62v-.02h.31v.01c.01.09.04.17.1.23.04.07.11.12.2.16.09.03.19.05.3.05.1 0 .2-.02.29-.06.08-.04.15-.1.2-.17a.44.44 0 0 0 .06-.24c0-.17-.05-.29-.15-.38a.64.64 0 0 0-.42-.13h-.32v-.27h.3c.1 0 .2-.02.27-.06a.43.43 0 0 0 .25-.4c0-.1-.02-.17-.06-.24a.36.36 0 0 0-.16-.14.6.6 0 0 0-.27-.06c-.1 0-.19.02-.26.06a.45.45 0 0 0-.27.37v.02h-.32v-.02a.75.75 0 0 1 .43-.62.96.96 0 0 1 .42-.09c.17 0 .3.03.43.09.12.06.22.13.28.24.07.1.1.21.1.35a.59.59 0 0 1-.26.5.79.79 0 0 1-.28.12.7.7 0 0 1 .46.2.6.6 0 0 1 .17.45c0 .15-.04.28-.12.4a.8.8 0 0 1-.32.27c-.13.06-.28.1-.45.1ZM201.22 19.53v-.3h1.92v.3h-1.92Zm.81.83V18.4h.3v1.96h-.3Zm3 .12c-.18 0-.34-.03-.47-.09a.73.73 0 0 1-.44-.62v-.02h.3l.01.01c.01.09.04.17.09.23.05.07.12.12.2.16.1.03.2.05.3.05.11 0 .21-.02.3-.06.08-.04.14-.1.19-.17a.44.44 0 0 0 .07-.24c0-.17-.05-.29-.16-.38a.64.64 0 0 0-.42-.13h-.32v-.27h.3c.11 0 .2-.02.28-.06.07-.04.13-.1.18-.16a.43.43 0 0 0 .06-.24c0-.1-.02-.17-.05-.24a.36.36 0 0 0-.17-.14.6.6 0 0 0-.26-.06c-.1 0-.19.02-.27.06a.45.45 0 0 0-.27.38v.01h-.31v-.02a.75.75 0 0 1 .43-.62.96.96 0 0 1 .42-.09c.16 0 .3.03.43.09.12.06.21.13.28.24.07.1.1.21.1.35a.59.59 0 0 1-.26.5.78.78 0 0 1-.28.12.7.7 0 0 1 .45.2.6.6 0 0 1 .17.45c0 .15-.03.28-.11.4a.8.8 0 0 1-.32.27c-.13.06-.28.1-.46.1Zm1.68-.02a.23.23 0 0 1-.17-.07.23.23 0 0 1-.07-.17c0-.06.03-.12.07-.17.05-.04.1-.06.17-.06.06 0 .12.02.17.06.04.05.06.1.06.17s-.02.12-.06.17a.23.23 0 0 1-.17.07Zm2.28-.02v-2.26h-.03l-.66.48v-.34l.7-.5h.32v2.62H209Zm1.57 0 1.22-2.3v-.03h-1.45v-.3h1.78v.3l-1.2 2.33h-.35Zm3.81.66a2.47 2.47 0 0 1-.46-1.07 3.57 3.57 0 0 1 .17-1.83c.08-.18.17-.34.3-.5h.26a1.5 1.5 0 0 0-.18.32 3.03 3.03 0 0 0-.25.9 3.47 3.47 0 0 0 .25 1.86c.05.13.11.23.18.32h-.27Zm.66-1.57v-.3h1.92v.3h-1.92Zm.81.83V18.4h.3v1.96h-.3Zm3.06.08v-2.26h-.03l-.67.48v-.34l.7-.5h.32v2.62h-.32Zm1.62.02a.23.23 0 0 1-.17-.07.23.23 0 0 1-.06-.17c0-.06.02-.12.06-.17.05-.04.1-.06.17-.06s.12.02.17.06c.05.05.07.1.07.17s-.02.12-.07.17a.23.23 0 0 1-.17.07Zm1.7.02c-.18 0-.34-.03-.48-.1a.81.81 0 0 1-.34-.26.66.66 0 0 1-.12-.39.65.65 0 0 1 .27-.54.74.74 0 0 1 .3-.13v-.01a.69.69 0 0 1-.35-.22.6.6 0 0 1-.02-.72c.08-.1.18-.19.3-.25.14-.06.28-.09.45-.09a1 1 0 0 1 .43.1c.13.05.23.13.3.24.08.1.12.22.12.35 0 .14-.05.26-.13.37-.08.1-.2.17-.34.22a.74.74 0 0 1 .49.38c.05.09.07.19.07.3 0 .15-.04.28-.12.4a.8.8 0 0 1-.34.26c-.14.06-.3.1-.48.1Zm0-.28c.13 0 .23-.02.32-.06.1-.05.17-.1.22-.18a.42.42 0 0 0 .08-.25c0-.1-.03-.18-.08-.26a.51.51 0 0 0-.22-.17.74.74 0 0 0-.31-.07.75.75 0 0 0-.32.07c-.1.04-.16.1-.22.17a.44.44 0 0 0-.07.26c0 .1.02.18.08.25.05.08.12.13.21.18.1.04.2.06.32.06Zm0-1.27c.11 0 .2-.02.28-.06a.45.45 0 0 0 .18-.15.39.39 0 0 0 .07-.23.39.39 0 0 0-.07-.23.43.43 0 0 0-.18-.15.62.62 0 0 0-.27-.06c-.1 0-.2.02-.28.06a.45.45 0 0 0-.18.15.4.4 0 0 0-.07.23.4.4 0 0 0 .25.38c.08.04.17.06.28.06Zm2.34 1.57a.96.96 0 0 1-.44-.1.8.8 0 0 1-.43-.63v-.02h.3l.01.01a.5.5 0 0 0 .29.4c.08.03.17.05.27.05a.6.6 0 0 0 .3-.07.54.54 0 0 0 .21-.22c.05-.09.08-.2.08-.31a.62.62 0 0 0-.08-.31.54.54 0 0 0-.2-.22.58.58 0 0 0-.3-.07.7.7 0 0 0-.24.04.58.58 0 0 0-.32.27h-.28l.14-1.5h1.45v.29h-1.2l-.08.89h.03a.56.56 0 0 1 .33-.24.82.82 0 0 1 .96.4c.07.12.1.27.1.44 0 .18-.03.34-.1.47a.84.84 0 0 1-.33.32.94.94 0 0 1-.47.11Zm1.93-1.3a.48.48 0 0 1-.3-.09.55.55 0 0 1-.18-.25 1 1 0 0 1-.06-.37 1 1 0 0 1 .06-.38c.05-.1.1-.19.19-.24a.48.48 0 0 1 .29-.09c.1 0 .2.03.28.09.08.05.15.13.19.24.04.1.06.23.06.38 0 .14-.02.27-.06.37-.04.11-.1.2-.19.25a.48.48 0 0 1-.28.09Zm0-.22c.09 0 .16-.04.2-.13.06-.09.08-.2.08-.36a.71.71 0 0 0-.08-.36c-.04-.09-.11-.13-.2-.13-.1 0-.16.04-.21.13a.72.72 0 0 0-.08.36c0 .15.03.27.08.36.05.09.12.13.2.13Zm.2 1.46h-.3l1.78-2.63h.3l-1.79 2.63Zm1.68.04a.48.48 0 0 1-.29-.09.56.56 0 0 1-.19-.25c-.04-.1-.06-.23-.06-.37 0-.15.02-.28.06-.38.05-.1.11-.19.19-.25a.48.48 0 0 1 .29-.08.48.48 0 0 1 .47.33c.04.1.07.23.07.38 0 .14-.03.27-.07.37-.04.1-.1.2-.19.25a.48.48 0 0 1-.28.09Zm0-.22c.09 0 .16-.04.2-.13.06-.09.08-.2.08-.36a.71.71 0 0 0-.07-.36c-.05-.1-.12-.13-.21-.13-.1 0-.16.04-.21.13a.72.72 0 0 0-.08.36c0 .15.03.27.08.36.05.09.12.13.2.13Zm1.23.84h-.27a2.86 2.86 0 0 0 .43-1.21 3.52 3.52 0 0 0-.25-1.87 1.46 1.46 0 0 0-.18-.32h.27a2.41 2.41 0 0 1 .46 1.06 3.54 3.54 0 0 1-.17 1.84c-.08.17-.17.34-.3.5Z" fill="#089981"/><path d="M18.58 24.8h16.56a1 1 0 0 1 1 1v5.77a1 1 0 0 1-1 1H18.58a1 1 0 0 1-1-1V25.8a1 1 0 0 1 1-1Z" fill="#000"/><path d="M18.58 24.8h16.56a1 1 0 0 1 1 1v5.77a1 1 0 0 1-1 1H18.58a1 1 0 0 1-1-1V25.8a1 1 0 0 1 1-1Z" stroke="#F23645" stroke-width=".29"/><path d="M21.11 29.52v-2.27h-.03l-.67.49v-.35l.7-.5h.33v2.63h-.33Zm2.27.04c-.18 0-.33-.03-.47-.1a.73.73 0 0 1-.44-.62v-.02h.31v.02c.01.08.04.16.1.23.04.06.11.11.2.15.09.04.18.05.3.05.1 0 .2-.02.29-.06.08-.04.15-.09.2-.16a.44.44 0 0 0 .06-.25c0-.16-.05-.29-.15-.37a.64.64 0 0 0-.42-.13h-.32v-.28h.3c.1 0 .2-.02.27-.06a.43.43 0 0 0 .25-.4c0-.09-.02-.17-.06-.23a.36.36 0 0 0-.17-.15.6.6 0 0 0-.26-.05c-.1 0-.19.02-.26.05a.45.45 0 0 0-.2.15.45.45 0 0 0-.07.23v.02h-.32v-.02a.75.75 0 0 1 .43-.62.96.96 0 0 1 .42-.1c.17 0 .3.03.43.1a.61.61 0 0 1 .38.59.59.59 0 0 1-.26.5.79.79 0 0 1-.28.11.7.7 0 0 1 .45.2.6.6 0 0 1 .18.45c0 .15-.04.28-.12.4a.8.8 0 0 1-.32.27c-.13.07-.28.1-.45.1Zm2.3.02a.77.77 0 0 1-.5-.17 1.06 1.06 0 0 1-.31-.48c-.08-.2-.12-.45-.12-.73 0-.28.04-.53.12-.73.07-.2.18-.36.31-.48.14-.1.3-.16.5-.16s.36.05.5.16c.14.12.24.27.32.48.07.2.11.45.11.73 0 .28-.04.53-.11.73-.08.21-.18.37-.32.48a.77.77 0 0 1-.5.17Zm0-.29c.13 0 .23-.04.32-.13a.85.85 0 0 0 .2-.38c.06-.16.08-.35.08-.58 0-.22-.02-.42-.07-.58a.84.84 0 0 0-.2-.37.44.44 0 0 0-.33-.14.44.44 0 0 0-.32.14.85.85 0 0 0-.2.37c-.05.16-.08.36-.08.58 0 .23.03.42.07.58.05.16.12.29.2.38.1.09.2.13.33.13Zm1.7.24a.23.23 0 0 1-.16-.07.23.23 0 0 1-.07-.16c0-.07.02-.12.07-.17.05-.05.1-.07.17-.07.06 0 .12.02.16.07.05.05.07.1.07.17 0 .06-.02.12-.07.16a.23.23 0 0 1-.16.07Zm1.71.05a.77.77 0 0 1-.5-.17 1.06 1.06 0 0 1-.32-.48c-.07-.2-.1-.45-.1-.73 0-.28.03-.53.1-.73.08-.2.18-.36.32-.48.14-.1.3-.16.5-.16s.36.05.5.16c.14.12.24.27.32.48.07.2.11.45.11.73 0 .28-.04.53-.11.73-.08.21-.18.37-.32.48a.77.77 0 0 1-.5.17Zm0-.29c.13 0 .23-.04.32-.13a.85.85 0 0 0 .2-.38c.06-.16.08-.35.08-.58 0-.22-.02-.42-.07-.58a.84.84 0 0 0-.2-.37.44.44 0 0 0-.33-.14.44.44 0 0 0-.32.14.85.85 0 0 0-.2.37c-.05.16-.08.36-.08.58 0 .23.03.42.07.58.05.16.12.29.2.38.1.09.2.13.33.13Zm2.32.29a.77.77 0 0 1-.5-.17 1.06 1.06 0 0 1-.31-.48c-.07-.2-.11-.45-.11-.73 0-.28.04-.53.11-.73.07-.2.18-.36.32-.48.13-.1.3-.16.5-.16.19 0 .36.05.5.16.13.12.24.27.31.48.08.2.11.45.11.73 0 .28-.03.53-.1.73-.08.21-.19.37-.33.48a.77.77 0 0 1-.5.17Zm0-.29c.13 0 .24-.04.33-.13a.85.85 0 0 0 .2-.38c.05-.16.08-.35.08-.58 0-.22-.03-.42-.08-.58a.84.84 0 0 0-.2-.37.44.44 0 0 0-.33-.14.44.44 0 0 0-.32.14.85.85 0 0 0-.2.37c-.05.16-.07.36-.07.58 0 .23.02.42.07.58.05.16.11.29.2.38.1.09.2.13.32.13Z" fill="#F23645"/><path d="m39.02 29.52 1-1.97v-.01h-1.19v-.25h1.47v.26l-.99 1.97h-.29Zm1.48.02a.17.17 0 0 1-.18-.18c0-.1.08-.17.18-.17.1 0 .17.07.17.17s-.07.18-.17.18Zm.52-.02v-.2l.78-.81c.3-.31.37-.43.37-.62 0-.23-.17-.4-.41-.4-.28 0-.49.2-.49.44H41c0-.39.34-.67.75-.67.4 0 .7.27.7.61 0 .25-.12.43-.52.85l-.53.54h1.08v.26h-1.46Zm2.76 0v-.47h-1.11v-.25l.97-1.5h.41v1.51h.32v.24h-.32v.47h-.27Zm-.84-.71h.84v-1.28l-.84 1.27v.01Z" fill="#D1D4DC"/><path d="M48.37 24.8h16.56a1 1 0 0 1 1 1v5.77a1 1 0 0 1-1 1H48.37a1 1 0 0 1-1-1V25.8a1 1 0 0 1 1-1Z" fill="#000"/><path d="M48.37 24.8h16.56a1 1 0 0 1 1 1v5.77a1 1 0 0 1-1 1H48.37a1 1 0 0 1-1-1V25.8a1 1 0 0 1 1-1Z" stroke="#2962FF" stroke-width=".29"/><path d="M50.9 29.52v-2.27h-.03l-.67.49v-.35l.7-.5h.33v2.63h-.33Zm2.27.04c-.18 0-.33-.03-.47-.1a.73.73 0 0 1-.44-.62v-.02h.31v.02c.01.08.04.16.1.23.04.06.11.11.2.15.09.04.18.05.3.05.1 0 .2-.02.29-.06.08-.04.15-.09.2-.16a.44.44 0 0 0 .06-.25c0-.16-.05-.29-.15-.37a.64.64 0 0 0-.42-.13h-.32v-.28h.3c.1 0 .2-.02.27-.06a.43.43 0 0 0 .25-.4c0-.09-.02-.17-.06-.23a.36.36 0 0 0-.17-.15.6.6 0 0 0-.26-.05c-.1 0-.19.02-.26.05a.45.45 0 0 0-.2.15.45.45 0 0 0-.07.23v.02h-.32v-.02a.75.75 0 0 1 .43-.62.96.96 0 0 1 .42-.1c.17 0 .3.03.43.1a.61.61 0 0 1 .38.59.59.59 0 0 1-.26.5.79.79 0 0 1-.28.11.7.7 0 0 1 .45.2.6.6 0 0 1 .18.45c0 .15-.04.28-.12.4a.8.8 0 0 1-.32.27c-.13.07-.28.1-.45.1Zm1.62-.04 1.22-2.31v-.03h-1.45v-.3h1.78v.31l-1.2 2.33h-.35Zm2.39.01a.23.23 0 0 1-.17-.07.23.23 0 0 1-.07-.16c0-.07.02-.12.07-.17.05-.05.1-.07.17-.07.06 0 .12.02.16.07.05.05.07.1.07.17 0 .06-.02.12-.07.16a.23.23 0 0 1-.16.07Zm.9-.01v-.23l.85-.96.26-.3c.06-.08.1-.15.13-.22a.58.58 0 0 0 .03-.2v-.01c0-.1-.01-.18-.05-.25a.42.42 0 0 0-.17-.17.5.5 0 0 0-.25-.07c-.1 0-.2.03-.27.07a.45.45 0 0 0-.18.18.56.56 0 0 0-.06.27h-.31c0-.16.03-.3.1-.41a.76.76 0 0 1 .3-.29.9.9 0 0 1 .44-.1c.15 0 .28.03.4.1a.69.69 0 0 1 .39.64c0 .1-.02.2-.05.28-.04.1-.1.2-.18.31-.08.11-.2.25-.36.41l-.66.7.09-.15v.15l-.08-.05h1.28v.3h-1.66Zm3.41 0v-.55h-1.25v-.3a68.98 68.98 0 0 1 1.1-1.78h.47v1.79h.36v.3h-.36v.54h-.32Zm-.92-.84h.92v-1.49h-.02a40.14 40.14 0 0 0-.9 1.47v.02Z" fill="#2962FF"/><path d="m18.42 39.19-.88-2.38h.31l.7 2h.03l.7-2h.3l-.87 2.38h-.3Zm2.1.03a.83.83 0 0 1-.44-.11.75.75 0 0 1-.29-.32c-.06-.14-.1-.3-.1-.5 0-.18.04-.35.1-.48a.74.74 0 0 1 .29-.32.83.83 0 0 1 .43-.11c.17 0 .32.04.44.1.12.08.21.19.28.33.07.13.1.3.1.49s-.03.35-.1.49a.74.74 0 0 1-.72.43Zm0-.26a.5.5 0 0 0 .28-.08.49.49 0 0 0 .17-.22c.05-.1.07-.22.07-.36a.92.92 0 0 0-.07-.36.48.48 0 0 0-.17-.23.5.5 0 0 0-.29-.08.5.5 0 0 0-.28.08.49.49 0 0 0-.18.23.94.94 0 0 0-.06.36c0 .14.02.26.06.36.04.1.1.17.18.22a.5.5 0 0 0 .28.08Zm1.25.23V36.7h.29v2.48h-.29Z" fill="#D1D4DC"/><path d="m24.55 39.02 1.1-2.1v-.02h-1.3v-.26h1.6v.27l-1.09 2.1h-.3Zm2.98 0v-.5H26.4v-.27a56.82 56.82 0 0 1 .99-1.61h.43v1.62h.33v.26h-.33v.5h-.29Zm-.83-.76h.83V36.9h-.02a34.4 34.4 0 0 0-.81 1.33v.02Zm2.12.77a.21.21 0 0 1-.16-.06.21.21 0 0 1-.06-.15.2.2 0 0 1 .06-.15c.05-.05.1-.07.16-.07a.2.2 0 0 1 .15.07c.04.04.06.09.06.15s-.02.1-.06.15a.2.2 0 0 1-.15.06Zm1.5-2.45c.11 0 .22.02.32.07.1.04.2.1.29.2a1 1 0 0 1 .2.37c.06.15.08.34.08.56a2 2 0 0 1-.1.7.95.95 0 0 1-.31.44.8.8 0 0 1-.5.15.85.85 0 0 1-.35-.07.74.74 0 0 1-.27-.2.75.75 0 0 1-.14-.31v-.02h.3v.01c.02.07.06.13.1.17.04.05.1.09.16.12.06.02.13.04.21.04.14 0 .26-.05.35-.13.08-.08.15-.2.2-.33a1.7 1.7 0 0 0 .07-.5v-.05l-.07-.4c0-.1-.03-.2-.07-.28a.54.54 0 0 0-.2-.2.48.48 0 0 0-.26-.07.53.53 0 0 0-.46.27.55.55 0 0 0-.07.28c0 .1.02.2.07.28a.5.5 0 0 0 .45.26c.1 0 .2-.02.28-.07a.5.5 0 0 0 .19-.19.54.54 0 0 0 .07-.27h.1v.42h-.06a.64.64 0 0 1-.34.32.73.73 0 0 1-.29.05.76.76 0 0 1-.67-.39.83.83 0 0 1-.1-.4c0-.17.04-.3.11-.43a.77.77 0 0 1 .3-.3c.12-.06.26-.1.42-.1Zm1.41 2.44v-.2l.78-.88a4.83 4.83 0 0 0 .34-.46.53.53 0 0 0 .04-.2.47.47 0 0 0-.05-.22.38.38 0 0 0-.15-.16.45.45 0 0 0-.23-.06c-.1 0-.18.02-.24.06a.4.4 0 0 0-.16.16.5.5 0 0 0-.06.25h-.28a.69.69 0 0 1 .37-.63c.1-.07.24-.1.39-.1.13 0 .25.03.36.1a.62.62 0 0 1 .35.58c0 .08-.01.17-.04.25-.03.09-.09.18-.17.28-.07.1-.18.23-.32.37l-.6.64.08-.14v.14l-.07-.05h1.16v.27h-1.5Zm2.08 0v-2.38h.34l.81 1.98H35l.81-1.98h.35v2.38h-.28V37.2h-.14l.33-.5-.96 2.32h-.25l-.95-2.31.33.5h-.15V39h-.27Z" fill="#089981"/><g opacity=".8"><path fill="#089981" d="M17.65 200.16h1.05v5.25h-1.05z"/><path fill="#F23645" d="M19.23 196.74h1.05v8.66h-1.05z"/><path fill="#089981" d="M20.8 192.74h1.05v12.66H20.8z"/><path fill="#F23645" d="M22.38 196.07h1.05v9.33h-1.05z"/><path fill="#089981" d="M23.95 188.74H25v16.66h-1.05z"/><path fill="#F23645" d="M25.53 194.08h1.05v11.33h-1.05zM27.1 188.08h1.05v17.33H27.1z"/><path fill="#089981" d="M28.67 198.74h1.05v6.67h-1.05z"/><path fill="#F23645" d="M30.25 202.07h1.05v3.33h-1.05zM31.83 201.41h1.05v4h-1.05zM33.4 191.41h1.05v14H33.4z"/><path fill="#089981" d="M34.98 190.74h1.05v14.66h-1.05z"/><path fill="#F23645" d="M36.55 194.74h1.05v10.66h-1.05zM38.12 192.74h1.05v12.66h-1.05zM39.7 197.41h1.05v8H39.7z"/><path fill="#089981" d="M41.27 190.74h1.05v14.66h-1.05z"/><path fill="#F23645" d="M42.85 198.74h1.05v6.67h-1.05z"/><path fill="#089981" d="M44.42 196.07h1.05v9.33h-1.05zM46 192.74h1.05v12.66H46z"/><path fill="#F23645" d="M47.57 192.74h1.05v12.66h-1.05zM49.15 196.74h1.05v8.66h-1.05z"/><path fill="#089981" d="M50.72 199.41h1.05v6h-1.05z"/><path fill="#F23645" d="M52.3 201.41h1.05v4H52.3zM53.87 203.41h1.05v2h-1.05z"/><path fill="#089981" d="M55.45 199.11h1.05v6.3h-1.05zM57.02 200.68h1.05v4.72h-1.05zM58.6 200.16h1.05v5.25H58.6z"/><path fill="#F23645" d="M60.17 200.74h1.05v4.67h-1.05zM61.75 196.07h1.05v9.33h-1.05z"/><path fill="#089981" d="M63.32 201.41h1.05v4h-1.05z"/><path fill="#F23645" d="M64.9 203.41h1.05v2H64.9z"/><path fill="#089981" d="M66.47 193.41h1.05v12h-1.05zM68.04 192.08h1.05v13.33h-1.05z"/><path fill="#F23645" d="M69.62 198.74h1.05v6.67h-1.05z"/><path fill="#089981" d="M71.2 201.21h1.05v4.2H71.2z"/><path fill="#F23645" d="M72.77 201.21h1.05v4.2h-1.05zM74.34 194.08h1.05v11.33h-1.05z"/><path fill="#089981" d="M75.92 198.07h1.05v7.33h-1.05z"/><path fill="#F23645" d="M77.49 191.41h1.05v14h-1.05z"/><path fill="#089981" d="M79.07 192.74h1.05v12.66h-1.05zM80.64 201.41h1.05v4h-1.05z"/><path fill="#F23645" d="M82.22 191.41h1.05v14h-1.05z"/><path fill="#089981" d="M83.79 196.74h1.05v8.66h-1.05z"/><path fill="#F23645" d="M85.37 194.08h1.05v11.33h-1.05zM86.94 196.07h1.05v9.33h-1.05zM88.52 202.74h1.05v2.67h-1.05zM90.09 204.07h1.05v1.33h-1.05z"/><path fill="#089981" d="M91.67 202.74h1.05v2.67h-1.05z"/><path fill="#F23645" d="M93.24 198.07h1.05v7.33h-1.05z"/><path fill="#089981" d="M94.82 195.43h1.05v9.97h-1.05zM96.39 200.16h1.05v5.25h-1.05zM97.97 200.68h1.05v4.72h-1.05z"/><path fill="#F23645" d="M99.54 196.74h1.05v8.66h-1.05zM101.12 200.16h1.05v5.25h-1.05z"/><path fill="#089981" d="M102.69 199.41h1.05v6h-1.05z"/><path fill="#F23645" d="M104.26 197.41h1.05v8h-1.05z"/><path fill="#089981" d="M105.84 192.74h1.05v12.66h-1.05z"/><path fill="#F23645" d="M107.41 192.08h1.05v13.33h-1.05z"/><path fill="#089981" d="M108.99 202.07h1.05v3.33h-1.05z"/><path fill="#F23645" d="M110.56 192.08h1.05v13.33h-1.05z"/><path fill="#089981" d="M112.14 202.74h1.05v2.67h-1.05zM113.71 191.41h1.05v14h-1.05z"/><path fill="#F23645" d="M115.29 193.41h1.05v12h-1.05z"/><path fill="#089981" d="M116.86 199.41h1.05v6h-1.05z"/><path fill="#F23645" d="M118.44 193.41h1.05v12h-1.05z"/><path fill="#089981" d="M120.01 201.41h1.05v4h-1.05z"/><path fill="#F23645" d="M121.59 202.74h1.05v2.67h-1.05z"/><path fill="#089981" d="M123.16 191.41h1.05v14h-1.05zM124.74 196.07h1.05v9.33h-1.05z"/><path fill="#F23645" d="M126.31 192.74h1.05v12.66h-1.05zM127.89 197.41h1.05v8h-1.05zM129.46 190.08h1.05v15.33h-1.05z"/><path fill="#089981" d="M131.03 197.41h1.05v8h-1.05z"/><path fill="#F23645" d="M132.61 194.74h1.05v10.66h-1.05zM134.19 198.74h1.05v6.67h-1.05z"/><path fill="#089981" d="M135.76 190.74h1.05v14.66h-1.05zM137.34 200.07h1.05v5.33h-1.05z"/><path fill="#F23645" d="M138.91 200.74h1.05v4.67h-1.05z"/><path fill="#089981" d="M140.48 198.07h1.05v7.33h-1.05z"/><path fill="#F23645" d="M142.06 201.41h1.05v4h-1.05z"/><path fill="#089981" d="M143.63 196.07h1.05v9.33h-1.05z"/><path fill="#F23645" d="M145.21 190.74h1.05v14.66h-1.05z"/><path fill="#089981" d="M146.78 198.07h1.05v7.33h-1.05z"/><path fill="#F23645" d="M148.36 201.41h1.05v4h-1.05zM149.93 191.41h1.05v14h-1.05z"/><path fill="#089981" d="M151.51 200.07h1.05v5.33h-1.05zM153.08 196.07h1.05v9.33h-1.05z"/><path fill="#F23645" d="M154.66 190.74h1.05v14.66h-1.05z"/><path fill="#089981" d="M156.23 199.41h1.05v6h-1.05z"/><path fill="#F23645" d="M157.81 198.07h1.05v7.33h-1.05zM159.38 196.07h1.05v9.33h-1.05z"/><path fill="#089981" d="M160.96 195.41h1.05v10h-1.05z"/><path fill="#F23645" d="M162.53 192.74h1.05v12.66h-1.05zM164.1 200.07h1.05v5.33h-1.05z"/><path fill="#089981" d="M165.68 191.41h1.05v14h-1.05z"/><path fill="#F23645" d="M167.25 198.74h1.05v6.67h-1.05z"/><path fill="#089981" d="M168.83 191.41h1.05v14h-1.05zM170.4 199.41h1.05v6h-1.05z"/><path fill="#F23645" d="M171.98 192.08h1.05v13.33h-1.05zM173.56 200.74h1.05v4.67h-1.05z"/><path fill="#089981" d="M175.13 195.41h1.05v10h-1.05z"/><path fill="#F23645" d="M176.7 199.41h1.05v6h-1.05zM178.28 191.41h1.05v14h-1.05z"/><path fill="#089981" d="M179.85 202.07h1.05v3.33h-1.05z"/><path fill="#F23645" d="M181.43 197.41h1.05v8h-1.05z"/><path fill="#089981" d="M183 191.41h1.05v14H183z"/><path fill="#F23645" d="M184.58 200.07h1.05v5.33h-1.05zM186.15 201.41h1.05v4h-1.05z"/><path fill="#089981" d="M187.73 194.08h1.05v11.33h-1.05z"/><path fill="#F23645" d="M189.3 193.41h1.05v12h-1.05zM190.88 198.07h1.05v7.33h-1.05zM192.45 202.07h1.05v3.33h-1.05z"/><path fill="#089981" d="M194.03 204.07h1.05v1.33h-1.05z"/><path fill="#F23645" d="M195.6 204.07h1.05v1.33h-1.05z"/><path fill="#089981" d="M197.18 196.07h1.05v9.33h-1.05z"/><path fill="#F23645" d="M198.75 190.74h1.05v14.66h-1.05z"/><path fill="#089981" d="M200.33 200.07h1.05v5.33h-1.05z"/><path fill="#F23645" d="M201.9 200.74h1.05v4.67h-1.05z"/><path fill="#089981" d="M203.48 198.07h1.05v7.33h-1.05z"/><path fill="#F23645" d="M205.05 196.07h1.05v9.33h-1.05zM206.63 190.74h1.05v14.66h-1.05z"/><path fill="#089981" d="M208.2 198.07h1.05v7.33h-1.05z"/><path fill="#F23645" d="M209.77 201.41h1.05v4h-1.05zM211.35 191.41h1.05v14h-1.05z"/><path fill="#089981" d="M212.93 200.07h1.05v5.33h-1.05zM214.5 196.07h1.05v9.33h-1.05z"/><path fill="#F23645" d="M216.07 190.74h1.05v14.66h-1.05z"/><path fill="#089981" d="M217.65 199.41h1.05v6h-1.05z"/><path fill="#F23645" d="M219.22 198.07h1.05v7.33h-1.05zM220.8 196.07h1.05v9.33h-1.05z"/><path fill="#089981" d="M222.37 195.41h1.05v10h-1.05z"/><path fill="#F23645" d="M223.95 192.74H225v12.66h-1.05zM225.52 200.07h1.05v5.33h-1.05z"/><path fill="#089981" d="M227.1 191.41h1.05v14h-1.05z"/><path fill="#F23645" d="M228.67 198.74h1.05v6.67h-1.05zM230.25 191.41h1.05v14h-1.05z"/><path fill="#089981" d="M231.82 199.41h1.05v6h-1.05z"/><path fill="#F23645" d="M233.4 192.08h1.05v13.33h-1.05zM234.97 200.74h1.05v4.67h-1.05z"/><path fill="#089981" d="M236.55 195.41h1.05v10h-1.05z"/><path fill="#F23645" d="M238.12 199.41h1.05v6h-1.05zM239.69 191.41h1.05v14h-1.05z"/><path fill="#089981" d="M241.27 202.07h1.05v3.33h-1.05z"/><path fill="#F23645" d="M242.84 197.41h1.05v8h-1.05z"/><path fill="#089981" d="M244.42 191.41h1.05v14h-1.05z"/><path fill="#F23645" d="M245.99 200.07h1.05v5.33h-1.05zM247.57 201.41h1.05v4h-1.05z"/><path fill="#089981" d="M249.14 194.08h1.05v11.33h-1.05z"/><path fill="#F23645" d="M250.72 193.41h1.05v12h-1.05zM252.29 198.07h1.05v7.33h-1.05zM253.87 202.07h1.05v3.33h-1.05z"/><path fill="#089981" d="M255.44 204.07h1.05v1.33h-1.05z"/><path fill="#F23645" d="M257.02 204.07h1.05v1.33h-1.05z"/><path fill="#089981" d="M258.59 196.07h1.05v9.33h-1.05zM260.17 200.16h1.05v5.25h-1.05z"/><path fill="#F23645" d="M261.74 196.74h1.05v8.66h-1.05z"/><path fill="#089981" d="M263.31 192.74h1.05v12.66h-1.05z"/><path fill="#F23645" d="M264.89 196.07h1.05v9.33h-1.05z"/><path fill="#089981" d="M266.47 188.74h1.05v16.66h-1.05z"/><path fill="#F23645" d="M268.04 194.08h1.05v11.33h-1.05zM269.62 188.08h1.05v17.33h-1.05z"/><path fill="#089981" d="M271.19 198.74h1.05v6.67h-1.05z"/><path fill="#F23645" d="M272.76 202.07h1.05v3.33h-1.05zM274.34 201.41h1.05v4h-1.05zM275.92 191.41h1.05v14h-1.05z"/><path fill="#089981" d="M277.49 190.74h1.05v14.66h-1.05z"/><path fill="#F23645" d="M279.06 194.74h1.05v10.66h-1.05zM280.64 192.74h1.05v12.66h-1.05zM282.21 197.41h1.05v8h-1.05z"/><path fill="#089981" d="M283.79 190.74h1.05v14.66h-1.05z"/><path fill="#F23645" d="M285.36 198.74h1.05v6.67h-1.05z"/><path fill="#089981" d="M286.94 196.07h1.05v9.33h-1.05zM288.51 192.74h1.05v12.66h-1.05z"/><path fill="#F23645" d="M290.09 192.74h1.05v12.66h-1.05zM291.66 196.74h1.05v8.66h-1.05z"/><path fill="#089981" d="M293.24 199.41h1.05v6h-1.05z"/><path fill="#F23645" d="M294.81 201.41h1.05v4h-1.05zM296.39 203.41h1.05v2h-1.05z"/><path fill="#089981" d="M297.96 199.11h1.05v6.3h-1.05zM299.54 200.68h1.05v4.72h-1.05zM301.11 200.16h1.05v5.25h-1.05z"/><path fill="#F23645" d="M302.69 200.74h1.05v4.67h-1.05zM304.26 196.07h1.05v9.33h-1.05z"/><path fill="#089981" d="M305.84 201.41h1.05v4h-1.05z"/><path fill="#F23645" d="M307.41 203.41h1.05v2h-1.05z"/><path fill="#089981" d="M308.98 193.41h1.05v12h-1.05zM310.56 192.08h1.05v13.33h-1.05z"/><path fill="#F23645" d="M312.13 198.74h1.05v6.67h-1.05z"/><path fill="#089981" d="M313.71 201.21h1.05v4.2h-1.05z"/><path fill="#F23645" d="M315.29 201.21h1.05v4.2h-1.05zM316.86 194.08h1.05v11.33h-1.05z"/><path fill="#089981" d="M318.43 198.07h1.05v7.33h-1.05z"/><path fill="#F23645" d="M320.01 191.41h1.05v14h-1.05z"/><path fill="#089981" d="M321.58 192.74h1.05v12.66h-1.05zM323.16 201.41h1.05v4h-1.05z"/><path fill="#F23645" d="M324.73 191.41h1.05v14h-1.05z"/><path fill="#089981" d="M326.31 196.74h1.05v8.66h-1.05z"/><path fill="#F23645" d="M327.88 194.08h1.05v11.33h-1.05zM329.46 196.07h1.05v9.33h-1.05zM331.03 202.74h1.05v2.67h-1.05zM332.61 204.07h1.05v1.33h-1.05z"/><path fill="#089981" d="M334.18 202.74h1.05v2.67h-1.05z"/><path fill="#F23645" d="M335.76 198.07h1.05v7.33h-1.05z"/><path fill="#089981" d="M337.33 195.43h1.05v9.97h-1.05zM338.91 200.16h1.05v5.25h-1.05zM340.48 200.68h1.05v4.72h-1.05z"/><path fill="#F23645" d="M342.06 196.74h1.05v8.66h-1.05zM343.63 200.16h1.05v5.25h-1.05z"/><path fill="#089981" d="M345.21 199.41h1.05v6h-1.05z"/><path fill="#F23645" d="M346.78 197.41h1.05v8h-1.05z"/></g><path d="M376.81 24.73c-.18 0-.34-.04-.47-.1a.74.74 0 0 1-.3-.29.85.85 0 0 1-.1-.43v-1.45h.27v1.43c0 .12.02.22.07.3.05.1.12.16.2.2.1.06.2.08.33.08s.24-.02.33-.07a.5.5 0 0 0 .2-.2.63.63 0 0 0 .08-.3v-1.44h.27v1.45c0 .16-.03.3-.1.43a.73.73 0 0 1-.3.29 1 1 0 0 1-.48.1Zm2.17 0c-.16 0-.3-.03-.42-.08a.73.73 0 0 1-.29-.22.62.62 0 0 1-.12-.32v-.02h.28v.02c0 .08.03.14.08.2.05.05.12.09.2.12a.86.86 0 0 0 .56 0 .45.45 0 0 0 .18-.14.31.31 0 0 0 .07-.2.3.3 0 0 0-.1-.23.7.7 0 0 0-.33-.15l-.25-.05a1.24 1.24 0 0 1-.36-.14.57.57 0 0 1-.2-.2.59.59 0 0 1-.07-.29c0-.12.03-.23.1-.32.06-.1.15-.17.27-.23a.98.98 0 0 1 .4-.08c.15 0 .28.03.4.08.11.06.2.13.27.22s.1.19.11.3v.02h-.27V23a.35.35 0 0 0-.09-.18.44.44 0 0 0-.17-.12.64.64 0 0 0-.25-.04c-.1 0-.18.01-.25.04a.41.41 0 0 0-.18.13.3.3 0 0 0-.06.2c0 .05.01.1.04.15.03.05.08.1.14.12.06.04.14.07.24.09l.25.05c.15.04.28.08.37.14a.52.52 0 0 1 .27.47c0 .14-.03.26-.1.36a.66.66 0 0 1-.28.24c-.13.05-.27.08-.44.08Zm1.28-.05v-2.22h.77c.22 0 .4.04.56.13.16.09.28.21.36.38.08.16.12.36.12.6 0 .23-.04.43-.12.6-.08.16-.2.29-.36.38-.15.08-.34.13-.56.13h-.76Zm.28-.25h.47c.16 0 .3-.04.42-.1.12-.07.2-.17.27-.3.06-.13.1-.28.1-.46s-.04-.34-.1-.47a.66.66 0 0 0-.27-.3.82.82 0 0 0-.42-.1h-.47v1.73ZM375.58 39.45a.8.8 0 0 1-.37-.08.66.66 0 0 1-.37-.54v-.02h.26v.01a.42.42 0 0 0 .25.33c.07.04.14.05.23.05.1 0 .19-.02.26-.06.08-.05.13-.1.18-.18a.54.54 0 0 0 .06-.27c0-.1-.02-.19-.06-.26a.46.46 0 0 0-.18-.18.5.5 0 0 0-.25-.07.6.6 0 0 0-.2.04.48.48 0 0 0-.23.16.67.67 0 0 0-.05.07h-.24l.12-1.27h1.24v.24h-1.02l-.07.75h.02c.03-.05.07-.09.12-.12.05-.04.1-.06.16-.08a.7.7 0 0 1 .56.07c.11.06.2.15.26.26.06.11.09.24.09.39 0 .15-.03.28-.1.4a.7.7 0 0 1-.27.26.8.8 0 0 1-.4.1Zm1.97-.02a1 1 0 0 1-.41-.08.7.7 0 0 1-.29-.22.56.56 0 0 1-.1-.33.55.55 0 0 1 .23-.46c.07-.05.15-.1.25-.11v-.01a.6.6 0 0 1-.3-.19.5.5 0 0 1-.01-.6.63.63 0 0 1 .26-.21c.11-.05.24-.08.37-.08.14 0 .27.03.38.08.1.05.2.12.26.2.06.1.09.2.09.3 0 .12-.04.22-.1.31a.58.58 0 0 1-.3.19.61.61 0 0 1 .42.32c.04.08.06.16.06.25 0 .13-.03.24-.1.34a.69.69 0 0 1-.29.22 1 1 0 0 1-.42.08Zm0-.24c.1 0 .2-.02.27-.05a.46.46 0 0 0 .2-.15.36.36 0 0 0 .06-.21.36.36 0 0 0-.07-.22.45.45 0 0 0-.18-.15.65.65 0 0 0-.28-.05c-.1 0-.19.02-.27.05a.46.46 0 0 0-.18.15.37.37 0 0 0-.07.22c0 .08.02.15.07.21.04.06.1.11.18.15.08.03.17.05.27.05Zm0-1.07c.1 0 .17-.02.24-.05a.39.39 0 0 0 .16-.13.33.33 0 0 0 .06-.2.33.33 0 0 0-.06-.19.38.38 0 0 0-.16-.12.55.55 0 0 0-.24-.05.55.55 0 0 0-.23.05.37.37 0 0 0-.16.12.33.33 0 0 0-.06.2c0 .07.02.13.06.19.04.05.1.1.16.13.07.03.14.05.23.05Zm1.37 1.3a.2.2 0 0 1-.2-.2c0-.06.02-.11.06-.15a.2.2 0 0 1 .14-.06c.06 0 .1.02.14.06a.2.2 0 0 1 .06.14.2.2 0 0 1-.06.14.2.2 0 0 1-.14.06Zm1.33.03a.65.65 0 0 1-.42-.14.9.9 0 0 1-.26-.4c-.07-.18-.1-.39-.1-.62 0-.24.03-.45.1-.62a.9.9 0 0 1 .26-.4c.12-.1.26-.15.43-.15.16 0 .3.05.42.15.11.09.2.22.26.4.07.17.1.38.1.61 0 .24-.03.45-.1.62a.88.88 0 0 1-.26.4.65.65 0 0 1-.43.15Zm0-.24c.11 0 .2-.04.28-.12a.72.72 0 0 0 .17-.31c.04-.14.06-.3.06-.5 0-.19-.02-.35-.06-.48a.7.7 0 0 0-.17-.32.37.37 0 0 0-.27-.11c-.11 0-.2.03-.28.1a.72.72 0 0 0-.17.33c-.04.13-.06.3-.06.48 0 .2.02.36.06.5.04.13.1.24.17.31.08.08.17.12.27.12Zm1.99.24a.65.65 0 0 1-.42-.14.89.89 0 0 1-.27-.4c-.06-.18-.1-.39-.1-.62 0-.24.04-.45.1-.62.06-.18.15-.31.27-.4.11-.1.25-.15.42-.15.16 0 .3.05.42.15.12.09.2.22.27.4.06.17.1.38.1.61 0 .24-.04.45-.1.62a.88.88 0 0 1-.27.4.65.65 0 0 1-.42.15Zm0-.24c.1 0 .2-.04.27-.12a.72.72 0 0 0 .18-.31c.04-.14.06-.3.06-.5 0-.19-.02-.35-.06-.48a.7.7 0 0 0-.18-.32.37.37 0 0 0-.27-.11c-.1 0-.2.03-.27.1a.73.73 0 0 0-.18.33c-.04.13-.06.3-.06.48 0 .2.02.36.06.5.04.13.1.24.18.31.07.08.16.12.27.12ZM375.58 53.12a.8.8 0 0 1-.37-.08.66.66 0 0 1-.37-.54v-.02h.26v.01a.42.42 0 0 0 .25.33c.07.04.14.05.23.05.1 0 .19-.02.26-.06.08-.04.13-.1.18-.18a.54.54 0 0 0 .06-.27c0-.1-.02-.19-.06-.26a.46.46 0 0 0-.18-.18.5.5 0 0 0-.25-.07.6.6 0 0 0-.2.04.48.48 0 0 0-.23.16.67.67 0 0 0-.05.07h-.24l.12-1.27h1.24v.24h-1.02l-.07.76h.02c.03-.05.07-.1.12-.13l.16-.08a.7.7 0 0 1 .56.07c.11.07.2.15.26.26.06.12.09.24.09.39 0 .15-.03.28-.1.4a.7.7 0 0 1-.27.26.8.8 0 0 1-.4.1Zm2 0c-.1 0-.2-.02-.3-.06a.74.74 0 0 1-.27-.19.95.95 0 0 1-.2-.34 1.65 1.65 0 0 1-.06-.53c0-.26.03-.47.1-.65a.88.88 0 0 1 .29-.41c.13-.1.28-.14.46-.14.12 0 .23.02.33.06a.67.67 0 0 1 .4.48v.02h-.28v-.02a.44.44 0 0 0-.25-.26.51.51 0 0 0-.2-.04.46.46 0 0 0-.33.12.7.7 0 0 0-.19.31 1.7 1.7 0 0 0-.07.43v.08l.07.37c0 .1.02.19.06.27.05.07.1.14.18.19.08.04.16.06.26.06a.49.49 0 0 0 .43-.25.51.51 0 0 0 .07-.26c0-.1-.02-.19-.07-.26a.45.45 0 0 0-.17-.18.5.5 0 0 0-.26-.07c-.1 0-.18.02-.26.06a.49.49 0 0 0-.24.44h-.1v-.4h.06a.61.61 0 0 1 .32-.3.71.71 0 0 1 .27-.04c.14 0 .26.03.37.1.11.06.2.15.26.26.06.11.1.24.1.38 0 .15-.04.28-.1.4a.74.74 0 0 1-.28.27.8.8 0 0 1-.4.1Zm1.33-.04a.2.2 0 0 1-.14-.06.2.2 0 0 1-.06-.14c0-.05.02-.1.06-.14a.2.2 0 0 1 .14-.06c.06 0 .1.02.14.06a.2.2 0 0 1 .06.14.2.2 0 0 1-.06.14.2.2 0 0 1-.14.06Zm1.34.04a.65.65 0 0 1-.42-.14.89.89 0 0 1-.27-.4c-.06-.18-.1-.38-.1-.62s.04-.45.1-.62c.06-.18.15-.3.27-.4.11-.1.25-.14.42-.14.16 0 .3.04.42.14s.2.22.27.4c.06.17.1.38.1.61 0 .25-.04.45-.1.63a.88.88 0 0 1-.27.4.65.65 0 0 1-.42.14Zm0-.24c.1 0 .2-.04.27-.12a.72.72 0 0 0 .18-.31c.04-.14.06-.3.06-.5 0-.18-.02-.35-.06-.48a.7.7 0 0 0-.18-.32.37.37 0 0 0-.27-.11c-.1 0-.2.04-.27.11a.73.73 0 0 0-.18.32c-.04.13-.06.3-.06.48 0 .2.02.36.06.5.04.13.1.24.18.31.07.08.16.12.27.12Zm1.98.24a.65.65 0 0 1-.42-.14.9.9 0 0 1-.27-.4c-.06-.18-.09-.38-.09-.62s.03-.45.1-.62a.9.9 0 0 1 .26-.4c.12-.1.26-.14.42-.14.17 0 .3.04.42.14s.21.22.27.4c.07.17.1.38.1.61 0 .25-.03.45-.1.63a.89.89 0 0 1-.27.4.65.65 0 0 1-.42.14Zm0-.24c.1 0 .2-.04.27-.12a.72.72 0 0 0 .18-.31c.04-.14.06-.3.06-.5 0-.18-.02-.35-.06-.48a.7.7 0 0 0-.18-.32.37.37 0 0 0-.27-.11c-.1 0-.2.04-.27.11a.72.72 0 0 0-.17.32c-.04.13-.06.3-.06.48 0 .2.02.36.06.5.04.13.1.24.17.31.08.08.17.12.27.12ZM375.58 66.79a.8.8 0 0 1-.37-.08.66.66 0 0 1-.37-.54v-.02h.26v.01a.42.42 0 0 0 .25.33.51.51 0 0 0 .5-.01c.07-.04.12-.1.17-.18a.54.54 0 0 0 .06-.27c0-.1-.02-.18-.06-.26a.46.46 0 0 0-.18-.18.5.5 0 0 0-.25-.06.6.6 0 0 0-.2.03.48.48 0 0 0-.23.16.68.68 0 0 0-.05.07h-.24l.12-1.27h1.24v.25h-1.02l-.07.75h.02c.03-.05.07-.1.12-.13l.16-.08a.7.7 0 0 1 .56.07c.11.07.2.15.26.27.06.1.09.23.09.38s-.03.28-.1.4a.7.7 0 0 1-.27.26.8.8 0 0 1-.4.1Zm2.23-.05v-.46h-1.08v-.25l.18-.3.2-.32.19-.3.19-.3.19-.3h.4v1.52h.31v.25h-.31v.46h-.27Zm-.8-.7h.8v-1.26h-.02l-.15.23-.16.25-.16.25-.16.25-.15.25v.02Zm1.93.71a.2.2 0 0 1-.15-.06.2.2 0 0 1-.06-.14c0-.05.02-.1.06-.14a.2.2 0 0 1 .14-.06c.06 0 .1.02.15.06a.2.2 0 0 1 .06.14.2.2 0 0 1-.06.14.2.2 0 0 1-.14.06Zm1.33.04a.65.65 0 0 1-.42-.14.9.9 0 0 1-.27-.4c-.06-.18-.1-.38-.1-.62s.04-.45.1-.62a.9.9 0 0 1 .27-.4c.12-.1.26-.14.42-.14.16 0 .3.04.42.14s.2.23.27.4c.06.17.1.38.1.62s-.04.44-.1.62a.9.9 0 0 1-.27.4.65.65 0 0 1-.42.14Zm0-.24c.1 0 .2-.04.27-.11a.72.72 0 0 0 .18-.32c.04-.14.06-.3.06-.5 0-.18-.02-.35-.06-.48a.7.7 0 0 0-.18-.32.37.37 0 0 0-.27-.11c-.1 0-.2.04-.27.11a.72.72 0 0 0-.17.32c-.04.13-.06.3-.06.49s.02.35.06.49c.04.14.1.24.17.32.07.07.17.1.27.1Zm1.98.24a.65.65 0 0 1-.42-.14.9.9 0 0 1-.26-.4c-.07-.18-.1-.38-.1-.62s.03-.45.1-.62a.9.9 0 0 1 .26-.4c.12-.1.26-.14.42-.14.17 0 .3.04.43.14.11.1.2.23.26.4.07.17.1.38.1.62s-.03.44-.1.62a.88.88 0 0 1-.26.4.65.65 0 0 1-.43.14Zm0-.24c.11 0 .2-.04.28-.11a.72.72 0 0 0 .17-.32c.04-.14.06-.3.06-.5 0-.18-.02-.35-.06-.48a.7.7 0 0 0-.17-.32.37.37 0 0 0-.28-.11c-.1 0-.2.04-.27.11a.72.72 0 0 0-.17.32c-.04.13-.06.3-.06.49s.02.35.06.49c.04.14.1.24.17.32.08.07.17.1.27.1ZM375.58 80.46a.8.8 0 0 1-.37-.08.66.66 0 0 1-.37-.54v-.02h.26v.01a.42.42 0 0 0 .25.33c.07.04.14.06.23.06.1 0 .19-.03.26-.07.08-.04.13-.1.18-.18a.54.54 0 0 0 .06-.27c0-.1-.02-.18-.06-.26a.46.46 0 0 0-.18-.18.5.5 0 0 0-.25-.06.6.6 0 0 0-.2.03.48.48 0 0 0-.23.16.67.67 0 0 0-.05.07h-.24l.12-1.27h1.24v.25h-1.02l-.07.75h.02c.03-.05.07-.1.12-.13l.16-.08a.7.7 0 0 1 .56.07c.11.07.2.15.26.27.06.1.09.23.09.38s-.03.28-.1.4a.7.7 0 0 1-.27.26.8.8 0 0 1-.4.1Zm1.22-.05v-.2l.75-.8a5.07 5.07 0 0 0 .33-.44.47.47 0 0 0 .03-.18.42.42 0 0 0-.05-.21.37.37 0 0 0-.14-.15.44.44 0 0 0-.23-.05.47.47 0 0 0-.23.05.38.38 0 0 0-.15.16.45.45 0 0 0-.06.22h-.27c0-.13.03-.24.1-.35.06-.1.14-.18.25-.24a.8.8 0 0 1 .38-.08c.13 0 .25.02.35.08.1.05.19.12.25.22s.09.2.09.32c0 .08-.02.17-.05.24-.03.08-.08.17-.15.26l-.31.35-.58.6.07-.13v.12l-.07-.04h1.12v.25h-1.43Zm2.07.01a.2.2 0 0 1-.14-.06.2.2 0 0 1-.06-.14c0-.05.02-.1.06-.14a.2.2 0 0 1 .14-.06c.06 0 .1.02.14.06a.2.2 0 0 1 .06.14.2.2 0 0 1-.06.14.2.2 0 0 1-.14.06Zm1.34.04a.65.65 0 0 1-.43-.14.89.89 0 0 1-.26-.4c-.07-.18-.1-.38-.1-.62s.03-.45.1-.62c.06-.17.15-.3.26-.4.12-.1.26-.14.43-.14.16 0 .3.04.42.14.11.1.2.23.27.4.06.17.1.38.1.62s-.04.44-.1.62a.89.89 0 0 1-.27.4.65.65 0 0 1-.42.14Zm0-.24c.1 0 .2-.04.27-.11a.72.72 0 0 0 .17-.32c.04-.14.06-.3.06-.5 0-.18-.02-.35-.06-.48a.7.7 0 0 0-.17-.32.37.37 0 0 0-.27-.11c-.11 0-.2.04-.28.11a.72.72 0 0 0-.17.32c-.04.13-.06.3-.06.49s.02.35.06.49c.04.14.1.24.17.32.08.07.17.1.28.1Zm1.98.24a.65.65 0 0 1-.42-.14.9.9 0 0 1-.27-.4c-.06-.18-.1-.38-.1-.62s.04-.45.1-.62a.9.9 0 0 1 .27-.4c.12-.1.25-.14.42-.14.16 0 .3.04.42.14s.2.23.27.4c.06.17.1.38.1.62s-.04.44-.1.62a.89.89 0 0 1-.27.4.65.65 0 0 1-.42.14Zm0-.24c.1 0 .2-.04.27-.11a.73.73 0 0 0 .18-.32c.04-.14.06-.3.06-.5 0-.18-.02-.35-.06-.48a.72.72 0 0 0-.18-.32.37.37 0 0 0-.27-.11c-.1 0-.2.04-.27.11a.72.72 0 0 0-.18.32c-.04.13-.06.3-.06.49s.02.35.06.49c.05.14.1.24.18.32.07.07.16.1.27.1ZM375.58 94.13a.8.8 0 0 1-.37-.08.66.66 0 0 1-.37-.54v-.02h.26v.02a.42.42 0 0 0 .25.33c.07.03.14.05.23.05.1 0 .19-.03.26-.07.08-.04.13-.1.18-.18a.54.54 0 0 0 .06-.26c0-.1-.02-.2-.06-.27a.46.46 0 0 0-.18-.18.5.5 0 0 0-.25-.06.6.6 0 0 0-.2.03.48.48 0 0 0-.23.16.67.67 0 0 0-.05.07h-.24l.12-1.27h1.24v.25h-1.02l-.07.75h.02c.03-.05.07-.1.12-.13l.16-.08a.7.7 0 0 1 .56.07c.11.07.2.16.26.27.06.1.09.23.09.38s-.03.28-.1.4a.7.7 0 0 1-.27.26.8.8 0 0 1-.4.1Zm1.96 0a.65.65 0 0 1-.42-.14.89.89 0 0 1-.27-.4c-.06-.18-.1-.38-.1-.62s.04-.45.1-.62c.06-.17.15-.3.27-.4.11-.1.25-.14.42-.14.16 0 .3.04.42.14s.2.23.27.4c.06.17.1.38.1.62s-.04.44-.1.62a.88.88 0 0 1-.27.4.65.65 0 0 1-.42.14Zm0-.24c.1 0 .2-.04.27-.11a.72.72 0 0 0 .18-.32c.04-.14.06-.3.06-.49 0-.2-.02-.35-.06-.5a.7.7 0 0 0-.18-.3.37.37 0 0 0-.27-.12c-.1 0-.2.04-.27.11a.72.72 0 0 0-.18.32c-.04.14-.06.3-.06.49s.02.35.06.49c.04.14.1.24.18.32.07.07.16.1.27.1Zm1.34.2a.2.2 0 0 1-.14-.05.2.2 0 0 1-.06-.15c0-.05.02-.1.06-.14a.2.2 0 0 1 .14-.06c.05 0 .1.02.14.06a.2.2 0 0 1 .06.14.2.2 0 0 1-.06.15.2.2 0 0 1-.14.05Zm1.33.04a.65.65 0 0 1-.42-.14.89.89 0 0 1-.27-.4c-.06-.18-.1-.38-.1-.62s.04-.45.1-.62c.06-.17.15-.3.27-.4.12-.1.26-.14.42-.14.17 0 .3.04.42.14s.21.23.27.4c.07.17.1.38.1.62s-.03.44-.1.62a.88.88 0 0 1-.27.4.65.65 0 0 1-.42.14Zm0-.24c.1 0 .2-.04.27-.11a.72.72 0 0 0 .18-.32c.04-.14.06-.3.06-.49 0-.2-.02-.35-.06-.5a.7.7 0 0 0-.18-.3.37.37 0 0 0-.27-.12c-.1 0-.2.04-.27.11a.73.73 0 0 0-.17.32c-.04.14-.06.3-.06.49s.02.35.06.49c.04.14.1.24.17.32.07.07.17.1.27.1Zm1.99.24a.65.65 0 0 1-.43-.14.89.89 0 0 1-.26-.4c-.07-.18-.1-.38-.1-.62s.03-.45.1-.62c.06-.17.15-.3.26-.4.12-.1.26-.14.43-.14.16 0 .3.04.42.14.11.1.2.23.27.4.06.17.1.38.1.62s-.04.44-.1.62a.89.89 0 0 1-.27.4.65.65 0 0 1-.42.14Zm0-.24c.1 0 .2-.04.27-.11a.72.72 0 0 0 .17-.32c.04-.14.06-.3.06-.49 0-.2-.02-.35-.06-.5a.7.7 0 0 0-.17-.3.37.37 0 0 0-.27-.12c-.11 0-.2.04-.28.11a.72.72 0 0 0-.17.32c-.04.14-.06.3-.06.49s.02.35.06.49c.04.14.1.24.17.32.08.07.17.1.28.1ZM375.86 107.75v-.46h-1.08v-.25a63.04 63.04 0 0 1 .76-1.23l.2-.28h.4v1.51h.3v.25h-.3v.46h-.28Zm-.8-.7h.8v-1.27h-.01l-.16.24-.16.25-.16.25-.16.25-.15.25v.02Zm2.57.73c-.15 0-.3-.02-.41-.08a.7.7 0 0 1-.29-.22.56.56 0 0 1-.1-.33.55.55 0 0 1 .23-.46c.07-.05.15-.1.25-.11a.59.59 0 0 1-.3-.2.5.5 0 0 1-.01-.6.64.64 0 0 1 .26-.21c.11-.05.24-.08.37-.08.14 0 .27.03.38.08.1.05.2.12.26.2.06.1.09.2.09.3 0 .12-.04.23-.1.31a.58.58 0 0 1-.3.2.6.6 0 0 1 .42.31c.04.08.06.16.06.25 0 .13-.03.24-.1.34a.68.68 0 0 1-.29.22c-.12.06-.26.08-.42.08Zm0-.24c.1 0 .2-.01.27-.05a.47.47 0 0 0 .2-.14.36.36 0 0 0 .06-.22.36.36 0 0 0-.07-.22.45.45 0 0 0-.18-.14.65.65 0 0 0-.28-.06c-.1 0-.19.02-.27.06a.46.46 0 0 0-.18.14.37.37 0 0 0-.07.22c0 .08.02.15.07.22.04.06.1.1.18.14.08.04.17.05.27.05Zm0-1.07c.1 0 .17-.02.24-.05a.39.39 0 0 0 .16-.13.33.33 0 0 0 .06-.19.33.33 0 0 0-.06-.2.37.37 0 0 0-.16-.12.55.55 0 0 0-.24-.05.54.54 0 0 0-.23.05.36.36 0 0 0-.16.13.33.33 0 0 0-.06.19c0 .07.02.14.06.2.04.05.1.09.16.12.07.03.15.05.23.05Zm1.37 1.3a.2.2 0 0 1-.2-.2c0-.06.02-.11.06-.15a.2.2 0 0 1 .28 0 .2.2 0 0 1 .06.14.2.2 0 0 1-.06.14.2.2 0 0 1-.14.06Zm1.33.03a.65.65 0 0 1-.42-.14.89.89 0 0 1-.26-.4c-.07-.18-.1-.38-.1-.62s.03-.45.1-.62c.06-.17.15-.3.26-.4.12-.1.26-.14.42-.14.17 0 .3.04.43.14.11.1.2.23.26.4.07.17.1.38.1.62s-.03.44-.1.62a.88.88 0 0 1-.26.4.65.65 0 0 1-.43.14Zm0-.24c.11 0 .2-.04.28-.11a.72.72 0 0 0 .17-.32c.04-.14.06-.3.06-.5 0-.18-.02-.34-.06-.48a.71.71 0 0 0-.17-.32.37.37 0 0 0-.28-.11c-.1 0-.2.04-.27.11a.72.72 0 0 0-.17.32c-.04.13-.06.3-.06.49s.02.35.06.49c.04.14.1.24.17.32.08.07.17.1.27.1Zm1.99.24a.65.65 0 0 1-.42-.14.89.89 0 0 1-.27-.4c-.06-.18-.1-.38-.1-.62s.04-.45.1-.62c.06-.17.15-.3.27-.4.11-.1.25-.14.42-.14.16 0 .3.04.42.14s.2.23.27.4c.06.17.1.38.1.62s-.04.44-.1.62a.88.88 0 0 1-.27.4.65.65 0 0 1-.42.14Zm0-.24c.1 0 .2-.04.27-.11a.72.72 0 0 0 .18-.32c.04-.14.06-.3.06-.5 0-.18-.02-.34-.06-.48a.71.71 0 0 0-.18-.32.37.37 0 0 0-.27-.11c-.1 0-.2.04-.27.11a.73.73 0 0 0-.18.32c-.04.13-.06.3-.06.49s.02.35.06.49c.04.14.1.24.18.32.07.07.16.1.27.1ZM375.86 121.42v-.46h-1.08v-.25l.19-.3a41.9 41.9 0 0 1 .57-.92l.2-.3h.4v1.52h.3v.25h-.3v.46h-.28Zm-.8-.7h.8v-1.26h-.01l-.16.23-.16.25-.16.25-.16.25-.15.25v.02Zm2.6.75c-.1 0-.2-.02-.3-.06a.74.74 0 0 1-.27-.19.95.95 0 0 1-.2-.34 1.66 1.66 0 0 1-.06-.53c0-.26.03-.47.1-.65a.87.87 0 0 1 .29-.41c.13-.1.28-.14.46-.14.12 0 .24.02.33.07a.67.67 0 0 1 .4.47v.02h-.28v-.01a.45.45 0 0 0-.45-.3.46.46 0 0 0-.33.11.7.7 0 0 0-.19.31 1.7 1.7 0 0 0-.07.43v.08l.07.37c0 .1.02.19.06.27.05.08.1.14.18.19.08.04.16.07.26.07a.49.49 0 0 0 .43-.26.5.5 0 0 0 .07-.26c0-.1-.02-.19-.07-.26a.45.45 0 0 0-.17-.18.5.5 0 0 0-.26-.07c-.1 0-.18.02-.26.07a.49.49 0 0 0-.24.43h-.1v-.4h.06a.57.57 0 0 1 .32-.3.7.7 0 0 1 .27-.04c.14 0 .26.03.37.1.11.06.2.15.26.26.06.11.1.24.1.38a.76.76 0 0 1-.38.67.8.8 0 0 1-.4.1Zm1.33-.04a.2.2 0 0 1-.14-.06.2.2 0 0 1-.06-.14c0-.05.02-.1.06-.14a.2.2 0 0 1 .14-.06c.06 0 .1.02.14.06a.2.2 0 0 1 .06.14.2.2 0 0 1-.06.14.2.2 0 0 1-.14.06Zm1.34.04a.65.65 0 0 1-.42-.14.89.89 0 0 1-.27-.4c-.06-.18-.1-.38-.1-.62s.04-.45.1-.62c.06-.17.15-.3.27-.4.11-.1.25-.14.42-.14.16 0 .3.04.42.14s.2.23.27.4c.06.17.1.38.1.62s-.04.44-.1.62a.88.88 0 0 1-.27.4.65.65 0 0 1-.42.14Zm0-.24c.1 0 .2-.04.27-.11a.72.72 0 0 0 .17-.32c.05-.14.07-.3.07-.49 0-.2-.02-.36-.06-.5a.71.71 0 0 0-.18-.3.37.37 0 0 0-.27-.12c-.1 0-.2.04-.27.11a.73.73 0 0 0-.18.32c-.04.14-.06.3-.06.49s.02.35.06.49c.04.14.1.24.18.32.07.07.16.1.27.1Zm1.98.24a.65.65 0 0 1-.42-.14.9.9 0 0 1-.27-.4c-.06-.18-.09-.38-.09-.62s.03-.45.1-.62a.9.9 0 0 1 .26-.4c.12-.1.26-.14.42-.14.17 0 .3.04.42.14s.21.23.27.4c.07.17.1.38.1.62s-.03.44-.1.62a.89.89 0 0 1-.27.4.65.65 0 0 1-.42.14Zm0-.24c.1 0 .2-.04.27-.11a.73.73 0 0 0 .18-.32c.04-.14.06-.3.06-.49 0-.2-.02-.36-.06-.5a.72.72 0 0 0-.18-.3.37.37 0 0 0-.27-.12c-.1 0-.2.04-.27.11a.72.72 0 0 0-.17.32c-.04.14-.06.3-.06.49s.02.35.06.49c.04.14.1.24.17.32.08.07.17.1.27.1ZM375.86 135.09v-.46h-1.08v-.25l.19-.3.18-.32.2-.3a89.65 89.65 0 0 1 .38-.59h.4v1.51h.32v.25h-.32v.46h-.27Zm-.8-.7h.8v-1.26h-.01l-.16.23-.16.25-.16.25-.16.26-.15.25v.01Zm2.83.7v-.46h-1.08v-.25l.18-.3.2-.32.19-.3.19-.3.19-.29h.4v1.51h.31v.25h-.31v.46h-.27Zm-.8-.7h.8v-1.26h-.02l-.15.23-.16.25-.16.25-.16.26-.15.25v.01Zm1.93.72a.2.2 0 0 1-.15-.06.2.2 0 0 1-.06-.15c0-.05.02-.1.06-.14a.2.2 0 0 1 .14-.05c.06 0 .1.01.15.05a.2.2 0 0 1 .05.15.2.2 0 0 1-.05.14.2.2 0 0 1-.15.05Zm1.33.03a.65.65 0 0 1-.42-.14.9.9 0 0 1-.27-.4c-.06-.17-.1-.38-.1-.62s.04-.44.1-.62a.9.9 0 0 1 .27-.4c.12-.1.26-.14.42-.14.16 0 .3.05.42.14.12.1.2.23.27.4.06.17.1.38.1.62s-.04.45-.1.62a.9.9 0 0 1-.27.4.65.65 0 0 1-.42.14Zm0-.24c.1 0 .2-.04.27-.11a.72.72 0 0 0 .18-.32c.04-.14.06-.3.06-.49 0-.2-.02-.35-.06-.49a.7.7 0 0 0-.18-.32.37.37 0 0 0-.27-.1c-.1 0-.2.03-.27.1a.71.71 0 0 0-.17.32c-.04.14-.06.3-.06.49s.02.35.06.49c.04.14.1.24.17.32.07.07.16.11.27.11Zm1.98.24a.65.65 0 0 1-.42-.14.9.9 0 0 1-.27-.4c-.06-.17-.09-.38-.09-.62s.03-.44.1-.62a.9.9 0 0 1 .26-.4c.12-.1.26-.14.42-.14.17 0 .3.05.43.14.11.1.2.23.26.4.07.17.1.38.1.62s-.03.45-.1.62a.88.88 0 0 1-.26.4.65.65 0 0 1-.43.14Zm0-.24c.11 0 .2-.04.28-.11a.72.72 0 0 0 .17-.32c.04-.14.06-.3.06-.49 0-.2-.02-.35-.06-.49a.7.7 0 0 0-.17-.32.37.37 0 0 0-.28-.1c-.1 0-.2.03-.27.1a.71.71 0 0 0-.17.32c-.04.14-.06.3-.06.49s.02.35.06.49c.04.14.1.24.17.32.08.07.17.11.27.11ZM375.86 148.76v-.46h-1.08v-.25a63.04 63.04 0 0 1 .38-.62l.19-.3a89.65 89.65 0 0 1 .38-.59h.4v1.51h.32v.25h-.32v.46h-.27Zm-.8-.7h.8v-1.26h-.01l-.16.23-.16.25-.16.25-.16.25-.15.25v.02Zm1.82.7v-.2l.75-.8a4.68 4.68 0 0 0 .33-.44.47.47 0 0 0 .03-.18.42.42 0 0 0-.05-.21.37.37 0 0 0-.14-.15.44.44 0 0 0-.23-.05.47.47 0 0 0-.23.05.4.4 0 0 0-.15.16.45.45 0 0 0-.06.22h-.27a.66.66 0 0 1 .35-.59.8.8 0 0 1 .38-.08c.13 0 .25.02.35.08.1.05.19.13.25.22.06.1.09.2.09.32 0 .09-.02.17-.05.24-.03.08-.08.17-.15.27l-.31.34-.58.6.07-.13v.13l-.07-.05h1.12v.25h-1.43Zm2.07.01a.2.2 0 0 1-.14-.05.2.2 0 0 1-.06-.15c0-.05.02-.1.06-.14a.2.2 0 0 1 .14-.06c.06 0 .1.02.14.06a.2.2 0 0 1 .06.14.2.2 0 0 1-.06.15.2.2 0 0 1-.14.05Zm1.34.04a.65.65 0 0 1-.43-.14.9.9 0 0 1-.26-.4c-.07-.18-.1-.38-.1-.62s.03-.45.1-.62c.06-.17.15-.3.26-.4.12-.1.26-.14.43-.14.16 0 .3.04.42.14.11.1.2.23.27.4.06.17.1.38.1.62s-.04.44-.1.62a.9.9 0 0 1-.27.4.65.65 0 0 1-.42.14Zm0-.24c.1 0 .2-.04.27-.11a.71.71 0 0 0 .17-.32c.04-.14.06-.3.06-.49 0-.2-.02-.35-.06-.5a.7.7 0 0 0-.17-.3.37.37 0 0 0-.27-.12c-.11 0-.2.04-.28.11a.71.71 0 0 0-.17.32c-.04.14-.06.3-.06.49s.02.35.06.49c.04.14.1.24.17.32.08.07.17.11.28.11Zm1.98.24a.65.65 0 0 1-.42-.14.9.9 0 0 1-.27-.4c-.06-.18-.1-.38-.1-.62s.04-.45.1-.62a.9.9 0 0 1 .27-.4c.11-.1.25-.14.42-.14.16 0 .3.04.42.14s.2.23.27.4c.06.17.1.38.1.62s-.04.44-.1.62a.9.9 0 0 1-.27.4.65.65 0 0 1-.42.14Zm0-.24c.1 0 .2-.04.27-.11a.72.72 0 0 0 .17-.32c.05-.14.07-.3.07-.49 0-.2-.02-.35-.06-.5a.71.71 0 0 0-.18-.3.37.37 0 0 0-.27-.12c-.1 0-.2.04-.27.11a.71.71 0 0 0-.18.32c-.03.14-.06.3-.06.49s.03.35.06.49c.05.14.1.24.18.32.07.07.16.11.27.11ZM375.86 162.43v-.46h-1.08v-.25l.19-.3.18-.32.2-.3.2-.3.18-.29h.4v1.51h.32v.25h-.32v.46h-.27Zm-.8-.7h.8v-1.26h-.01l-.16.23-.16.25-.16.25-.16.26-.15.25v.01Zm2.56.75a.65.65 0 0 1-.42-.14.9.9 0 0 1-.27-.4c-.06-.18-.1-.38-.1-.62s.04-.45.1-.62a.9.9 0 0 1 .27-.4c.11-.1.25-.14.42-.14.16 0 .3.05.42.14.12.1.2.23.27.4.06.17.1.38.1.62s-.04.44-.1.62a.88.88 0 0 1-.27.4.65.65 0 0 1-.42.14Zm0-.24c.1 0 .2-.04.27-.11a.72.72 0 0 0 .18-.32c.04-.14.06-.3.06-.49 0-.2-.02-.35-.06-.49a.7.7 0 0 0-.18-.32.37.37 0 0 0-.27-.1c-.1 0-.2.03-.27.1a.71.71 0 0 0-.18.32c-.04.14-.06.3-.06.49s.02.35.06.49c.04.14.1.24.18.32.07.07.16.11.27.11Zm1.34.2a.2.2 0 0 1-.2-.2c0-.05.02-.1.06-.14a.2.2 0 0 1 .14-.06c.05 0 .1.03.14.06a.2.2 0 0 1 0 .28.2.2 0 0 1-.14.06Zm1.33.04a.65.65 0 0 1-.42-.14.89.89 0 0 1-.27-.4c-.06-.18-.1-.38-.1-.62s.04-.45.1-.62c.06-.17.15-.3.27-.4.12-.1.26-.14.42-.14.17 0 .3.05.42.14.12.1.21.23.27.4.07.17.1.38.1.62s-.03.44-.1.62a.88.88 0 0 1-.27.4.65.65 0 0 1-.42.14Zm0-.24c.1 0 .2-.04.27-.11a.72.72 0 0 0 .18-.32c.04-.14.06-.3.06-.49 0-.2-.02-.35-.06-.49a.7.7 0 0 0-.18-.32.37.37 0 0 0-.27-.1c-.1 0-.2.03-.27.1a.72.72 0 0 0-.17.32c-.04.14-.06.3-.06.49s.02.35.06.49c.04.14.1.24.17.32.08.07.17.11.27.11Zm1.98.24a.65.65 0 0 1-.42-.14.89.89 0 0 1-.26-.4c-.07-.18-.1-.38-.1-.62s.03-.45.1-.62c.06-.17.15-.3.26-.4.12-.1.26-.14.42-.14.17 0 .31.05.43.14.11.1.2.23.27.4.06.17.1.38.1.62s-.04.44-.1.62a.89.89 0 0 1-.27.4.65.65 0 0 1-.43.14Zm0-.24c.11 0 .2-.04.28-.11a.72.72 0 0 0 .17-.32c.04-.14.06-.3.06-.49 0-.2-.02-.35-.06-.49a.7.7 0 0 0-.17-.32.37.37 0 0 0-.28-.1c-.1 0-.2.03-.27.1a.71.71 0 0 0-.17.32c-.04.14-.06.3-.06.49s.02.35.06.49c.04.14.1.24.17.32.08.07.17.11.27.11ZM375.6 176.14a.95.95 0 0 1-.4-.08.67.67 0 0 1-.27-.22.61.61 0 0 1-.11-.3v-.03h.26v.02c.01.07.04.13.08.19.05.06.1.1.18.13.08.03.17.05.26.05a.6.6 0 0 0 .26-.05.42.42 0 0 0 .17-.14.36.36 0 0 0 .06-.21c0-.14-.04-.25-.13-.32a.56.56 0 0 0-.37-.1h-.28v-.24h.26c.1 0 .17-.02.24-.05a.4.4 0 0 0 .16-.14.36.36 0 0 0 .05-.2.38.38 0 0 0-.04-.2.31.31 0 0 0-.15-.12.54.54 0 0 0-.23-.05.58.58 0 0 0-.23.05.38.38 0 0 0-.24.32v.01h-.27v-.01a.65.65 0 0 1 .12-.32c.06-.1.15-.16.25-.21.11-.05.23-.08.37-.08.14 0 .27.03.37.08.1.05.19.11.24.2.06.08.1.18.1.3a.49.49 0 0 1-.23.42.7.7 0 0 1-.25.1c.16.02.3.07.4.17.1.1.14.22.14.38 0 .13-.03.23-.1.33a.69.69 0 0 1-.27.23.9.9 0 0 1-.4.09Zm1.98 0c-.15 0-.3-.03-.41-.08a.7.7 0 0 1-.3-.23.55.55 0 0 1-.1-.33.55.55 0 0 1 .23-.46c.07-.05.16-.09.25-.11a.59.59 0 0 1-.29-.2.47.47 0 0 1-.1-.3.5.5 0 0 1 .09-.3.64.64 0 0 1 .26-.21.88.88 0 0 1 .37-.08c.14 0 .27.03.38.08.1.05.2.12.25.2.07.1.1.2.1.3 0 .13-.04.23-.11.32a.59.59 0 0 1-.29.18.62.62 0 0 1 .42.32c.04.08.06.17.06.26 0 .12-.04.23-.1.33a.68.68 0 0 1-.3.22c-.11.06-.25.09-.4.09Zm0-.24c.1 0 .2-.02.27-.06a.47.47 0 0 0 .19-.14.36.36 0 0 0 .07-.22.36.36 0 0 0-.07-.22.44.44 0 0 0-.19-.14.65.65 0 0 0-.27-.06c-.1 0-.2.02-.27.06a.45.45 0 0 0-.19.14.36.36 0 0 0-.06.22c0 .08.02.15.06.22.05.06.11.1.2.14.07.04.16.06.26.06Zm0-1.08c.1 0 .17-.01.24-.05a.38.38 0 0 0 .16-.13.33.33 0 0 0 .05-.19.33.33 0 0 0-.05-.2.36.36 0 0 0-.16-.12.54.54 0 0 0-.24-.05.54.54 0 0 0-.23.05.36.36 0 0 0-.16.13.33.33 0 0 0-.06.19c0 .07.02.14.06.2.04.05.09.1.16.12.06.03.14.05.23.05Zm1.37 1.3a.2.2 0 0 1-.2-.2c0-.06.02-.1.06-.15a.2.2 0 0 1 .14-.06c.05 0 .1.03.14.06a.2.2 0 0 1 .06.14.2.2 0 0 1-.2.2Zm1.33.03a.65.65 0 0 1-.42-.14.9.9 0 0 1-.27-.4c-.06-.18-.09-.38-.09-.62s.03-.45.1-.62a.9.9 0 0 1 .26-.4c.12-.1.26-.14.42-.14.17 0 .3.04.42.14s.21.23.27.4c.07.17.1.38.1.62s-.03.44-.1.62a.89.89 0 0 1-.27.4.65.65 0 0 1-.42.14Zm0-.24c.1 0 .2-.04.28-.11a.73.73 0 0 0 .17-.32c.04-.14.06-.3.06-.49 0-.2-.02-.35-.06-.49a.72.72 0 0 0-.18-.32.38.38 0 0 0-.27-.1c-.1 0-.2.03-.27.1a.72.72 0 0 0-.17.32c-.04.14-.06.3-.06.49s.02.35.06.49c.04.14.1.24.17.32.08.07.17.11.27.11Zm1.99.24a.65.65 0 0 1-.42-.14.9.9 0 0 1-.27-.4c-.06-.18-.1-.38-.1-.62s.03-.45.1-.62a.9.9 0 0 1 .27-.4c.11-.1.25-.14.42-.14.16 0 .3.04.42.14s.2.23.27.4c.06.17.1.38.1.62s-.04.44-.1.62a.89.89 0 0 1-.27.4.65.65 0 0 1-.42.14Zm0-.24c.1 0 .2-.04.27-.11a.72.72 0 0 0 .17-.32c.04-.14.06-.3.06-.49 0-.2-.02-.35-.06-.49a.71.71 0 0 0-.17-.32.37.37 0 0 0-.27-.1c-.1 0-.2.03-.28.1a.72.72 0 0 0-.17.32c-.04.14-.06.3-.06.49s.02.35.06.49c.04.14.1.24.17.32.08.07.17.11.28.11ZM375.6 189.8a.95.95 0 0 1-.4-.07.62.62 0 0 1-.38-.53v-.02h.26v.02c.01.07.04.14.08.2.05.05.1.09.18.12.08.03.17.05.26.05a.6.6 0 0 0 .26-.05.42.42 0 0 0 .17-.14.36.36 0 0 0 .06-.21.38.38 0 0 0-.13-.32.57.57 0 0 0-.37-.1h-.28v-.24h.26c.1 0 .17-.02.24-.05a.4.4 0 0 0 .16-.14.36.36 0 0 0 .05-.2.37.37 0 0 0-.04-.2.32.32 0 0 0-.15-.12.56.56 0 0 0-.23-.05.58.58 0 0 0-.23.05.38.38 0 0 0-.24.32v.01h-.27v-.01a.65.65 0 0 1 .12-.32c.06-.09.15-.16.25-.21.11-.05.23-.08.37-.08.14 0 .27.03.37.08.1.05.19.11.24.2.06.09.1.18.1.3a.49.49 0 0 1-.23.42.67.67 0 0 1-.25.1c.16.02.3.07.4.17.1.1.14.22.14.38 0 .13-.03.24-.1.33a.69.69 0 0 1-.27.23.9.9 0 0 1-.4.09Zm2 .02c-.1 0-.2-.02-.3-.06a.73.73 0 0 1-.26-.19.95.95 0 0 1-.2-.34 1.69 1.69 0 0 1-.07-.53c0-.25.04-.47.1-.65a.87.87 0 0 1 .3-.4c.12-.1.28-.15.46-.15.12 0 .23.02.33.07.1.04.19.1.25.19.07.08.12.18.14.28v.03h-.27v-.02a.46.46 0 0 0-.1-.16.4.4 0 0 0-.16-.1.5.5 0 0 0-.2-.04.46.46 0 0 0-.32.12.7.7 0 0 0-.2.3c-.03.14-.06.28-.06.43v.09l.06.37c0 .1.03.18.07.26a.48.48 0 0 0 .44.26.49.49 0 0 0 .43-.25.51.51 0 0 0 .07-.27c0-.1-.03-.18-.07-.26a.45.45 0 0 0-.17-.18.5.5 0 0 0-.26-.07c-.1 0-.18.03-.26.07a.48.48 0 0 0-.25.43h-.09v-.4h.06a.54.54 0 0 1 .12-.16c.05-.06.12-.1.2-.13a.73.73 0 0 1 .27-.05c.14 0 .26.03.37.1.11.06.2.15.26.26.06.12.1.24.1.39a.76.76 0 0 1-.38.66.8.8 0 0 1-.4.1Zm1.34-.03a.2.2 0 0 1-.14-.06.2.2 0 0 1-.06-.14c0-.06.02-.1.06-.15a.2.2 0 0 1 .14-.05c.06 0 .1.02.14.05a.2.2 0 0 1 .06.15.2.2 0 0 1-.06.14.2.2 0 0 1-.14.06Zm1.34.03a.65.65 0 0 1-.42-.14.9.9 0 0 1-.27-.4c-.06-.17-.1-.38-.1-.62s.03-.44.1-.62a.9.9 0 0 1 .27-.4c.11-.1.25-.14.42-.14.16 0 .3.05.42.14.12.1.2.23.27.4.06.18.1.38.1.62s-.04.45-.1.62a.89.89 0 0 1-.27.4.65.65 0 0 1-.42.14Zm0-.24c.1 0 .2-.04.27-.11a.72.72 0 0 0 .17-.32c.04-.14.06-.3.06-.49s-.02-.35-.06-.49a.71.71 0 0 0-.17-.32.37.37 0 0 0-.27-.1c-.1 0-.2.03-.28.1a.72.72 0 0 0-.17.32c-.04.14-.06.3-.06.49s.02.35.06.5c.04.13.1.23.17.3.08.08.17.12.28.12Zm1.98.24a.65.65 0 0 1-.42-.14.9.9 0 0 1-.27-.4c-.06-.17-.1-.38-.1-.62s.04-.44.1-.62a.9.9 0 0 1 .27-.4c.12-.1.26-.14.42-.14.16 0 .3.05.42.14.12.1.2.23.27.4.06.18.1.38.1.62s-.04.45-.1.62a.89.89 0 0 1-.27.4.64.64 0 0 1-.42.14Zm0-.24c.1 0 .2-.04.27-.11a.72.72 0 0 0 .18-.32c.04-.14.06-.3.06-.49s-.02-.35-.06-.49a.71.71 0 0 0-.18-.32.37.37 0 0 0-.27-.1c-.1 0-.2.03-.27.1a.72.72 0 0 0-.17.32c-.04.14-.06.3-.06.49s.02.35.06.5c.04.13.1.23.17.3.07.08.16.12.27.12ZM18.41 210.55a.73.73 0 0 1-.26-.04.52.52 0 0 1-.31-.3.68.68 0 0 1-.05-.21v-.03h.27v.02c0 .05.03.1.05.15a.3.3 0 0 0 .12.12c.05.02.1.04.18.04.12 0 .22-.04.28-.1.06-.08.1-.18.1-.32v-1.6h.27v1.6c0 .14-.02.26-.07.36a.54.54 0 0 1-.23.23.73.73 0 0 1-.35.08Zm1.64-.02c-.1 0-.2-.02-.28-.06a.49.49 0 0 1-.2-.17.47.47 0 0 1-.07-.26c0-.1.02-.19.07-.26a.47.47 0 0 1 .2-.16c.1-.04.2-.07.33-.08l.61-.03v.21l-.58.04a.5.5 0 0 0-.27.08.23.23 0 0 0-.09.19c0 .09.03.15.1.2a.4.4 0 0 0 .24.07c.09 0 .17-.02.24-.06a.43.43 0 0 0 .17-.15.38.38 0 0 0 .06-.2v-.52c0-.1-.03-.19-.1-.24-.06-.05-.15-.08-.27-.08a.5.5 0 0 0-.25.05.26.26 0 0 0-.13.15h-.27a.45.45 0 0 1 .11-.23.57.57 0 0 1 .23-.15c.1-.04.2-.06.31-.06.14 0 .25.03.35.07.1.04.16.1.21.19.05.08.07.18.07.3v1.13h-.26v-.24h-.03a.57.57 0 0 1-.3.24.67.67 0 0 1-.2.03Zm1.28-.03v-1.66h.27v.25h.03c.04-.09.1-.16.18-.2a.56.56 0 0 1 .3-.08c.19 0 .33.06.43.16.1.1.15.26.15.46v1.07h-.27v-1c0-.16-.03-.27-.1-.34-.06-.07-.15-.11-.29-.11a.44.44 0 0 0-.23.06.39.39 0 0 0-.15.16.55.55 0 0 0-.05.25v.98h-.27ZM43.7 210.5v-2.22h1.35v.25h-1.07v.76h.98v.25h-.98v.96h-.28Zm2.45.03a.7.7 0 0 1-.67-.4c-.06-.13-.1-.28-.1-.45 0-.18.04-.33.1-.45a.7.7 0 0 1 .65-.41.7.7 0 0 1 .39.1c.1.07.19.17.25.29.05.12.08.27.08.43v.1h-1.33v-.2h1.2l-.14.19v-.1a.77.77 0 0 0-.05-.33.41.41 0 0 0-.17-.19.44.44 0 0 0-.23-.06.44.44 0 0 0-.24.07.45.45 0 0 0-.17.19.72.72 0 0 0-.06.31v.11c0 .12.02.22.06.3a.44.44 0 0 0 .43.26c.08 0 .14 0 .2-.03l.13-.08a.29.29 0 0 0 .08-.1h.27a.6.6 0 0 1-.22.3.73.73 0 0 1-.2.11.9.9 0 0 1-.26.04Zm1.94 0a.62.62 0 0 1-.39-.14.57.57 0 0 1-.12-.15h-.03v.26h-.27v-2.32h.27v.92h.03a.5.5 0 0 1 .12-.15.64.64 0 0 1 .4-.14c.13 0 .26.04.36.11.1.07.18.17.24.3.06.13.09.28.09.45 0 .18-.03.33-.09.46a.64.64 0 0 1-.6.4Zm-.06-.24c.1 0 .19-.02.26-.07a.47.47 0 0 0 .17-.22c.03-.09.05-.2.05-.33a.85.85 0 0 0-.05-.33.44.44 0 0 0-.42-.29.44.44 0 0 0-.44.29c-.03.1-.05.2-.05.33s.02.24.05.33c.04.1.1.17.17.22.07.05.16.07.26.07ZM69.47 210.5v-2.22h.32l.76 1.85h.02l.76-1.85h.32v2.22h-.26v-1.7h-.13l.31-.46-.9 2.16h-.23l-.89-2.16.31.47h-.14v1.69h-.25Zm3.17.03c-.1 0-.2-.02-.28-.06a.49.49 0 0 1-.2-.17.47.47 0 0 1-.07-.26c0-.1.02-.19.07-.26a.47.47 0 0 1 .2-.16c.1-.04.2-.07.33-.08l.61-.03v.21l-.58.04a.5.5 0 0 0-.27.08.23.23 0 0 0-.09.19c0 .09.03.15.1.2a.4.4 0 0 0 .24.07c.09 0 .17-.02.24-.06a.43.43 0 0 0 .17-.15.38.38 0 0 0 .06-.2v-.52c0-.1-.03-.19-.1-.24-.06-.05-.15-.08-.28-.08a.5.5 0 0 0-.24.05.26.26 0 0 0-.13.15h-.27a.45.45 0 0 1 .11-.23.57.57 0 0 1 .23-.15c.1-.04.2-.06.31-.06.14 0 .25.03.35.07.1.04.16.1.21.19.05.08.07.18.07.3v1.13h-.26v-.24h-.03a.57.57 0 0 1-.3.24.67.67 0 0 1-.2.03Zm1.28-.03v-1.66h.27v.25h.03a.4.4 0 0 1 .16-.2.52.52 0 0 1 .28-.08h.07l.06.01v.26a.8.8 0 0 0-.16-.01.5.5 0 0 0-.23.05.39.39 0 0 0-.15.14.4.4 0 0 0-.06.21v1.03h-.27ZM95.06 210.5l.81-2.22h.22v.36h-.1l-.64 1.86h-.3Zm.37-.63.08-.24h1l.1.24h-1.18Zm1.24.63-.65-1.86v-.36h.13l.82 2.22h-.3Zm.65.55v-2.2h.27v.26h.02a.55.55 0 0 1 .3-.26.62.62 0 0 1 .22-.04c.14 0 .26.04.37.11.1.07.18.17.24.3.06.13.08.28.08.45 0 .18-.02.33-.08.46a.64.64 0 0 1-.6.4.6.6 0 0 1-.4-.14.5.5 0 0 1-.13-.15h-.02v.81h-.27Zm.75-.76c.1 0 .19-.02.26-.07a.47.47 0 0 0 .16-.22c.04-.09.06-.2.06-.33a.85.85 0 0 0-.06-.33.44.44 0 0 0-.42-.29.44.44 0 0 0-.43.29c-.04.1-.06.2-.06.33s.02.24.06.33c.04.1.1.17.17.22.07.05.16.07.26.07Zm1.17.21v-1.66h.27v.25h.03a.4.4 0 0 1 .16-.2.52.52 0 0 1 .28-.08.94.94 0 0 1 .13.01v.26a.8.8 0 0 0-.16-.01.5.5 0 0 0-.23.05.39.39 0 0 0-.15.14.4.4 0 0 0-.06.21v1.03h-.27ZM121 210.5v-2.22h.32l.76 1.85h.03l.75-1.85h.33v2.22h-.26v-1.7h-.14l.31-.46-.89 2.16h-.23l-.9-2.16.31.47h-.13v1.69H121Zm3.17.03c-.1 0-.2-.02-.28-.06a.46.46 0 0 1-.27-.43c0-.1.02-.19.07-.26a.47.47 0 0 1 .2-.16c.1-.04.2-.07.33-.08l.61-.03v.21l-.57.04a.5.5 0 0 0-.28.08.23.23 0 0 0-.09.19c0 .09.04.15.1.2a.4.4 0 0 0 .24.07c.1 0 .17-.02.24-.06a.42.42 0 0 0 .17-.15.38.38 0 0 0 .06-.2v-.52c0-.1-.03-.19-.1-.24-.05-.05-.15-.08-.27-.08a.5.5 0 0 0-.25.05.26.26 0 0 0-.12.15h-.27a.44.44 0 0 1 .1-.23.56.56 0 0 1 .23-.15c.1-.04.2-.06.32-.06.13 0 .25.03.34.07.1.04.16.1.21.19.05.08.08.18.08.3v1.13h-.27v-.24h-.03a.57.57 0 0 1-.29.24.67.67 0 0 1-.2.03Zm1.37.55a.64.64 0 0 1-.12 0v-.23a1.08 1.08 0 0 0 .11 0c.08.01.14 0 .19-.05a.4.4 0 0 0 .11-.2l.03-.1-.61-1.66h.29l.5 1.53-.1-.16h.13l-.1.16.5-1.53h.28l-.65 1.76c-.04.13-.09.22-.14.3a.4.4 0 0 1-.18.14.64.64 0 0 1-.24.04ZM147.24 210.55a.73.73 0 0 1-.26-.04.52.52 0 0 1-.19-.12.56.56 0 0 1-.12-.17.67.67 0 0 1-.05-.22v-.03h.27v.02c0 .05.03.1.05.15.03.05.07.09.12.12.04.02.1.04.18.04.12 0 .22-.04.28-.1.06-.08.1-.18.1-.32v-1.6h.27v1.6c0 .14-.02.26-.07.36a.55.55 0 0 1-.23.23.73.73 0 0 1-.35.08Zm1.74-.02a.64.64 0 0 1-.31-.07.46.46 0 0 1-.2-.21.8.8 0 0 1-.06-.33v-1.08h.27v1.01c0 .15.03.26.08.33.06.08.16.11.3.11.06 0 .13 0 .18-.03.06-.02.1-.05.14-.1a.4.4 0 0 0 .09-.14.64.64 0 0 0 .03-.2v-.98h.27v1.66h-.27v-.25h-.03a.46.46 0 0 1-.1.15.46.46 0 0 1-.17.1.66.66 0 0 1-.22.03Zm1.29-.03v-1.66h.26v.25h.03c.04-.09.1-.16.18-.2a.57.57 0 0 1 .3-.08c.19 0 .33.06.43.16.1.1.15.26.15.46v1.07h-.27v-1c0-.16-.03-.27-.1-.34-.06-.07-.15-.11-.28-.11a.44.44 0 0 0-.23.06.4.4 0 0 0-.16.16.56.56 0 0 0-.05.25v.98h-.26ZM173 210.55a.73.73 0 0 1-.25-.04.52.52 0 0 1-.31-.3.67.67 0 0 1-.06-.21v-.03h.28v.02c0 .05.02.1.05.15a.3.3 0 0 0 .11.12c.05.02.11.04.18.04.13 0 .22-.04.28-.1.07-.08.1-.18.1-.32v-1.6h.28v1.6c0 .14-.03.26-.08.36a.54.54 0 0 1-.22.23.72.72 0 0 1-.36.08Zm1.75-.02a.64.64 0 0 1-.32-.07.46.46 0 0 1-.2-.21.8.8 0 0 1-.05-.33v-1.08h.26v1.01c0 .15.03.26.09.33.06.08.15.11.28.11.08 0 .14 0 .2-.03.05-.02.1-.05.14-.1a.4.4 0 0 0 .08-.14.64.64 0 0 0 .03-.2v-.98h.27v1.66h-.27v-.25h-.02a.46.46 0 0 1-.11.15.46.46 0 0 1-.17.1.66.66 0 0 1-.21.03Zm1.3-.03v-2.32h.26v2.32h-.26ZM196.53 210.5l.82-2.22h.21v.36h-.08l-.66 1.86h-.29Zm.37-.63.1-.24h1l.08.24h-1.18Zm1.25.63-.65-1.86v-.36h.13l.81 2.22h-.29Zm1.13.03a.64.64 0 0 1-.32-.07.46.46 0 0 1-.19-.21.8.8 0 0 1-.06-.33v-1.08h.26v1.01c0 .15.03.26.1.33.05.08.14.11.28.11.07 0 .13 0 .19-.03.06-.02.1-.05.14-.1a.4.4 0 0 0 .08-.14.64.64 0 0 0 .03-.2v-.98h.27v1.66h-.27v-.25h-.02a.47.47 0 0 1-.11.15.46.46 0 0 1-.17.1.66.66 0 0 1-.21.03Zm1.96.56a.98.98 0 0 1-.34-.06.58.58 0 0 1-.24-.16.46.46 0 0 1-.11-.24h.28c.01.06.06.12.13.16.07.04.16.06.28.06.15 0 .27-.04.35-.1a.34.34 0 0 0 .13-.29v-.33h-.03a.55.55 0 0 1-.3.25.67.67 0 0 1-.22.03.67.67 0 0 1-.37-.1.67.67 0 0 1-.24-.28.96.96 0 0 1-.08-.41c0-.16.03-.3.08-.42a.66.66 0 0 1 .62-.39c.08 0 .15.02.22.04l.17.1c.05.05.1.1.13.17h.02v-.28h.26v1.64c0 .12-.03.23-.09.32a.58.58 0 0 1-.25.21.94.94 0 0 1-.4.08Zm0-.91c.1 0 .18-.03.25-.07a.46.46 0 0 0 .17-.2.67.67 0 0 0 .06-.3c0-.1-.02-.2-.06-.29a.46.46 0 0 0-.43-.27c-.1 0-.19.02-.26.07a.46.46 0 0 0-.16.2.73.73 0 0 0-.06.3c0 .1.02.2.06.29.04.08.09.15.16.2.07.04.16.07.26.07ZM223.2 210.55c-.16 0-.3-.02-.42-.08a.72.72 0 0 1-.29-.21.62.62 0 0 1-.12-.32v-.02h.28v.02c0 .07.03.13.08.19.05.05.12.1.2.12a.85.85 0 0 0 .56 0 .45.45 0 0 0 .18-.14.31.31 0 0 0 .07-.2.3.3 0 0 0-.1-.23.72.72 0 0 0-.33-.14l-.25-.06a1.23 1.23 0 0 1-.36-.13.58.58 0 0 1-.2-.2.59.59 0 0 1-.07-.3c0-.12.03-.22.1-.32.06-.1.15-.17.27-.22a.98.98 0 0 1 .4-.08c.15 0 .29.03.4.08.11.05.2.12.27.21s.1.19.11.3v.02h-.27v-.02a.35.35 0 0 0-.09-.17.45.45 0 0 0-.17-.12.65.65 0 0 0-.25-.05.7.7 0 0 0-.25.05.42.42 0 0 0-.18.12.3.3 0 0 0-.06.2c0 .06.01.11.04.16s.07.09.14.12c.06.03.14.06.24.08l.25.06c.15.03.28.08.37.13.1.06.16.12.2.2.05.08.07.17.07.28 0 .14-.03.26-.1.36a.66.66 0 0 1-.28.23c-.13.06-.27.08-.44.08Zm1.93-.02a.69.69 0 0 1-.67-.4c-.06-.13-.1-.28-.1-.45 0-.18.04-.33.1-.45a.7.7 0 0 1 .65-.41.67.67 0 0 1 .64.4 1 1 0 0 1 .09.42v.1h-1.33v-.2h1.19l-.13.19v-.1a.77.77 0 0 0-.06-.33.4.4 0 0 0-.16-.19.45.45 0 0 0-.24-.06.45.45 0 0 0-.24.07.45.45 0 0 0-.17.19.72.72 0 0 0-.06.31v.11c0 .12.02.22.06.3a.44.44 0 0 0 .43.26c.08 0 .14 0 .2-.03l.14-.08a.28.28 0 0 0 .07-.1h.28a.6.6 0 0 1-.22.3.72.72 0 0 1-.2.11.9.9 0 0 1-.27.04Zm1.12.52v-2.2h.27v.26h.02a.56.56 0 0 1 .3-.26.62.62 0 0 1 .22-.04c.14 0 .26.04.37.11.1.07.18.17.24.3.06.13.08.28.08.45 0 .18-.02.33-.08.46a.64.64 0 0 1-.6.4.64.64 0 0 1-.4-.14.5.5 0 0 1-.13-.15h-.02v.81h-.27Zm.75-.76c.1 0 .19-.02.26-.07a.47.47 0 0 0 .16-.22c.04-.09.06-.2.06-.33a.85.85 0 0 0-.06-.33.47.47 0 0 0-.16-.21.44.44 0 0 0-.26-.08.44.44 0 0 0-.43.29c-.04.1-.06.2-.06.33s.02.24.06.33c.04.1.1.17.17.22.07.05.16.07.26.07ZM249.18 210.55a1 1 0 0 1-.55-.14.93.93 0 0 1-.35-.4 1.45 1.45 0 0 1-.12-.62c0-.24.04-.44.12-.62a.93.93 0 0 1 .9-.54.92.92 0 0 1 .9.54c.07.18.11.38.11.62s-.04.44-.12.62a.93.93 0 0 1-.9.54Zm0-.25c.15 0 .28-.04.39-.12.1-.07.2-.18.25-.31.06-.14.1-.3.1-.48 0-.19-.04-.35-.1-.48a.71.71 0 0 0-.25-.31.68.68 0 0 0-.4-.12.68.68 0 0 0-.38.12c-.11.07-.2.17-.26.3-.06.14-.09.3-.09.49 0 .18.03.34.09.48.06.13.14.24.25.31.11.08.24.12.4.12Zm2.14.23a.7.7 0 0 1-.67-.4c-.06-.13-.1-.29-.1-.46 0-.18.04-.33.1-.45a.7.7 0 0 1 .26-.3c.12-.07.25-.1.4-.1.14 0 .26.02.35.06a.61.61 0 0 1 .35.46v.01h-.26a.38.38 0 0 0-.15-.21.45.45 0 0 0-.28-.09c-.1 0-.19.02-.26.08a.48.48 0 0 0-.17.2c-.04.1-.06.2-.06.33s.02.25.06.34c.04.1.1.16.17.22.07.05.16.07.26.07s.2-.02.27-.07a.4.4 0 0 0 .15-.21l.27-.01v.02a.7.7 0 0 1-.12.26.6.6 0 0 1-.23.18.8.8 0 0 1-.34.07Zm1.7-.02c-.17 0-.3-.03-.37-.1s-.11-.18-.11-.34v-1h-.26v-.23h.26v-.43h.27v.43h.37v.22h-.37v.94c0 .1.02.17.06.21.04.04.1.07.18.07h.06l.07-.01v.23h-.08l-.08.01ZM274 210.5v-2.22h.28l1.27 1.82-.19-.1h.15v-1.72h.27v2.22h-.27l-1.27-1.82.18.1h-.14v1.72h-.27Zm3 .03a.79.79 0 0 1-.41-.1.7.7 0 0 1-.27-.3c-.06-.13-.1-.28-.1-.46s.04-.33.1-.46a.7.7 0 0 1 .67-.4c.16 0 .3.04.41.1.12.08.2.17.26.3.07.13.1.28.1.46s-.03.33-.1.46a.69.69 0 0 1-.67.4Zm0-.24c.1 0 .19-.02.26-.07a.46.46 0 0 0 .17-.21c.03-.1.05-.2.05-.34a.86.86 0 0 0-.05-.33.46.46 0 0 0-.17-.22.47.47 0 0 0-.27-.07c-.1 0-.19.02-.26.07a.46.46 0 0 0-.17.22c-.04.09-.06.2-.06.33s.02.25.06.34c.04.09.1.16.17.2.07.06.16.08.26.08Zm1.58.21-.61-1.66h.28l.45 1.37h.03l.45-1.37h.28l-.6 1.66h-.28ZM299.77 210.5v-2.22h.77c.22 0 .4.04.56.13.16.1.28.22.36.38.08.17.12.37.12.6 0 .23-.04.43-.12.6-.08.16-.2.3-.36.38-.16.09-.34.13-.56.13h-.77Zm.28-.25h.47c.16 0 .3-.03.42-.1s.2-.17.27-.3c.06-.12.1-.28.1-.45 0-.19-.04-.34-.1-.47a.66.66 0 0 0-.27-.3.81.81 0 0 0-.42-.1h-.47v1.72Zm2.66.28a.7.7 0 0 1-.67-.4 1.06 1.06 0 0 1-.1-.45c0-.18.04-.33.1-.45a.7.7 0 0 1 .65-.41.67.67 0 0 1 .64.4 1 1 0 0 1 .08.42v.1h-1.33v-.2h1.2l-.13.19v-.1a.77.77 0 0 0-.06-.33.41.41 0 0 0-.4-.25.45.45 0 0 0-.24.07.44.44 0 0 0-.17.19.72.72 0 0 0-.06.31v.11c0 .12.02.22.06.3a.44.44 0 0 0 .43.26c.08 0 .14 0 .2-.03l.13-.08a.28.28 0 0 0 .08-.1h.27a.52.52 0 0 1-.08.17.61.61 0 0 1-.14.14.74.74 0 0 1-.46.14Zm1.8 0a.7.7 0 0 1-.67-.4c-.06-.13-.1-.29-.1-.46 0-.18.04-.33.1-.45a.7.7 0 0 1 .26-.3c.12-.07.25-.1.4-.1.14 0 .26.02.35.06a.61.61 0 0 1 .35.46v.01h-.26a.38.38 0 0 0-.15-.21.45.45 0 0 0-.28-.09c-.1 0-.19.02-.26.08a.48.48 0 0 0-.17.2c-.04.1-.06.2-.06.33s.02.25.06.34c.04.1.1.16.17.22.07.05.16.07.26.07s.2-.02.27-.07a.4.4 0 0 0 .15-.21l.27-.01v.02a.69.69 0 0 1-.12.26.6.6 0 0 1-.23.18.8.8 0 0 1-.34.07ZM325.5 210.5v-.24l.73-.77c.1-.1.18-.18.23-.25.06-.07.1-.13.12-.18.02-.05.03-.1.03-.17a.38.38 0 0 0-.05-.2.32.32 0 0 0-.13-.13.42.42 0 0 0-.2-.05.44.44 0 0 0-.23.05.36.36 0 0 0-.14.15.41.41 0 0 0-.06.2v.01h-.32a.66.66 0 0 1 .37-.6.84.84 0 0 1 .4-.1.8.8 0 0 1 .36.09c.1.05.2.13.25.22.07.1.1.2.1.33 0 .08-.02.17-.05.25-.03.07-.08.16-.16.26l-.31.34-.56.55.09-.15v.15l-.09-.05H327v.29h-1.5Zm2.73.05a.7.7 0 0 1-.44-.14.9.9 0 0 1-.28-.4c-.07-.17-.1-.38-.1-.62s.03-.45.1-.62a.9.9 0 0 1 .28-.4.7.7 0 0 1 .44-.14.7.7 0 0 1 .44.14c.12.1.21.23.28.4.06.17.1.38.1.62s-.04.45-.1.62a.9.9 0 0 1-.28.4.7.7 0 0 1-.44.14Zm0-.28c.1 0 .18-.04.25-.1a.68.68 0 0 0 .16-.31c.04-.13.06-.29.06-.47s-.02-.34-.06-.47a.66.66 0 0 0-.16-.3.34.34 0 0 0-.25-.1c-.1 0-.19.03-.26.1a.68.68 0 0 0-.16.3c-.04.13-.05.29-.05.47s.01.34.05.47c.04.13.1.23.16.3.07.07.16.1.26.1Zm1.26.23v-.24l.74-.77a4.56 4.56 0 0 0 .34-.43c.03-.05.04-.1.04-.17a.38.38 0 0 0-.05-.2.33.33 0 0 0-.13-.13.42.42 0 0 0-.21-.05.45.45 0 0 0-.22.05.37.37 0 0 0-.15.15.41.41 0 0 0-.05.2v.01h-.32a.66.66 0 0 1 .37-.6.84.84 0 0 1 .39-.1.8.8 0 0 1 .36.09c.11.05.2.13.26.22.06.1.1.2.1.33 0 .08-.02.17-.05.25-.03.07-.09.16-.16.26a4 4 0 0 1-.32.34l-.56.55.1-.15v.15l-.1-.05H331v.29h-1.5Zm2.73.04a1 1 0 0 1-.41-.08.7.7 0 0 1-.28-.22.63.63 0 0 1-.12-.33v-.01h.33v.01c0 .07.03.13.07.18.04.05.1.09.17.12s.15.04.24.04c.1 0 .17-.01.24-.04a.4.4 0 0 0 .16-.13.33.33 0 0 0 .06-.2.35.35 0 0 0-.13-.29.54.54 0 0 0-.35-.1h-.27v-.27h.26c.08 0 .16-.01.22-.04a.36.36 0 0 0 .15-.13.32.32 0 0 0 .05-.18.34.34 0 0 0-.04-.19.3.3 0 0 0-.14-.12.5.5 0 0 0-.21-.04.55.55 0 0 0-.22.04.36.36 0 0 0-.22.3v.02h-.33v-.02a.66.66 0 0 1 .12-.33c.07-.09.16-.16.26-.21a.9.9 0 0 1 .39-.08c.15 0 .27.02.38.07.11.05.2.12.26.2.06.1.09.2.09.31 0 .1-.02.18-.06.25a.54.54 0 0 1-.17.17.67.67 0 0 1-.24.1c.17.02.3.07.4.17.1.1.15.22.15.37a.6.6 0 0 1-.1.35.7.7 0 0 1-.3.23 1 1 0 0 1-.4.08ZM354.95 210.55a.72.72 0 0 1-.25-.04.52.52 0 0 1-.2-.12.56.56 0 0 1-.12-.17.67.67 0 0 1-.05-.22v-.03h.27v.02l.05.15c.03.05.07.09.12.12.05.02.1.04.18.04.13 0 .22-.04.28-.1.07-.08.1-.18.1-.32v-1.6h.28v1.6c0 .14-.03.26-.08.36a.55.55 0 0 1-.22.23.73.73 0 0 1-.36.08Zm1.64-.02c-.1 0-.2-.02-.28-.06a.48.48 0 0 1-.2-.17.47.47 0 0 1-.07-.26c0-.1.02-.19.07-.26a.48.48 0 0 1 .2-.16c.1-.04.2-.07.33-.08l.61-.03v.21l-.57.04a.5.5 0 0 0-.28.08.23.23 0 0 0-.09.19c0 .09.04.15.1.2a.4.4 0 0 0 .24.07c.1 0 .17-.02.24-.06a.43.43 0 0 0 .17-.15.38.38 0 0 0 .06-.2v-.52c0-.1-.03-.19-.1-.24-.06-.05-.15-.08-.27-.08-.1 0-.18.02-.25.05a.26.26 0 0 0-.12.15h-.27a.46.46 0 0 1 .1-.23.58.58 0 0 1 .23-.15c.1-.04.2-.06.32-.06.13 0 .25.03.34.07.1.04.17.1.21.19.05.08.08.18.08.3v1.13h-.27v-.24h-.02a.58.58 0 0 1-.3.24.67.67 0 0 1-.2.03Zm1.29-.03v-1.66h.26v.25h.03c.04-.09.1-.16.18-.2a.56.56 0 0 1 .3-.08c.19 0 .33.06.43.16.1.1.15.26.15.46v1.07h-.27v-1c0-.16-.03-.27-.1-.34-.05-.07-.15-.11-.28-.11a.44.44 0 0 0-.23.06.39.39 0 0 0-.15.16.55.55 0 0 0-.06.25v.98h-.26Z" fill="#F8F9FD"/><path d="M20.49 137.34h-2.84v72.26h336.92V99.2l-7.37-6.53-9.65.73-5.67-21.8-6.8 7.63a96.81 96.81 0 0 0-6.24 4.72c-.91.88-4.92 10.54-6.81 15.26-.94 2.66-2.95 7.99-3.4 7.99-.46 0-5.49 3.14-7.94 4.72l-3.4-7.63-5.11-2.9-7.38 6.53c-2.64.97-8.16 2.98-9.07 3.27-.9.3-4.54-.84-6.24-1.45l-3.4 12.71-6.24 3.27c-1.33 2.06-3.97 6.25-3.97 6.54 0 .29-3.03-2.54-4.54-4l-6.8-2.54-5.11-7.99h-3.4l-6.24 3.27h-6.24l-9.65-2.54-6.8 9.8-15.32 10.17-2.83 12.35-6.8-4-5.68.73-3.4 4.36-6.81 1.45-4.54 4-10.78-6.54-5.67 1.82-10.77-12.72-3.97 12.72-5.1 8.71-5.68-19.97-5.1-17.44-10.78-15.98-5.1 8.72-4.55-.73-5.67 3.27-5.67-3.27-5.67-12.34-11.35 1.45-9.64 10.9-4.54-15.26-5.67 19.98-6.8 5.08-8.51 2.54-5.1-2.54-5.11 11.62Z" fill="url(#dlm3asjvy)" fill-opacity=".3"/><path d="M17.65 137.46h2.84l5.1-11.64 5.1 2.54 8.52-2.54 6.8-5.1 5.67-20 4.54 15.27 9.64-10.91 11.35-1.46L82.88 116l5.67 3.28 5.67-3.28 4.54.73 5.1-8.73 10.78 16 5.1 17.47 5.68 20.01 5.1-8.73L134.5 140l10.77 12.74 5.67-1.82 10.78 6.55 4.54-4 6.8-1.46 3.4-4.36 5.68-.73 6.8 4 2.84-12.37 15.32-10.19 6.8-9.82 9.65 2.55h6.24l6.24-3.28h3.4l5.1 8 6.81 2.55c1.51 1.46 4.54 4.3 4.54 4 0-.29 2.64-4.48 3.97-6.54l6.24-3.28 3.4-12.73c1.7.6 5.33 1.74 6.24 1.45.9-.29 6.43-2.3 9.07-3.27l7.38-6.55 5.1 2.91 3.4 7.64c2.46-1.58 7.5-4.73 7.95-4.73.45 0 2.45-5.34 3.4-8 1.9-4.73 5.9-14.41 6.8-15.28.91-.88 4.54-3.52 6.25-4.73l6.8-7.64 5.67 21.83 9.65-.73 7.37 6.55" stroke="#00E5FF" stroke-width=".54"/><path opacity=".3" d="M125.26 163.14 51.51 99.37l82.94 40.15 79.26-21-37.53 29.14-41.73-8.14-9.19 23.62Z" fill="#512DA8"/><path d="m51.51 99.37 73.75 63.77 9.19-23.62 41.73 8.14 37.53-29.13" stroke="#651FFF" stroke-width=".52"/><path d="m125.26 163.14 50.92-15.48" stroke="#651FFF" stroke-width=".52" stroke-dasharray="1.05 1.05"/><path opacity=".5" d="m256.23 132.96-26.25-11.02 39.37-11.81 49.6-24.94-18.1 27.3-31.5-2.36-13.12 22.83Z" fill="#FF9800"/><path d="m229.98 121.94 26.25 11.02 13.12-22.83 31.5 2.36 18.1-27.3" stroke="#FB8C00" stroke-width=".52"/><path d="m256.23 132.96 44.62-20.47" stroke="#FB8C00" stroke-width=".52" stroke-dasharray="1.05 1.05"/><g filter="url(#elm3asjvy)"><rect x="207.15" y="101.99" width="12.64" height="13.74" rx="1.57" fill="#6200EA"/><path d="M211.05 111.52v-5.92h2.03a3 3 0 0 1 1.5.35c.42.23.74.57.96 1 .23.45.34.98.34 1.6 0 .63-.11 1.16-.34 1.6-.22.44-.53.78-.95 1.02-.42.23-.92.34-1.5.34h-2.04Zm.74-.67h1.25c.44 0 .81-.09 1.12-.27.31-.18.55-.44.72-.78.16-.34.24-.75.24-1.23v-.01c0-.48-.08-.9-.25-1.24-.16-.34-.4-.6-.71-.78a2.17 2.17 0 0 0-1.13-.28h-1.24v4.6Z" fill="#fff"/></g><rect x="207.15" y="101.99" width="12.64" height="13.74" rx="1.57" fill="#6200EA"/><path d="M211.05 111.52v-5.92h2.03a3 3 0 0 1 1.5.35c.42.23.74.57.96 1 .23.45.34.98.34 1.6 0 .63-.11 1.16-.34 1.6-.22.44-.53.78-.95 1.02-.42.23-.92.34-1.5.34h-2.04Zm.74-.67h1.25c.44 0 .81-.09 1.12-.27.31-.18.55-.44.72-.78.16-.34.24-.75.24-1.23v-.01c0-.48-.08-.9-.25-1.24-.16-.34-.4-.6-.71-.78a2.17 2.17 0 0 0-1.13-.28h-1.24v4.6Z" fill="#fff"/><g filter="url(#flm3asjvy)"><rect x="311.61" y="72.59" width="12.64" height="13.74" rx="1.57" fill="#FF9800"/><path d="M315.51 82.12V76.2h2.03a3 3 0 0 1 1.5.35c.42.24.74.57.96 1.01.22.44.33.97.33 1.6 0 .62-.1 1.16-.33 1.6-.22.44-.54.78-.95 1.01-.42.23-.92.35-1.5.35h-2.04Zm.74-.66h1.24c.44 0 .82-.1 1.13-.28.31-.18.55-.44.71-.78.17-.34.25-.75.25-1.23 0-.49-.08-.9-.25-1.24-.16-.35-.4-.6-.71-.79a2.18 2.18 0 0 0-1.13-.27h-1.24v4.59Z" fill="#fff"/></g><rect x="311.61" y="72.59" width="12.64" height="13.74" rx="1.57" fill="#FF9800"/><path d="M315.51 82.12V76.2h2.03a3 3 0 0 1 1.5.35c.42.24.74.57.96 1.01.22.44.33.97.33 1.6 0 .62-.1 1.16-.33 1.6-.22.44-.54.78-.95 1.01-.42.23-.92.35-1.5.35h-2.04Zm.74-.66h1.24c.44 0 .82-.1 1.13-.28.31-.18.55-.44.71-.78.17-.34.25-.75.25-1.23 0-.49-.08-.9-.25-1.24-.16-.35-.4-.6-.71-.79a2.18 2.18 0 0 0-1.13-.27h-1.24v4.59Z" fill="#fff"/><g filter="url(#glm3asjvy)"><rect x="128.94" y="121.41" width="12.64" height="13.74" rx="1.57" fill="#6200EA"/><path d="M133.21 130.94v-.65h1.83c.44 0 .78-.1 1.01-.27a.92.92 0 0 0 .35-.77v-.01a.97.97 0 0 0-.16-.57.95.95 0 0 0-.48-.35 2.31 2.31 0 0 0-.8-.11h-1.75v-.64h1.55c.45 0 .78-.08 1-.23a.8.8 0 0 0 .35-.71c0-.31-.1-.54-.3-.7a1.3 1.3 0 0 0-.86-.26h-1.74v-.65h1.9c.36 0 .67.06.93.18a1.35 1.35 0 0 1 .81 1.3c0 .2-.04.4-.13.58-.1.18-.22.33-.37.46-.15.12-.32.2-.52.23v.07c.27.03.5.11.7.24.2.13.35.3.46.5.11.2.16.43.16.7 0 .35-.08.64-.24.9-.16.24-.38.43-.68.56-.3.13-.66.2-1.08.2h-1.94Zm-.37 0v-5.92h.74v5.92h-.74Z" fill="#fff"/></g><rect x="128.94" y="121.41" width="12.64" height="13.74" rx="1.57" fill="#6200EA"/><path d="M133.21 130.94v-.65h1.83c.44 0 .78-.1 1.01-.27a.92.92 0 0 0 .35-.77v-.01a.97.97 0 0 0-.16-.57.95.95 0 0 0-.48-.35 2.31 2.31 0 0 0-.8-.11h-1.75v-.64h1.55c.45 0 .78-.08 1-.23a.8.8 0 0 0 .35-.71c0-.31-.1-.54-.3-.7a1.3 1.3 0 0 0-.86-.26h-1.74v-.65h1.9c.36 0 .67.06.93.18a1.35 1.35 0 0 1 .81 1.3c0 .2-.04.4-.13.58-.1.18-.22.33-.37.46-.15.12-.32.2-.52.23v.07c.27.03.5.11.7.24.2.13.35.3.46.5.11.2.16.43.16.7 0 .35-.08.64-.24.9-.16.24-.38.43-.68.56-.3.13-.66.2-1.08.2h-1.94Zm-.37 0v-5.92h.74v5.92h-.74Z" fill="#fff"/><g filter="url(#hlm3asjvy)"><rect x="264.89" y="93.07" width="12.64" height="13.74" rx="1.57" fill="#FF9800"/><path d="M269.17 102.6v-.66h1.82c.45 0 .79-.09 1.02-.27a.92.92 0 0 0 .34-.77v-.01a.97.97 0 0 0-.16-.57.95.95 0 0 0-.48-.34 2.32 2.32 0 0 0-.79-.12h-1.75v-.64h1.54c.45 0 .79-.07 1.01-.23a.8.8 0 0 0 .34-.7v-.02c0-.3-.1-.53-.3-.7a1.3 1.3 0 0 0-.86-.24h-1.73v-.66h1.89c.36 0 .68.06.93.18a1.36 1.36 0 0 1 .82 1.3 1.35 1.35 0 0 1-.5 1.03c-.16.13-.33.21-.52.25v.06c.27.03.5.11.7.24.2.13.35.3.46.5.1.2.16.44.16.7 0 .35-.08.65-.24.9-.16.24-.39.43-.69.56-.3.14-.66.2-1.08.2h-1.94Zm-.37 0v-5.93h.73v5.92h-.73Z" fill="#fff"/></g><rect x="264.89" y="93.07" width="12.64" height="13.74" rx="1.57" fill="#FF9800"/><path d="M269.17 102.6v-.66h1.82c.45 0 .79-.09 1.02-.27a.92.92 0 0 0 .34-.77v-.01a.97.97 0 0 0-.16-.57.95.95 0 0 0-.48-.34 2.32 2.32 0 0 0-.79-.12h-1.75v-.64h1.54c.45 0 .79-.07 1.01-.23a.8.8 0 0 0 .34-.7v-.02c0-.3-.1-.53-.3-.7a1.3 1.3 0 0 0-.86-.24h-1.73v-.66h1.89c.36 0 .68.06.93.18a1.36 1.36 0 0 1 .82 1.3 1.35 1.35 0 0 1-.5 1.03c-.16.13-.33.21-.52.25v.06c.27.03.5.11.7.24.2.13.35.3.46.5.1.2.16.44.16.7 0 .35-.08.65-.24.9-.16.24-.39.43-.69.56-.3.14-.66.2-1.08.2h-1.94Zm-.37 0v-5.93h.73v5.92h-.73Z" fill="#fff"/><g filter="url(#ilm3asjvy)"><rect x="118.96" y="166.03" width="12.64" height="13.74" rx="1.57" fill="#6200EA"/><path d="m122.4 175.56 2.17-5.92h.57v.96h-.23l-1.74 4.96h-.78Zm.98-1.7.23-.62h2.67l.23.62h-3.13Zm3.33 1.7-1.74-4.97v-.95h.34l2.18 5.92h-.78Z" fill="#fff"/></g><rect x="118.96" y="166.03" width="12.64" height="13.74" rx="1.57" fill="#6200EA"/><path d="m122.4 175.56 2.17-5.92h.57v.96h-.23l-1.74 4.96h-.78Zm.98-1.7.23-.62h2.67l.23.62h-3.13Zm3.33 1.7-1.74-4.97v-.95h.34l2.18 5.92h-.78Z" fill="#fff"/><g filter="url(#jlm3asjvy)"><rect x="250.72" y="134.54" width="12.64" height="13.74" rx="1.57" fill="#FF9800"/><path d="m254.15 144.06 2.18-5.91h.57v.95h-.24l-1.74 4.96h-.77Zm.99-1.7.23-.62h2.67l.23.63h-3.13Zm3.33 1.7-1.74-4.96v-.95h.33l2.18 5.91h-.77Z" fill="#fff"/></g><rect x="250.72" y="134.54" width="12.64" height="13.74" rx="1.57" fill="#FF9800"/><path d="m254.15 144.06 2.18-5.91h.57v.95h-.24l-1.74 4.96h-.77Zm.99-1.7.23-.62h2.67l.23.63h-3.13Zm3.33 1.7-1.74-4.96v-.95h.33l2.18 5.91h-.77Z" fill="#fff"/><g filter="url(#klm3asjvy)"><rect x="45.47" y="82.04" width="12.64" height="13.74" rx="1.57" fill="#6200EA"/><path d="m48.99 91.57 2.2-3.23-.19.57v-.33l-1.99-2.93h.9l1.57 2.38h.34l-.49.27 1.78-2.65h.84l-2.05 2.97v.32l-.17-.57 2.17 3.2h-.88l-1.58-2.36h-.33l.49-.26-1.78 2.62H49Z" fill="#fff"/></g><rect x="45.47" y="82.04" width="12.64" height="13.74" rx="1.57" fill="#6200EA"/><path d="m48.99 91.57 2.2-3.23-.19.57v-.33l-1.99-2.93h.9l1.57 2.38h.34l-.49.27 1.78-2.65h.84l-2.05 2.97v.32l-.17-.57 2.17 3.2h-.88l-1.58-2.36h-.33l.49-.26-1.78 2.62H49Z" fill="#fff"/><g filter="url(#llm3asjvy)"><rect x="223.95" y="117.21" width="12.64" height="13.74" rx="1.57" fill="#FF9800"/><path d="m227.46 126.74 2.2-3.23-.18.57v-.33l-2-2.93h.9l1.58 2.38h.34l-.5.27 1.78-2.65h.84l-2.04 2.97v.32l-.18-.57 2.18 3.2h-.89l-1.57-2.36h-.34l.5-.26-1.78 2.62h-.84Z" fill="#fff"/></g><rect x="223.95" y="117.21" width="12.64" height="13.74" rx="1.57" fill="#FF9800"/><path d="m227.46 126.74 2.2-3.23-.18.57v-.33l-2-2.93h.9l1.58 2.38h.34l-.5.27 1.78-2.65h.84l-2.04 2.97v.32l-.18-.57 2.18 3.2h-.89l-1.57-2.36h-.34l.5-.26-1.78 2.62h-.84Z" fill="#fff"/><g filter="url(#mlm3asjvy)"><rect x="169.88" y="151.86" width="12.64" height="13.74" rx="1.57" fill="#6200EA"/><path d="M174.15 161.38v-.65h1.83c.45 0 .79-.09 1.02-.26.23-.18.34-.44.34-.78a.97.97 0 0 0-.16-.58.95.95 0 0 0-.48-.34 2.32 2.32 0 0 0-.79-.12h-1.76v-.63h1.55c.45 0 .79-.08 1.01-.24a.8.8 0 0 0 .34-.7v-.02c0-.3-.1-.53-.3-.7a1.3 1.3 0 0 0-.86-.24h-1.74v-.65h1.9c.36 0 .67.06.93.18a1.35 1.35 0 0 1 .82 1.29 1.34 1.34 0 0 1-.5 1.03c-.16.13-.33.21-.52.25v.06c.27.04.5.12.7.25.2.12.35.29.46.5.1.2.16.43.16.69 0 .35-.08.65-.24.9-.16.24-.39.43-.69.57-.3.13-.66.2-1.08.2h-1.94Zm-.37 0v-5.91h.74v5.91h-.74Z" fill="#fff"/></g><rect x="169.88" y="151.86" width="12.64" height="13.74" rx="1.57" fill="#6200EA"/><path d="M176.2 161.52c-.53 0-1-.12-1.38-.38-.4-.25-.7-.6-.9-1.06a3.93 3.93 0 0 1-.32-1.65c0-.65.1-1.2.31-1.66.22-.46.52-.81.9-1.07.4-.25.86-.37 1.4-.37.41 0 .79.08 1.13.24.34.16.62.39.84.68.22.29.36.62.42 1h-.75a1.62 1.62 0 0 0-1.65-1.24c-.37 0-.7.1-.98.3-.28.19-.49.47-.64.83-.15.36-.23.79-.23 1.28v.01c0 .5.08.92.23 1.28a1.67 1.67 0 0 0 1.63 1.13c.28 0 .53-.04.75-.13.22-.09.41-.22.56-.38.16-.17.26-.36.32-.6h.76a2.03 2.03 0 0 1-1.26 1.57c-.33.15-.71.22-1.13.22Z" fill="#fff"/><g filter="url(#nlm3asjvy)"><rect x="297.44" y="113.54" width="12.64" height="13.74" rx="1.57" fill="#FF9800"/><path d="M301.71 123.06v-.65h1.83c.44 0 .78-.09 1.01-.27.23-.17.35-.43.35-.77a.97.97 0 0 0-.16-.58.95.95 0 0 0-.48-.34 2.31 2.31 0 0 0-.79-.12h-1.76v-.63h1.55c.45 0 .79-.08 1.01-.24.23-.16.34-.4.34-.7v-.02c0-.3-.1-.53-.3-.7a1.3 1.3 0 0 0-.86-.24h-1.74v-.66h1.9c.36 0 .67.06.93.19a1.35 1.35 0 0 1 .82 1.29 1.35 1.35 0 0 1-.5 1.03c-.16.13-.33.21-.53.25v.06c.28.04.51.12.7.25.2.12.36.29.46.5.11.2.17.43.17.69 0 .35-.09.65-.25.9-.16.24-.38.43-.68.57-.3.13-.66.2-1.08.2h-1.94Zm-.37 0v-5.92h.74v5.92h-.74Z" fill="#fff"/></g><rect x="297.44" y="113.54" width="12.64" height="13.74" rx="1.57" fill="#FF9800"/><path d="M303.76 123.2c-.53 0-1-.12-1.38-.38-.4-.25-.7-.6-.91-1.06a3.93 3.93 0 0 1-.32-1.65c0-.64.1-1.2.32-1.66.21-.46.51-.81.9-1.07.4-.25.86-.37 1.4-.37.4 0 .78.08 1.12.24.35.16.63.39.85.68.22.29.36.62.42 1h-.75a1.63 1.63 0 0 0-1.65-1.24c-.38 0-.7.1-.98.3-.28.19-.5.47-.64.83-.15.36-.23.79-.23 1.28v.01c0 .5.08.92.23 1.28a1.67 1.67 0 0 0 1.63 1.13c.27 0 .52-.04.75-.13.22-.09.4-.22.56-.38.16-.17.26-.37.32-.6h.76a2.06 2.06 0 0 1-1.26 1.57c-.34.15-.71.22-1.13.22Z" fill="#fff"/><path fill-rule="evenodd" clip-rule="evenodd" d="m378.18 208.16.77-1.45h1.8l.77 1.45-.78 1.44h-1.79l-.77-1.44Zm.62-1.7h2.1l.92 1.7-.92 1.7h-2.1l-.92-1.7.92-1.7Zm1.44 1.7a.4.4 0 1 1-.78 0 .4.4 0 0 1 .78 0Zm.26 0a.66.66 0 1 1-1.3 0 .66.66 0 0 1 1.3 0Z" fill="#D1D4DC"/><path transform="rotate(90 406 183)" fill="url(#olm3asjvy)" d="M406 183h55v406h-55z"/></g><defs><filter id="blm3asjvy" x="-12.17" y="-12.17" width="460.76" height="292.76" filterUnits="userSpaceOnUse" color-interpolation-filters="sRGB"><feFlood flood-opacity="0" result="BackgroundImageFix"/><feColorMatrix in="SourceAlpha" values="0 0 0 0 0 0 0 0 0 0 0 0 0 0 0 0 0 0 127 0" result="hardAlpha"/><feOffset dx="15.21" dy="15.21"/><feGaussianBlur stdDeviation="13.69"/><feComposite in2="hardAlpha" operator="out"/><feColorMatrix values="0 0 0 0 0 0 0 0 0 0 0 0 0 0 0 0 0 0 0.32 0"/><feBlend in2="BackgroundImageFix" result="effect1_dropShadow_8251_427542"/><feBlend in="SourceGraphic" in2="effect1_dropShadow_8251_427542" result="shape"/></filter><filter id="elm3asjvy" x="192.45" y="87.29" width="42.04" height="43.13" filterUnits="userSpaceOnUse" color-interpolation-filters="sRGB"><feFlood flood-opacity="0" result="BackgroundImageFix"/><feBlend in="SourceGraphic" in2="BackgroundImageFix" result="shape"/><feGaussianBlur stdDeviation="7.35" result="effect1_foregroundBlur_8251_427542"/></filter><filter id="flm3asjvy" x="296.91" y="57.9" width="42.04" height="43.13" filterUnits="userSpaceOnUse" color-interpolation-filters="sRGB"><feFlood flood-opacity="0" result="BackgroundImageFix"/><feBlend in="SourceGraphic" in2="BackgroundImageFix" result="shape"/><feGaussianBlur stdDeviation="7.35" result="effect1_foregroundBlur_8251_427542"/></filter><filter id="glm3asjvy" x="114.24" y="106.72" width="42.04" height="43.13" filterUnits="userSpaceOnUse" color-interpolation-filters="sRGB"><feFlood flood-opacity="0" result="BackgroundImageFix"/><feBlend in="SourceGraphic" in2="BackgroundImageFix" result="shape"/><feGaussianBlur stdDeviation="7.35" result="effect1_foregroundBlur_8251_427542"/></filter><filter id="hlm3asjvy" x="250.19" y="78.37" width="42.04" height="43.13" filterUnits="userSpaceOnUse" color-interpolation-filters="sRGB"><feFlood flood-opacity="0" result="BackgroundImageFix"/><feBlend in="SourceGraphic" in2="BackgroundImageFix" result="shape"/><feGaussianBlur stdDeviation="7.35" result="effect1_foregroundBlur_8251_427542"/></filter><filter id="ilm3asjvy" x="104.26" y="151.33" width="42.04" height="43.13" filterUnits="userSpaceOnUse" color-interpolation-filters="sRGB"><feFlood flood-opacity="0" result="BackgroundImageFix"/><feBlend in="SourceGraphic" in2="BackgroundImageFix" result="shape"/><feGaussianBlur stdDeviation="7.35" result="effect1_foregroundBlur_8251_427542"/></filter><filter id="jlm3asjvy" x="236.02" y="119.84" width="42.04" height="43.13" filterUnits="userSpaceOnUse" color-interpolation-filters="sRGB"><feFlood flood-opacity="0" result="BackgroundImageFix"/><feBlend in="SourceGraphic" in2="BackgroundImageFix" result="shape"/><feGaussianBlur stdDeviation="7.35" result="effect1_foregroundBlur_8251_427542"/></filter><filter id="klm3asjvy" x="30.77" y="67.35" width="42.04" height="43.13" filterUnits="userSpaceOnUse" color-interpolation-filters="sRGB"><feFlood flood-opacity="0" result="BackgroundImageFix"/><feBlend in="SourceGraphic" in2="BackgroundImageFix" result="shape"/><feGaussianBlur stdDeviation="7.35" result="effect1_foregroundBlur_8251_427542"/></filter><filter id="llm3asjvy" x="209.25" y="102.52" width="42.04" height="43.13" filterUnits="userSpaceOnUse" color-interpolation-filters="sRGB"><feFlood flood-opacity="0" result="BackgroundImageFix"/><feBlend in="SourceGraphic" in2="BackgroundImageFix" result="shape"/><feGaussianBlur stdDeviation="7.35" result="effect1_foregroundBlur_8251_427542"/></filter><filter id="mlm3asjvy" x="155.18" y="137.16" width="42.04" height="43.13" filterUnits="userSpaceOnUse" color-interpolation-filters="sRGB"><feFlood flood-opacity="0" result="BackgroundImageFix"/><feBlend in="SourceGraphic" in2="BackgroundImageFix" result="shape"/><feGaussianBlur stdDeviation="7.35" result="effect1_foregroundBlur_8251_427542"/></filter><filter id="nlm3asjvy" x="282.74" y="98.84" width="42.04" height="43.13" filterUnits="userSpaceOnUse" color-interpolation-filters="sRGB"><feFlood flood-opacity="0" result="BackgroundImageFix"/><feBlend in="SourceGraphic" in2="BackgroundImageFix" result="shape"/><feGaussianBlur stdDeviation="7.35" result="effect1_foregroundBlur_8251_427542"/></filter><linearGradient id="clm3asjvy" x1="203" y1="0" x2="203" y2="238" gradientUnits="userSpaceOnUse"><stop stop-color="#434651"/><stop offset="1" stop-color="#434651" stop-opacity="0"/></linearGradient><linearGradient id="dlm3asjvy" x1="285.09" y1="36.11" x2="285.09" y2="209.6" gradientUnits="userSpaceOnUse"><stop stop-color="#00E5FF"/><stop offset="1" stop-color="#00E5FF" stop-opacity="0"/></linearGradient><linearGradient id="olm3asjvy" x1="461" y1="384.88" x2="406" y2="384.88" gradientUnits="userSpaceOnUse"><stop/><stop offset="1" stop-opacity="0"/></linearGradient><clipPath id="alm3asjvy"><path fill="#fff" d="M0 0h406v238H0z"/></clipPath></defs></svg>