<svg width="106" height="83" viewBox="0 0 106 83" xmlns="http://www.w3.org/2000/svg"><path d="M49.45 3.39 52.42 0l3 3.35.04.03a20.15 20.15 0 0 0 .7.74c.5.53 1.27 1.3 2.28 2.27 2.04 1.93 5.05 4.61 8.91 7.57C75.1 19.9 86.18 26.88 99.64 31.2l6.36 2.05L87.89 50.7v13.1c0 2.02-.86 4.21-2.16 6.2a22.69 22.69 0 0 1-6.2 6.13C73.9 80.02 65.2 83 52.44 83c-12.3 0-20.77-3-26.27-6.88a22.73 22.73 0 0 1-6.06-6.14c-1.27-1.97-2.12-4.16-2.12-6.16V50.7L0 33.27l6.3-2.06C19.42 26.9 30.24 19.94 37.8 14a108.9 108.9 0 0 0 10.93-9.85 42.68 42.68 0 0 0 .68-.74l.03-.03ZM25.97 53v10.83c.03.13.17.77.84 1.81a14.8 14.8 0 0 0 3.95 3.94C34.66 72.33 41.42 75 52.44 75c11.53 0 18.56-2.69 22.58-5.45 2.02-1.39 3.29-2.8 4.03-3.93.68-1.03.81-1.66.84-1.79V53H25.98Zm56.31-8L91 36.6a119.27 119.27 0 0 1-28.5-16.29 119.34 119.34 0 0 1-10-8.56l-.42.4a116.9 116.9 0 0 1-9.34 8.15A115.5 115.5 0 0 1 14.9 36.58L23.6 45h58.68Z" fill="url(#ayeqtxpd0)"/><defs><linearGradient id="ayeqtxpd0" x1="106" y1="10.15" x2="38.45" y2="99.67" gradientUnits="userSpaceOnUse"><stop stop-color="#00BCE6"/><stop offset=".5" stop-color="#2962FF"/><stop offset="1" stop-color="#D500F9"/></linearGradient></defs></svg>