<svg width="98" height="80" viewBox="0 0 98 80" xmlns="http://www.w3.org/2000/svg"><path d="M0 12A12 12 0 0 1 12 0h54c7.22.27 13 6.21 13 13.5V57h19v9.5A13.5 13.5 0 0 1 84 80H24a12 12 0 0 1-12-12V23H0V12Zm71 43V13.5a5.5 5.5 0 1 0-11 0V23H20v45a4 4 0 0 0 4 4h48.17A13.45 13.45 0 0 1 71 66.5V55ZM52 15v-1.5c0-1.96.42-3.82 1.17-5.5H12a4 4 0 0 0-4 4v3h44Zm27 50v1.5a5.5 5.5 0 1 0 11 0V65H79ZM63 48H28v-8h35v8ZM28 64h35v-8H28v8Z" fill="url(#ama1ybhyl)"/><defs><linearGradient id="ama1ybhyl" x1="98" y1="9.79" x2="32.2" y2="93.43" gradientUnits="userSpaceOnUse"><stop stop-color="#00BCE6"/><stop offset=".5" stop-color="#2962FF"/><stop offset="1" stop-color="#D500F9"/></linearGradient></defs></svg>